<?xml version="1.0" encoding="UTF-8" standalone="no"?>
<!DOCTYPE svg PUBLIC "-//W3C//DTD SVG 1.1//EN"
 "http://www.w3.org/Graphics/SVG/1.1/DTD/svg11.dtd">
<!-- Generated by graphviz version 7.0.5 (20221231.0122)
 -->
<!-- Title: libMesh::DiagonalMatrix&lt; T &gt; Pages: 1 -->
<svg width="274pt" height="263pt"
 viewBox="0.00 0.00 274.00 263.00" xmlns="http://www.w3.org/2000/svg" xmlns:xlink="http://www.w3.org/1999/xlink">
<g id="graph0" class="graph" transform="scale(1 1) rotate(0) translate(4 259)">
<title>libMesh::DiagonalMatrix&lt; T &gt;</title>
<polygon fill="white" stroke="none" points="-4,4 -4,-259 270,-259 270,4 -4,4"/>
<!-- Node1 -->
<g id="node1" class="node">
<title>Node1</title>
<polygon fill="#bfbfbf" stroke="black" points="71,-56.5 71,-75.5 235,-75.5 235,-56.5 71,-56.5"/>
<text text-anchor="middle" x="153" y="-63.5" font-family="Helvetica,sans-Serif" font-size="10.00">libMesh::DiagonalMatrix&lt; T &gt;</text>
</g>
<!-- Node6 -->
<g id="node6" class="node">
<title>Node6</title>
<g id="a_node6"><a xlink:href="classlibMesh_1_1LumpedMassMatrix.html" target="_top" xlink:title="模板类用于构造集中质量矩阵。 可能还有用于计算与整体系统缩放相关的数量。每当在此类上调用 add 方法时，我们都会将提供的值的绝对值相加到行索引 i 中。 ">
<polygon fill="white" stroke="black" points="60.5,-0.5 60.5,-19.5 245.5,-19.5 245.5,-0.5 60.5,-0.5"/>
<text text-anchor="middle" x="153" y="-7.5" font-family="Helvetica,sans-Serif" font-size="10.00">libMesh::LumpedMassMatrix&lt; T &gt;</text>
</a>
</g>
</g>
<!-- Node1&#45;&gt;Node6 -->
<g id="edge5" class="edge">
<title>Node1&#45;&gt;Node6</title>
<path fill="none" stroke="midnightblue" d="M153,-45.1C153,-36.14 153,-26.06 153,-19.2"/>
<polygon fill="midnightblue" stroke="midnightblue" points="149.5,-45.05 153,-55.05 156.5,-45.05 149.5,-45.05"/>
</g>
<!-- Node2 -->
<g id="node2" class="node">
<title>Node2</title>
<g id="a_node2"><a xlink:href="classlibMesh_1_1SparseMatrix.html" target="_top" xlink:title="这是一个通用的稀疏矩阵类。该类包含了必须在派生类中覆盖的纯虚拟成员。 使用一个公共的基类允许从不同的求解器包中以不同的格式统一访问稀疏矩阵。 ">
<polygon fill="white" stroke="black" points="76,-112.5 76,-131.5 230,-131.5 230,-112.5 76,-112.5"/>
<text text-anchor="middle" x="153" y="-119.5" font-family="Helvetica,sans-Serif" font-size="10.00">libMesh::SparseMatrix&lt; T &gt;</text>
</a>
</g>
</g>
<!-- Node2&#45;&gt;Node1 -->
<g id="edge1" class="edge">
<title>Node2&#45;&gt;Node1</title>
<path fill="none" stroke="midnightblue" d="M153,-101.1C153,-92.14 153,-82.06 153,-75.2"/>
<polygon fill="midnightblue" stroke="midnightblue" points="149.5,-101.05 153,-111.05 156.5,-101.05 149.5,-101.05"/>
</g>
<!-- Node3 -->
<g id="node3" class="node">
<title>Node3</title>
<g id="a_node3"><a xlink:href="classlibMesh_1_1ReferenceCountedObject.html" target="_top" xlink:title="libMesh::ReferenceCounted\lObject\&lt; SparseMatrix\&lt; T \&gt; \&gt;">
<polygon fill="white" stroke="black" points="0,-168.5 0,-198.5 164,-198.5 164,-168.5 0,-168.5"/>
<text text-anchor="start" x="8" y="-186.5" font-family="Helvetica,sans-Serif" font-size="10.00">libMesh::ReferenceCounted</text>
<text text-anchor="middle" x="82" y="-175.5" font-family="Helvetica,sans-Serif" font-size="10.00">Object&lt; SparseMatrix&lt; T &gt; &gt;</text>
</a>
</g>
</g>
<!-- Node3&#45;&gt;Node2 -->
<g id="edge2" class="edge">
<title>Node3&#45;&gt;Node2</title>
<path fill="none" stroke="midnightblue" d="M107.06,-161.5C119.43,-151.13 133.67,-139.2 142.98,-131.4"/>
<polygon fill="midnightblue" stroke="midnightblue" points="105.04,-158.62 99.63,-167.73 109.54,-163.99 105.04,-158.62"/>
</g>
<!-- Node4 -->
<g id="node4" class="node">
<title>Node4</title>
<g id="a_node4"><a xlink:href="classlibMesh_1_1ReferenceCounter.html" target="_top" xlink:title="This is the base class for enabling reference counting. ">
<polygon fill="white" stroke="black" points="7.5,-235.5 7.5,-254.5 156.5,-254.5 156.5,-235.5 7.5,-235.5"/>
<text text-anchor="middle" x="82" y="-242.5" font-family="Helvetica,sans-Serif" font-size="10.00">libMesh::ReferenceCounter</text>
</a>
</g>
</g>
<!-- Node4&#45;&gt;Node3 -->
<g id="edge3" class="edge">
<title>Node4&#45;&gt;Node3</title>
<path fill="none" stroke="midnightblue" d="M82,-224.46C82,-215.86 82,-205.98 82,-198.19"/>
<polygon fill="midnightblue" stroke="midnightblue" points="78.5,-224.21 82,-234.21 85.5,-224.21 78.5,-224.21"/>
</g>
<!-- Node5 -->
<g id="node5" class="node">
<title>Node5</title>
<polygon fill="white" stroke="#bfbfbf" points="182,-174 182,-193 266,-193 266,-174 182,-174"/>
<text text-anchor="middle" x="224" y="-181" font-family="Helvetica,sans-Serif" font-size="10.00">ParallelObject</text>
</g>
<!-- Node5&#45;&gt;Node2 -->
<g id="edge4" class="edge">
<title>Node5&#45;&gt;Node2</title>
<path fill="none" stroke="midnightblue" d="M205.51,-167.01C191.85,-155.55 173.77,-140.41 162.79,-131.2"/>
<polygon fill="midnightblue" stroke="midnightblue" points="203.06,-169.51 212.97,-173.25 207.55,-164.15 203.06,-169.51"/>
</g>
</g>
</svg>
