<?xml version="1.0" encoding="UTF-8" standalone="no"?>
<!DOCTYPE svg PUBLIC "-//W3C//DTD SVG 1.1//EN"
 "http://www.w3.org/Graphics/SVG/1.1/DTD/svg11.dtd">
<!-- Generated by graphviz version 7.0.5 (20221231.0122)
 -->
<!-- Title: libMesh::PetscMatrix&lt; T &gt; Pages: 1 -->
<svg width="274pt" height="207pt"
 viewBox="0.00 0.00 274.00 207.00" xmlns="http://www.w3.org/2000/svg" xmlns:xlink="http://www.w3.org/1999/xlink">
<g id="graph0" class="graph" transform="scale(1 1) rotate(0) translate(4 203)">
<title>libMesh::PetscMatrix&lt; T &gt;</title>
<polygon fill="white" stroke="none" points="-4,4 -4,-203 270,-203 270,4 -4,4"/>
<!-- Node1 -->
<g id="node1" class="node">
<title>Node1</title>
<polygon fill="#bfbfbf" stroke="black" points="79.5,-0.5 79.5,-19.5 226.5,-19.5 226.5,-0.5 79.5,-0.5"/>
<text text-anchor="middle" x="153" y="-7.5" font-family="Helvetica,sans-Serif" font-size="10.00">libMesh::PetscMatrix&lt; T &gt;</text>
</g>
<!-- Node2 -->
<g id="node2" class="node">
<title>Node2</title>
<g id="a_node2"><a xlink:href="classlibMesh_1_1SparseMatrix.html" target="_top" xlink:title="这是一个通用的稀疏矩阵类。该类包含了必须在派生类中覆盖的纯虚拟成员。 使用一个公共的基类允许从不同的求解器包中以不同的格式统一访问稀疏矩阵。 ">
<polygon fill="white" stroke="black" points="76,-56.5 76,-75.5 230,-75.5 230,-56.5 76,-56.5"/>
<text text-anchor="middle" x="153" y="-63.5" font-family="Helvetica,sans-Serif" font-size="10.00">libMesh::SparseMatrix&lt; T &gt;</text>
</a>
</g>
</g>
<!-- Node2&#45;&gt;Node1 -->
<g id="edge1" class="edge">
<title>Node2&#45;&gt;Node1</title>
<path fill="none" stroke="midnightblue" d="M153,-45.1C153,-36.14 153,-26.06 153,-19.2"/>
<polygon fill="midnightblue" stroke="midnightblue" points="149.5,-45.05 153,-55.05 156.5,-45.05 149.5,-45.05"/>
</g>
<!-- Node3 -->
<g id="node3" class="node">
<title>Node3</title>
<g id="a_node3"><a xlink:href="classlibMesh_1_1ReferenceCountedObject.html" target="_top" xlink:title="libMesh::ReferenceCounted\lObject\&lt; SparseMatrix\&lt; T \&gt; \&gt;">
<polygon fill="white" stroke="black" points="0,-112.5 0,-142.5 164,-142.5 164,-112.5 0,-112.5"/>
<text text-anchor="start" x="8" y="-130.5" font-family="Helvetica,sans-Serif" font-size="10.00">libMesh::ReferenceCounted</text>
<text text-anchor="middle" x="82" y="-119.5" font-family="Helvetica,sans-Serif" font-size="10.00">Object&lt; SparseMatrix&lt; T &gt; &gt;</text>
</a>
</g>
</g>
<!-- Node3&#45;&gt;Node2 -->
<g id="edge2" class="edge">
<title>Node3&#45;&gt;Node2</title>
<path fill="none" stroke="midnightblue" d="M107.06,-105.5C119.43,-95.13 133.67,-83.2 142.98,-75.4"/>
<polygon fill="midnightblue" stroke="midnightblue" points="105.04,-102.62 99.63,-111.73 109.54,-107.99 105.04,-102.62"/>
</g>
<!-- Node4 -->
<g id="node4" class="node">
<title>Node4</title>
<g id="a_node4"><a xlink:href="classlibMesh_1_1ReferenceCounter.html" target="_top" xlink:title="This is the base class for enabling reference counting. ">
<polygon fill="white" stroke="black" points="7.5,-179.5 7.5,-198.5 156.5,-198.5 156.5,-179.5 7.5,-179.5"/>
<text text-anchor="middle" x="82" y="-186.5" font-family="Helvetica,sans-Serif" font-size="10.00">libMesh::ReferenceCounter</text>
</a>
</g>
</g>
<!-- Node4&#45;&gt;Node3 -->
<g id="edge3" class="edge">
<title>Node4&#45;&gt;Node3</title>
<path fill="none" stroke="midnightblue" d="M82,-168.46C82,-159.86 82,-149.98 82,-142.19"/>
<polygon fill="midnightblue" stroke="midnightblue" points="78.5,-168.21 82,-178.21 85.5,-168.21 78.5,-168.21"/>
</g>
<!-- Node5 -->
<g id="node5" class="node">
<title>Node5</title>
<polygon fill="white" stroke="#bfbfbf" points="182,-118 182,-137 266,-137 266,-118 182,-118"/>
<text text-anchor="middle" x="224" y="-125" font-family="Helvetica,sans-Serif" font-size="10.00">ParallelObject</text>
</g>
<!-- Node5&#45;&gt;Node2 -->
<g id="edge4" class="edge">
<title>Node5&#45;&gt;Node2</title>
<path fill="none" stroke="midnightblue" d="M205.51,-111.01C191.85,-99.55 173.77,-84.41 162.79,-75.2"/>
<polygon fill="midnightblue" stroke="midnightblue" points="203.06,-113.51 212.97,-117.25 207.55,-108.15 203.06,-113.51"/>
</g>
</g>
</svg>
