<?xml version="1.0" encoding="UTF-8" standalone="no"?>
<!DOCTYPE svg PUBLIC "-//W3C//DTD SVG 1.1//EN"
 "http://www.w3.org/Graphics/SVG/1.1/DTD/svg11.dtd">
<!-- Generated by graphviz version 7.0.5 (20221231.0122)
 -->
<!-- Title: libMesh::ReferenceCounter Pages: 1 -->
<svg width="1012pt" height="613pt"
 viewBox="0.00 0.00 1012.00 612.50" xmlns="http://www.w3.org/2000/svg" xmlns:xlink="http://www.w3.org/1999/xlink">
<g id="graph0" class="graph" transform="scale(1 1) rotate(0) translate(4 608.5)">
<title>libMesh::ReferenceCounter</title>
<polygon fill="white" stroke="none" points="-4,4 -4,-608.5 1008,-608.5 1008,4 -4,4"/>
<!-- Node1 -->
<g id="node1" class="node">
<title>Node1</title>
<polygon fill="#bfbfbf" stroke="black" points="0,-432.5 0,-451.5 149,-451.5 149,-432.5 0,-432.5"/>
<text text-anchor="middle" x="74.5" y="-439.5" font-family="Helvetica,sans-Serif" font-size="10.00">libMesh::ReferenceCounter</text>
</g>
<!-- Node2 -->
<g id="node2" class="node">
<title>Node2</title>
<g id="a_node2"><a xlink:href="classlibMesh_1_1ReferenceCountedObject.html" target="_top" xlink:title="This class implements reference counting. ">
<polygon fill="white" stroke="black" points="195,-574 195,-604 346,-604 346,-574 195,-574"/>
<text text-anchor="start" x="203" y="-592" font-family="Helvetica,sans-Serif" font-size="10.00">libMesh::ReferenceCounted</text>
<text text-anchor="middle" x="270.5" y="-581" font-family="Helvetica,sans-Serif" font-size="10.00">Object&lt; T &gt;</text>
</a>
</g>
</g>
<!-- Node1&#45;&gt;Node2 -->
<g id="edge1" class="edge">
<title>Node1&#45;&gt;Node2</title>
<path fill="none" stroke="midnightblue" d="M87.17,-460.81C104.94,-487.91 141.38,-537.65 185,-565 190.56,-568.48 196.63,-571.47 202.89,-574.04"/>
<polygon fill="midnightblue" stroke="midnightblue" points="90.25,-459.14 81.92,-452.6 84.35,-462.91 90.25,-459.14"/>
</g>
<!-- Node3 -->
<g id="node3" class="node">
<title>Node3</title>
<g id="a_node3"><a xlink:href="classlibMesh_1_1ReferenceCountedObject.html" target="_top" xlink:title="libMesh::ReferenceCounted\lObject\&lt; DofMap \&gt;">
<polygon fill="white" stroke="black" points="195,-525 195,-555 346,-555 346,-525 195,-525"/>
<text text-anchor="start" x="203" y="-543" font-family="Helvetica,sans-Serif" font-size="10.00">libMesh::ReferenceCounted</text>
<text text-anchor="middle" x="270.5" y="-532" font-family="Helvetica,sans-Serif" font-size="10.00">Object&lt; DofMap &gt;</text>
</a>
</g>
</g>
<!-- Node1&#45;&gt;Node3 -->
<g id="edge2" class="edge">
<title>Node1&#45;&gt;Node3</title>
<path fill="none" stroke="midnightblue" d="M95.54,-458.44C116.65,-475.03 151.42,-500.37 185,-516 192.33,-519.41 200.24,-522.44 208.19,-525.09"/>
<polygon fill="midnightblue" stroke="midnightblue" points="97.78,-455.74 87.78,-452.23 93.4,-461.21 97.78,-455.74"/>
</g>
<!-- Node5 -->
<g id="node5" class="node">
<title>Node5</title>
<g id="a_node5"><a xlink:href="classlibMesh_1_1ReferenceCountedObject.html" target="_top" xlink:title="libMesh::ReferenceCounted\lObject\&lt; DofObject \&gt;">
<polygon fill="white" stroke="black" points="195,-476 195,-506 346,-506 346,-476 195,-476"/>
<text text-anchor="start" x="203" y="-494" font-family="Helvetica,sans-Serif" font-size="10.00">libMesh::ReferenceCounted</text>
<text text-anchor="middle" x="270.5" y="-483" font-family="Helvetica,sans-Serif" font-size="10.00">Object&lt; DofObject &gt;</text>
</a>
</g>
</g>
<!-- Node1&#45;&gt;Node5 -->
<g id="edge4" class="edge">
<title>Node1&#45;&gt;Node5</title>
<path fill="none" stroke="midnightblue" d="M123.73,-454.18C149.98,-460.81 182.68,-469.07 210.45,-476.09"/>
<polygon fill="midnightblue" stroke="midnightblue" points="124.93,-450.87 114.37,-451.82 123.21,-457.66 124.93,-450.87"/>
</g>
<!-- Node7 -->
<g id="node7" class="node">
<title>Node7</title>
<g id="a_node7"><a xlink:href="classlibMesh_1_1ReferenceCountedObject.html" target="_top" xlink:title="libMesh::ReferenceCounted\lObject\&lt; NumericVector\&lt; T \&gt; \&gt;">
<polygon fill="white" stroke="black" points="185,-427 185,-457 356,-457 356,-427 185,-427"/>
<text text-anchor="start" x="193" y="-445" font-family="Helvetica,sans-Serif" font-size="10.00">libMesh::ReferenceCounted</text>
<text text-anchor="middle" x="270.5" y="-434" font-family="Helvetica,sans-Serif" font-size="10.00">Object&lt; NumericVector&lt; T &gt; &gt;</text>
</a>
</g>
</g>
<!-- Node1&#45;&gt;Node7 -->
<g id="edge6" class="edge">
<title>Node1&#45;&gt;Node7</title>
<path fill="none" stroke="midnightblue" d="M160.13,-442C168.49,-442 176.97,-442 185.31,-442"/>
<polygon fill="midnightblue" stroke="midnightblue" points="160.36,-438.5 150.36,-442 160.36,-445.5 160.36,-438.5"/>
</g>
<!-- Node14 -->
<g id="node14" class="node">
<title>Node14</title>
<g id="a_node14"><a xlink:href="classlibMesh_1_1ReferenceCountedObject.html" target="_top" xlink:title="libMesh::ReferenceCounted\lObject\&lt; Preconditioner\&lt; T \&gt; \&gt;">
<polygon fill="white" stroke="black" points="185.5,-376 185.5,-406 355.5,-406 355.5,-376 185.5,-376"/>
<text text-anchor="start" x="193.5" y="-394" font-family="Helvetica,sans-Serif" font-size="10.00">libMesh::ReferenceCounted</text>
<text text-anchor="middle" x="270.5" y="-383" font-family="Helvetica,sans-Serif" font-size="10.00">Object&lt; Preconditioner&lt; T &gt; &gt;</text>
</a>
</g>
</g>
<!-- Node1&#45;&gt;Node14 -->
<g id="edge13" class="edge">
<title>Node1&#45;&gt;Node14</title>
<path fill="none" stroke="midnightblue" d="M122.33,-429.69C149.52,-422.54 183.96,-413.49 212.7,-405.93"/>
<polygon fill="midnightblue" stroke="midnightblue" points="121.78,-426.21 113,-432.14 123.56,-432.98 121.78,-426.21"/>
</g>
<!-- Node18 -->
<g id="node18" class="node">
<title>Node18</title>
<g id="a_node18"><a xlink:href="classlibMesh_1_1ReferenceCountedObject.html" target="_top" xlink:title="libMesh::ReferenceCounted\lObject\&lt; ShellMatrix\&lt; T \&gt; \&gt;">
<polygon fill="white" stroke="black" points="193,-295 193,-325 348,-325 348,-295 193,-295"/>
<text text-anchor="start" x="201" y="-313" font-family="Helvetica,sans-Serif" font-size="10.00">libMesh::ReferenceCounted</text>
<text text-anchor="middle" x="270.5" y="-302" font-family="Helvetica,sans-Serif" font-size="10.00">Object&lt; ShellMatrix&lt; T &gt; &gt;</text>
</a>
</g>
</g>
<!-- Node1&#45;&gt;Node18 -->
<g id="edge17" class="edge">
<title>Node1&#45;&gt;Node18</title>
<path fill="none" stroke="midnightblue" d="M98.19,-426.39C120.31,-411.19 154.92,-387.44 185,-367 206.07,-352.68 230.18,-336.43 247.23,-324.96"/>
<polygon fill="midnightblue" stroke="midnightblue" points="96.47,-423.33 90.21,-431.87 100.44,-429.09 96.47,-423.33"/>
</g>
<!-- Node24 -->
<g id="node24" class="node">
<title>Node24</title>
<g id="a_node24"><a xlink:href="classlibMesh_1_1ReferenceCountedObject.html" target="_top" xlink:title="libMesh::ReferenceCounted\lObject\&lt; SparseMatrix\&lt; T \&gt; \&gt;">
<polygon fill="white" stroke="black" points="188.5,-143 188.5,-173 352.5,-173 352.5,-143 188.5,-143"/>
<text text-anchor="start" x="196.5" y="-161" font-family="Helvetica,sans-Serif" font-size="10.00">libMesh::ReferenceCounted</text>
<text text-anchor="middle" x="270.5" y="-150" font-family="Helvetica,sans-Serif" font-size="10.00">Object&lt; SparseMatrix&lt; T &gt; &gt;</text>
</a>
</g>
</g>
<!-- Node1&#45;&gt;Node24 -->
<g id="edge23" class="edge">
<title>Node1&#45;&gt;Node24</title>
<path fill="none" stroke="midnightblue" d="M88.24,-423.35C124.3,-370.57 226.53,-220.91 259.27,-172.97"/>
<polygon fill="midnightblue" stroke="midnightblue" points="85.56,-421.07 82.81,-431.3 91.34,-425.02 85.56,-421.07"/>
</g>
<!-- Node4 -->
<g id="node4" class="node">
<title>Node4</title>
<g id="a_node4"><a xlink:href="classlibMesh_1_1DofMap.html" target="_top" xlink:title="This class handles the numbering of degrees of freedom on a mesh. ">
<polygon fill="white" stroke="black" points="423,-531.5 423,-550.5 522,-550.5 522,-531.5 423,-531.5"/>
<text text-anchor="middle" x="472.5" y="-538.5" font-family="Helvetica,sans-Serif" font-size="10.00">libMesh::DofMap</text>
</a>
</g>
</g>
<!-- Node3&#45;&gt;Node4 -->
<g id="edge3" class="edge">
<title>Node3&#45;&gt;Node4</title>
<path fill="none" stroke="midnightblue" d="M357.27,-540.43C379.78,-540.54 403.27,-540.66 423.05,-540.76"/>
<polygon fill="midnightblue" stroke="midnightblue" points="357.5,-536.93 347.49,-540.38 357.47,-543.93 357.5,-536.93"/>
</g>
<!-- Node6 -->
<g id="node6" class="node">
<title>Node6</title>
<g id="a_node6"><a xlink:href="classlibMesh_1_1DofObject.html" target="_top" xlink:title="The DofObject defines an abstract base class for objects that have degrees of freedom associated with...">
<polygon fill="white" stroke="black" points="417.5,-493.5 417.5,-512.5 527.5,-512.5 527.5,-493.5 417.5,-493.5"/>
<text text-anchor="middle" x="472.5" y="-500.5" font-family="Helvetica,sans-Serif" font-size="10.00">libMesh::DofObject</text>
</a>
</g>
</g>
<!-- Node5&#45;&gt;Node6 -->
<g id="edge5" class="edge">
<title>Node5&#45;&gt;Node6</title>
<path fill="none" stroke="midnightblue" d="M357.24,-496.14C377.72,-497.37 399.01,-498.65 417.58,-499.76"/>
<polygon fill="midnightblue" stroke="midnightblue" points="357.68,-492.66 347.48,-495.56 357.26,-499.65 357.68,-492.66"/>
</g>
<!-- Node8 -->
<g id="node8" class="node">
<title>Node8</title>
<g id="a_node8"><a xlink:href="classlibMesh_1_1NumericVector.html" target="_top" xlink:title="提供了不同线性代数库的向量存储方案的统一接口。 ">
<polygon fill="white" stroke="black" points="392,-455.5 392,-474.5 553,-474.5 553,-455.5 392,-455.5"/>
<text text-anchor="middle" x="472.5" y="-462.5" font-family="Helvetica,sans-Serif" font-size="10.00">libMesh::NumericVector&lt; T &gt;</text>
</a>
</g>
</g>
<!-- Node7&#45;&gt;Node8 -->
<g id="edge7" class="edge">
<title>Node7&#45;&gt;Node8</title>
<path fill="none" stroke="midnightblue" d="M367.12,-453C375.5,-453.96 383.92,-454.93 392.14,-455.87"/>
<polygon fill="midnightblue" stroke="midnightblue" points="367.58,-449.53 357.24,-451.86 366.78,-456.48 367.58,-449.53"/>
</g>
<!-- Node9 -->
<g id="node9" class="node">
<title>Node9</title>
<g id="a_node9"><a xlink:href="classlibMesh_1_1DistributedVector.html" target="_top" xlink:title="该类提供了一个简单的并行分布式向量数据类型， 专门用于 libmesh。提供了一些集体通信功能。 ">
<polygon fill="white" stroke="black" points="599,-570.5 599,-589.5 773,-589.5 773,-570.5 599,-570.5"/>
<text text-anchor="middle" x="686" y="-577.5" font-family="Helvetica,sans-Serif" font-size="10.00">libMesh::DistributedVector&lt; T &gt;</text>
</a>
</g>
</g>
<!-- Node8&#45;&gt;Node9 -->
<g id="edge8" class="edge">
<title>Node8&#45;&gt;Node9</title>
<path fill="none" stroke="midnightblue" d="M546.79,-479.57C548.96,-480.93 551.03,-482.4 553,-484 582.28,-507.87 559.26,-537.71 589,-561 593.95,-564.88 599.47,-568.03 605.3,-570.59"/>
<polygon fill="midnightblue" stroke="midnightblue" points="548.64,-476.59 538.15,-475.09 545.41,-482.8 548.64,-476.59"/>
</g>
<!-- Node10 -->
<g id="node10" class="node">
<title>Node10</title>
<g id="a_node10"><a xlink:href="classlibMesh_1_1EigenSparseVector.html" target="_top" xlink:title="This class provides a nice interface to the Eigen C++&#45;based data structures for serial vectors...">
<polygon fill="white" stroke="black" points="596,-532.5 596,-551.5 776,-551.5 776,-532.5 596,-532.5"/>
<text text-anchor="middle" x="686" y="-539.5" font-family="Helvetica,sans-Serif" font-size="10.00">libMesh::EigenSparseVector&lt; T &gt;</text>
</a>
</g>
</g>
<!-- Node8&#45;&gt;Node10 -->
<g id="edge9" class="edge">
<title>Node8&#45;&gt;Node10</title>
<path fill="none" stroke="midnightblue" d="M541.71,-478.38C545.63,-480.04 549.42,-481.9 553,-484 573.35,-495.92 568.42,-511.48 589,-523 596.04,-526.94 603.78,-530.08 611.7,-532.57"/>
<polygon fill="midnightblue" stroke="midnightblue" points="543.13,-475.17 532.53,-474.98 540.69,-481.74 543.13,-475.17"/>
</g>
<!-- Node11 -->
<g id="node11" class="node">
<title>Node11</title>
<g id="a_node11"><a xlink:href="classlibMesh_1_1EpetraVector.html" target="_top" xlink:title="此类提供了对Trilinos Epetra_Vector对象的友好接口。所有重写的虚拟函数在numeric_vector.h中都有文档。 ">
<polygon fill="white" stroke="black" points="610,-494.5 610,-513.5 762,-513.5 762,-494.5 610,-494.5"/>
<text text-anchor="middle" x="686" y="-501.5" font-family="Helvetica,sans-Serif" font-size="10.00">libMesh::EpetraVector&lt; T &gt;</text>
</a>
</g>
</g>
<!-- Node8&#45;&gt;Node11 -->
<g id="edge10" class="edge">
<title>Node8&#45;&gt;Node11</title>
<path fill="none" stroke="midnightblue" d="M536.12,-476.55C567.21,-482.28 604.29,-489.12 633.67,-494.53"/>
<polygon fill="midnightblue" stroke="midnightblue" points="536.93,-473.14 526.46,-474.77 535.66,-480.02 536.93,-473.14"/>
</g>
<!-- Node12 -->
<g id="node12" class="node">
<title>Node12</title>
<g id="a_node12"><a xlink:href="classlibMesh_1_1LaspackVector.html" target="_top" xlink:title="这个类为基于laspackc的串行向量数据结构提供了一个很好的接口。 所有被覆盖的虚函数都记录在numeric_vector.h中。 ">
<polygon fill="white" stroke="black" points="606,-456.5 606,-475.5 766,-475.5 766,-456.5 606,-456.5"/>
<text text-anchor="middle" x="686" y="-463.5" font-family="Helvetica,sans-Serif" font-size="10.00">libMesh::LaspackVector&lt; T &gt;</text>
</a>
</g>
</g>
<!-- Node8&#45;&gt;Node12 -->
<g id="edge11" class="edge">
<title>Node8&#45;&gt;Node12</title>
<path fill="none" stroke="midnightblue" d="M564.03,-465.43C578.08,-465.49 592.49,-465.56 606.25,-465.63"/>
<polygon fill="midnightblue" stroke="midnightblue" points="564.39,-461.93 554.37,-465.38 564.35,-468.93 564.39,-461.93"/>
</g>
<!-- Node13 -->
<g id="node13" class="node">
<title>Node13</title>
<g id="a_node13"><a xlink:href="classlibMesh_1_1PetscVector.html" target="_top" xlink:title="该类提供了一个良好的接口，用于访问 PETSc 的 Vec 对象。所有重写的虚拟函数都在 numeric_vector.h 中有文档说明。 ">
<polygon fill="white" stroke="black" points="613,-418.5 613,-437.5 759,-437.5 759,-418.5 613,-418.5"/>
<text text-anchor="middle" x="686" y="-425.5" font-family="Helvetica,sans-Serif" font-size="10.00">libMesh::PetscVector&lt; T &gt;</text>
</a>
</g>
</g>
<!-- Node8&#45;&gt;Node13 -->
<g id="edge12" class="edge">
<title>Node8&#45;&gt;Node13</title>
<path fill="none" stroke="midnightblue" d="M538.76,-453.58C568.32,-448.41 602.86,-442.37 630.95,-437.46"/>
<polygon fill="midnightblue" stroke="midnightblue" points="538.43,-450.09 529.18,-455.26 539.64,-456.98 538.43,-450.09"/>
</g>
<!-- Node15 -->
<g id="node15" class="node">
<title>Node15</title>
<g id="a_node15"><a xlink:href="classlibMesh_1_1Preconditioner.html" target="_top" xlink:title="该类提供了一个统一的接口，用于预处理器。此基类可继承，以包装来自不同软件包（如 PETSc 或 Trilinos）的预处理器。 ">
<polygon fill="white" stroke="black" points="392.5,-380.5 392.5,-399.5 552.5,-399.5 552.5,-380.5 392.5,-380.5"/>
<text text-anchor="middle" x="472.5" y="-387.5" font-family="Helvetica,sans-Serif" font-size="10.00">libMesh::Preconditioner&lt; T &gt;</text>
</a>
</g>
</g>
<!-- Node14&#45;&gt;Node15 -->
<g id="edge14" class="edge">
<title>Node14&#45;&gt;Node15</title>
<path fill="none" stroke="midnightblue" d="M366.76,-390.52C375.4,-390.48 384.08,-390.44 392.56,-390.39"/>
<polygon fill="midnightblue" stroke="midnightblue" points="366.94,-387.02 356.96,-390.57 366.98,-394.02 366.94,-387.02"/>
</g>
<!-- Node16 -->
<g id="node16" class="node">
<title>Node16</title>
<g id="a_node16"><a xlink:href="classlibMesh_1_1EigenPreconditioner.html" target="_top" xlink:title="EigenPreconditioner 类提供了对 Eigen 库中预处理器集合的接口。 ">
<polygon fill="white" stroke="black" points="592.5,-380.5 592.5,-399.5 779.5,-399.5 779.5,-380.5 592.5,-380.5"/>
<text text-anchor="middle" x="686" y="-387.5" font-family="Helvetica,sans-Serif" font-size="10.00">libMesh::EigenPreconditioner&lt; T &gt;</text>
</a>
</g>
</g>
<!-- Node15&#45;&gt;Node16 -->
<g id="edge15" class="edge">
<title>Node15&#45;&gt;Node16</title>
<path fill="none" stroke="midnightblue" d="M563.48,-390C573.12,-390 582.94,-390 592.62,-390"/>
<polygon fill="midnightblue" stroke="midnightblue" points="563.77,-386.5 553.77,-390 563.77,-393.5 563.77,-386.5"/>
</g>
<!-- Node17 -->
<g id="node17" class="node">
<title>Node17</title>
<g id="a_node17"><a xlink:href="classlibMesh_1_1TrilinosPreconditioner.html" target="_top" xlink:title="这个类提供了一个接口，用于使用Trilinos提供的预条件器套件。 所有重写的虚拟函数在preconditioner.h中有文档说明。 ">
<polygon fill="white" stroke="black" points="589,-342.5 589,-361.5 783,-361.5 783,-342.5 589,-342.5"/>
<text text-anchor="middle" x="686" y="-349.5" font-family="Helvetica,sans-Serif" font-size="10.00">libMesh::TrilinosPreconditioner&lt; T &gt;</text>
</a>
</g>
</g>
<!-- Node15&#45;&gt;Node17 -->
<g id="edge16" class="edge">
<title>Node15&#45;&gt;Node17</title>
<path fill="none" stroke="midnightblue" d="M537.26,-378.54C567.69,-373.08 603.66,-366.62 632.48,-361.44"/>
<polygon fill="midnightblue" stroke="midnightblue" points="537.04,-375.03 527.81,-380.24 538.28,-381.92 537.04,-375.03"/>
</g>
<!-- Node19 -->
<g id="node19" class="node">
<title>Node19</title>
<g id="a_node19"><a xlink:href="classlibMesh_1_1ShellMatrix.html" target="_top" xlink:title="通用的Shell矩阵，即一个仅定义其对向量的作用的矩阵。此类包含必须在派生类中重写的纯虚拟成员。 ">
<polygon fill="white" stroke="black" points="400,-266.5 400,-285.5 545,-285.5 545,-266.5 400,-266.5"/>
<text text-anchor="middle" x="472.5" y="-273.5" font-family="Helvetica,sans-Serif" font-size="10.00">libMesh::ShellMatrix&lt; T &gt;</text>
</a>
</g>
</g>
<!-- Node18&#45;&gt;Node19 -->
<g id="edge18" class="edge">
<title>Node18&#45;&gt;Node19</title>
<path fill="none" stroke="midnightblue" d="M359.21,-295.09C378.46,-291.82 398.33,-288.44 415.9,-285.45"/>
<polygon fill="midnightblue" stroke="midnightblue" points="358.73,-291.62 349.46,-296.75 359.9,-298.52 358.73,-291.62"/>
</g>
<!-- Node20 -->
<g id="node20" class="node">
<title>Node20</title>
<g id="a_node20"><a xlink:href="classlibMesh_1_1PetscShellMatrix.html" target="_top" xlink:title="这个类允许使用 PETSc shell 矩阵。 所有覆盖的虚拟函数都在 shell_matrix.h 中有文档说明。 ">
<polygon fill="white" stroke="black" points="600.5,-304.5 600.5,-323.5 771.5,-323.5 771.5,-304.5 600.5,-304.5"/>
<text text-anchor="middle" x="686" y="-311.5" font-family="Helvetica,sans-Serif" font-size="10.00">libMesh::PetscShellMatrix&lt; T &gt;</text>
</a>
</g>
</g>
<!-- Node19&#45;&gt;Node20 -->
<g id="edge19" class="edge">
<title>Node19&#45;&gt;Node20</title>
<path fill="none" stroke="midnightblue" d="M537.26,-287.46C567.69,-292.92 603.66,-299.38 632.48,-304.56"/>
<polygon fill="midnightblue" stroke="midnightblue" points="538.28,-284.08 527.81,-285.76 537.04,-290.97 538.28,-284.08"/>
</g>
<!-- Node21 -->
<g id="node21" class="node">
<title>Node21</title>
<g id="a_node21"><a xlink:href="classlibMesh_1_1SparseShellMatrix.html" target="_top" xlink:title="允许将任何SparseMatrix对象用作壳矩阵的类。 ">
<polygon fill="white" stroke="black" points="597,-266.5 597,-285.5 775,-285.5 775,-266.5 597,-266.5"/>
<text text-anchor="middle" x="686" y="-273.5" font-family="Helvetica,sans-Serif" font-size="10.00">libMesh::SparseShellMatrix&lt; T &gt;</text>
</a>
</g>
</g>
<!-- Node19&#45;&gt;Node21 -->
<g id="edge20" class="edge">
<title>Node19&#45;&gt;Node21</title>
<path fill="none" stroke="midnightblue" d="M555.99,-276C569.48,-276 583.5,-276 597.11,-276"/>
<polygon fill="midnightblue" stroke="midnightblue" points="556.32,-272.5 546.32,-276 556.32,-279.5 556.32,-272.5"/>
</g>
<!-- Node22 -->
<g id="node22" class="node">
<title>Node22</title>
<g id="a_node22"><a xlink:href="classlibMesh_1_1SumShellMatrix.html" target="_top" xlink:title="将任意数量的壳矩阵组合成一个单独的壳矩阵，通过将它们相加在一起的类。 ">
<polygon fill="white" stroke="black" points="602.5,-228.5 602.5,-247.5 769.5,-247.5 769.5,-228.5 602.5,-228.5"/>
<text text-anchor="middle" x="686" y="-235.5" font-family="Helvetica,sans-Serif" font-size="10.00">libMesh::SumShellMatrix&lt; T &gt;</text>
</a>
</g>
</g>
<!-- Node19&#45;&gt;Node22 -->
<g id="edge21" class="edge">
<title>Node19&#45;&gt;Node22</title>
<path fill="none" stroke="midnightblue" d="M537.26,-264.54C567.69,-259.08 603.66,-252.62 632.48,-247.44"/>
<polygon fill="midnightblue" stroke="midnightblue" points="537.04,-261.03 527.81,-266.24 538.28,-267.92 537.04,-261.03"/>
</g>
<!-- Node23 -->
<g id="node23" class="node">
<title>Node23</title>
<g id="a_node23"><a xlink:href="classlibMesh_1_1TensorShellMatrix.html" target="_top" xlink:title="由两个向量的张量积构成的壳矩阵，即A = v*w^T。 ">
<polygon fill="white" stroke="black" points="598,-190.5 598,-209.5 774,-209.5 774,-190.5 598,-190.5"/>
<text text-anchor="middle" x="686" y="-197.5" font-family="Helvetica,sans-Serif" font-size="10.00">libMesh::TensorShellMatrix&lt; T &gt;</text>
</a>
</g>
</g>
<!-- Node19&#45;&gt;Node23 -->
<g id="edge22" class="edge">
<title>Node19&#45;&gt;Node23</title>
<path fill="none" stroke="midnightblue" d="M498.9,-261.03C521.76,-248.15 556.64,-229.97 589,-219 600.26,-215.18 612.54,-212.03 624.44,-209.47"/>
<polygon fill="midnightblue" stroke="midnightblue" points="497.25,-257.94 490.31,-265.94 500.73,-264.01 497.25,-257.94"/>
</g>
<!-- Node25 -->
<g id="node25" class="node">
<title>Node25</title>
<g id="a_node25"><a xlink:href="classlibMesh_1_1SparseMatrix.html" target="_top" xlink:title="这是一个通用的稀疏矩阵类。该类包含了必须在派生类中覆盖的纯虚拟成员。 使用一个公共的基类允许从不同的求解器包中以不同的格式统一访问稀疏矩阵。 ">
<polygon fill="white" stroke="black" points="395.5,-95.5 395.5,-114.5 549.5,-114.5 549.5,-95.5 395.5,-95.5"/>
<text text-anchor="middle" x="472.5" y="-102.5" font-family="Helvetica,sans-Serif" font-size="10.00">libMesh::SparseMatrix&lt; T &gt;</text>
</a>
</g>
</g>
<!-- Node24&#45;&gt;Node25 -->
<g id="edge24" class="edge">
<title>Node24&#45;&gt;Node25</title>
<path fill="none" stroke="midnightblue" d="M338.81,-140.16C371.32,-131.55 409.01,-121.56 435.89,-114.44"/>
<polygon fill="midnightblue" stroke="midnightblue" points="338.24,-136.69 329.47,-142.64 340.04,-143.46 338.24,-136.69"/>
</g>
<!-- Node26 -->
<g id="node26" class="node">
<title>Node26</title>
<g id="a_node26"><a xlink:href="classlibMesh_1_1DiagonalMatrix.html" target="_top" xlink:title="对角矩阵类，其底层存储是一个向量 ">
<polygon fill="white" stroke="black" points="604,-152.5 604,-171.5 768,-171.5 768,-152.5 604,-152.5"/>
<text text-anchor="middle" x="686" y="-159.5" font-family="Helvetica,sans-Serif" font-size="10.00">libMesh::DiagonalMatrix&lt; T &gt;</text>
</a>
</g>
</g>
<!-- Node25&#45;&gt;Node26 -->
<g id="edge25" class="edge">
<title>Node25&#45;&gt;Node26</title>
<path fill="none" stroke="midnightblue" d="M509.71,-118.18C532.3,-126.08 562.1,-135.94 589,-143 602.48,-146.54 617.17,-149.76 630.92,-152.5"/>
<polygon fill="midnightblue" stroke="midnightblue" points="510.94,-114.9 500.35,-114.87 508.61,-121.5 510.94,-114.9"/>
</g>
<!-- Node28 -->
<g id="node28" class="node">
<title>Node28</title>
<g id="a_node28"><a xlink:href="classlibMesh_1_1EigenSparseMatrix.html" target="_top" xlink:title="EigenSparseMatrix 类包装了来自 Eigen 库的稀疏矩阵对象。 ">
<polygon fill="white" stroke="black" points="595.5,-114.5 595.5,-133.5 776.5,-133.5 776.5,-114.5 595.5,-114.5"/>
<text text-anchor="middle" x="686" y="-121.5" font-family="Helvetica,sans-Serif" font-size="10.00">libMesh::EigenSparseMatrix&lt; T &gt;</text>
</a>
</g>
</g>
<!-- Node25&#45;&gt;Node28 -->
<g id="edge27" class="edge">
<title>Node25&#45;&gt;Node28</title>
<path fill="none" stroke="midnightblue" d="M560.69,-112.83C572.25,-113.87 584.11,-114.94 595.71,-115.98"/>
<polygon fill="midnightblue" stroke="midnightblue" points="561.04,-109.35 550.77,-111.94 560.41,-116.32 561.04,-109.35"/>
</g>
<!-- Node29 -->
<g id="node29" class="node">
<title>Node29</title>
<g id="a_node29"><a xlink:href="classlibMesh_1_1EpetraMatrix.html" target="_top" xlink:title="此类提供了对Epetra数据结构的并行、稀疏矩阵的友好接口。所有重写的虚拟函数在sparse_matrix.h中都有文档。 ">
<polygon fill="white" stroke="black" points="610,-76.5 610,-95.5 762,-95.5 762,-76.5 610,-76.5"/>
<text text-anchor="middle" x="686" y="-83.5" font-family="Helvetica,sans-Serif" font-size="10.00">libMesh::EpetraMatrix&lt; T &gt;</text>
</a>
</g>
</g>
<!-- Node25&#45;&gt;Node29 -->
<g id="edge28" class="edge">
<title>Node25&#45;&gt;Node29</title>
<path fill="none" stroke="midnightblue" d="M560.53,-97.18C576.99,-95.7 594.08,-94.17 610.12,-92.73"/>
<polygon fill="midnightblue" stroke="midnightblue" points="560.41,-93.68 550.77,-98.06 561.04,-100.65 560.41,-93.68"/>
</g>
<!-- Node30 -->
<g id="node30" class="node">
<title>Node30</title>
<g id="a_node30"><a xlink:href="classlibMesh_1_1LaspackMatrix.html" target="_top" xlink:title="LaspackMatrix类封装了Laspack库中的QMatrix对象。 目前，Laspack仅支持实数数据类型，因此这个类是对 SparseMatrix&lt;T&gt; 的全特化，其中 T = Real。 所...">
<polygon fill="white" stroke="black" points="605.5,-38.5 605.5,-57.5 766.5,-57.5 766.5,-38.5 605.5,-38.5"/>
<text text-anchor="middle" x="686" y="-45.5" font-family="Helvetica,sans-Serif" font-size="10.00">libMesh::LaspackMatrix&lt; T &gt;</text>
</a>
</g>
</g>
<!-- Node25&#45;&gt;Node30 -->
<g id="edge29" class="edge">
<title>Node25&#45;&gt;Node30</title>
<path fill="none" stroke="midnightblue" d="M509.71,-91.82C532.3,-83.92 562.1,-74.06 589,-67 602.48,-63.46 617.17,-60.24 630.92,-57.5"/>
<polygon fill="midnightblue" stroke="midnightblue" points="508.61,-88.5 500.35,-95.13 510.94,-95.1 508.61,-88.5"/>
</g>
<!-- Node31 -->
<g id="node31" class="node">
<title>Node31</title>
<g id="a_node31"><a xlink:href="classlibMesh_1_1PetscMatrix.html" target="_top" xlink:title="这个类提供了一个方便的接口，用于操作并行稀疏矩阵的 PETSc C 库数据结构。 所有覆盖的虚拟函数都在 sparse_matrix.h 中有详细的文档说明。 ">
<polygon fill="white" stroke="black" points="612.5,-0.5 612.5,-19.5 759.5,-19.5 759.5,-0.5 612.5,-0.5"/>
<text text-anchor="middle" x="686" y="-7.5" font-family="Helvetica,sans-Serif" font-size="10.00">libMesh::PetscMatrix&lt; T &gt;</text>
</a>
</g>
</g>
<!-- Node25&#45;&gt;Node31 -->
<g id="edge30" class="edge">
<title>Node25&#45;&gt;Node31</title>
<path fill="none" stroke="midnightblue" d="M493.16,-88.59C515.13,-71.12 552.43,-43.98 589,-29 598.59,-25.07 609.06,-21.94 619.45,-19.44"/>
<polygon fill="midnightblue" stroke="midnightblue" points="491.2,-85.67 485.64,-94.69 495.61,-91.11 491.2,-85.67"/>
</g>
<!-- Node27 -->
<g id="node27" class="node">
<title>Node27</title>
<g id="a_node27"><a xlink:href="classlibMesh_1_1LumpedMassMatrix.html" target="_top" xlink:title="模板类用于构造集中质量矩阵。 可能还有用于计算与整体系统缩放相关的数量。每当在此类上调用 add 方法时，我们都会将提供的值的绝对值相加到行索引 i 中。 ">
<polygon fill="white" stroke="black" points="819,-152.5 819,-171.5 1004,-171.5 1004,-152.5 819,-152.5"/>
<text text-anchor="middle" x="911.5" y="-159.5" font-family="Helvetica,sans-Serif" font-size="10.00">libMesh::LumpedMassMatrix&lt; T &gt;</text>
</a>
</g>
</g>
<!-- Node26&#45;&gt;Node27 -->
<g id="edge26" class="edge">
<title>Node26&#45;&gt;Node27</title>
<path fill="none" stroke="midnightblue" d="M778.81,-162C792.18,-162 805.95,-162 819.31,-162"/>
<polygon fill="midnightblue" stroke="midnightblue" points="779.2,-158.5 769.2,-162 779.2,-165.5 779.2,-158.5"/>
</g>
</g>
</svg>
