<?xml version="1.0" encoding="UTF-8" standalone="no"?>
<!DOCTYPE svg PUBLIC "-//W3C//DTD SVG 1.1//EN"
 "http://www.w3.org/Graphics/SVG/1.1/DTD/svg11.dtd">
<!-- Generated by graphviz version 7.0.5 (20221231.0122)
 -->
<!-- Title: libMesh::DofConstraintValueMap Pages: 1 -->
<svg width="381pt" height="72pt"
 viewBox="0.00 0.00 381.00 72.00" xmlns="http://www.w3.org/2000/svg" xmlns:xlink="http://www.w3.org/1999/xlink">
<g id="graph0" class="graph" transform="scale(1 1) rotate(0) translate(4 68)">
<title>libMesh::DofConstraintValueMap</title>
<polygon fill="white" stroke="none" points="-4,4 -4,-68 377,-68 377,4 -4,4"/>
<!-- Node1 -->
<g id="node1" class="node">
<title>Node1</title>
<polygon fill="#bfbfbf" stroke="black" points="197,-22.5 197,-41.5 373,-41.5 373,-22.5 197,-22.5"/>
<text text-anchor="middle" x="285" y="-29.5" font-family="Helvetica,sans-Serif" font-size="10.00">libMesh::DofConstraintValueMap</text>
</g>
<!-- Node2 -->
<g id="node2" class="node">
<title>Node2</title>
<polygon fill="white" stroke="#bfbfbf" points="0,-0.5 0,-63.5 161,-63.5 161,-0.5 0,-0.5"/>
<text text-anchor="start" x="8" y="-51.5" font-family="Helvetica,sans-Serif" font-size="10.00">std::map&lt; dof_id_type,</text>
<text text-anchor="start" x="8" y="-40.5" font-family="Helvetica,sans-Serif" font-size="10.00"> Number, std::less&lt; dof</text>
<text text-anchor="start" x="8" y="-29.5" font-family="Helvetica,sans-Serif" font-size="10.00">_id_type &gt;, Threads::scalable</text>
<text text-anchor="start" x="8" y="-18.5" font-family="Helvetica,sans-Serif" font-size="10.00">_allocator&lt; std::pair&lt; const</text>
<text text-anchor="middle" x="80.5" y="-7.5" font-family="Helvetica,sans-Serif" font-size="10.00"> dof_id_type, Number &gt; &gt; &gt;</text>
</g>
<!-- Node2&#45;&gt;Node1 -->
<g id="edge1" class="edge">
<title>Node2&#45;&gt;Node1</title>
<path fill="none" stroke="midnightblue" d="M172.45,-32C180.64,-32 188.93,-32 197.08,-32"/>
<polygon fill="midnightblue" stroke="midnightblue" points="172.47,-28.5 162.47,-32 172.47,-35.5 172.47,-28.5"/>
</g>
</g>
</svg>
