<?xml version="1.0" encoding="UTF-8" standalone="no"?>
<!DOCTYPE svg PUBLIC "-//W3C//DTD SVG 1.1//EN"
 "http://www.w3.org/Graphics/SVG/1.1/DTD/svg11.dtd">
<!-- Generated by graphviz version 7.0.5 (20221231.0122)
 -->
<!-- Title: libMesh::PeriodicBoundaries Pages: 1 -->
<svg width="187pt" height="106pt"
 viewBox="0.00 0.00 187.00 106.00" xmlns="http://www.w3.org/2000/svg" xmlns:xlink="http://www.w3.org/1999/xlink">
<g id="graph0" class="graph" transform="scale(1 1) rotate(0) translate(4 102)">
<title>libMesh::PeriodicBoundaries</title>
<polygon fill="white" stroke="none" points="-4,4 -4,-102 183,-102 183,4 -4,4"/>
<!-- Node1 -->
<g id="node1" class="node">
<title>Node1</title>
<polygon fill="#bfbfbf" stroke="black" points="12,-0.5 12,-19.5 167,-19.5 167,-0.5 12,-0.5"/>
<text text-anchor="middle" x="89.5" y="-7.5" font-family="Helvetica,sans-Serif" font-size="10.00">libMesh::PeriodicBoundaries</text>
</g>
<!-- Node2 -->
<g id="node2" class="node">
<title>Node2</title>
<polygon fill="white" stroke="#bfbfbf" points="0,-56.5 0,-97.5 179,-97.5 179,-56.5 0,-56.5"/>
<text text-anchor="start" x="8" y="-85.5" font-family="Helvetica,sans-Serif" font-size="10.00">std::map&lt; boundary</text>
<text text-anchor="start" x="8" y="-74.5" font-family="Helvetica,sans-Serif" font-size="10.00">_id_type, std::unique</text>
<text text-anchor="middle" x="89.5" y="-63.5" font-family="Helvetica,sans-Serif" font-size="10.00">_ptr&lt; PeriodicBoundaryBase &gt; &gt;</text>
</g>
<!-- Node2&#45;&gt;Node1 -->
<g id="edge1" class="edge">
<title>Node2&#45;&gt;Node1</title>
<path fill="none" stroke="midnightblue" d="M89.5,-45.5C89.5,-35.92 89.5,-26.11 89.5,-19.41"/>
<polygon fill="midnightblue" stroke="midnightblue" points="86,-45.34 89.5,-55.34 93,-45.34 86,-45.34"/>
</g>
</g>
</svg>
