<?xml version="1.0" encoding="UTF-8" standalone="no"?>
<!DOCTYPE svg PUBLIC "-//W3C//DTD SVG 1.1//EN"
 "http://www.w3.org/Graphics/SVG/1.1/DTD/svg11.dtd">
<!-- Generated by graphviz version 7.0.5 (20221231.0122)
 -->
<!-- Title: libMesh::EigenSparseVector&lt; T &gt; Pages: 1 -->
<svg width="282pt" height="207pt"
 viewBox="0.00 0.00 281.50 207.00" xmlns="http://www.w3.org/2000/svg" xmlns:xlink="http://www.w3.org/1999/xlink">
<g id="graph0" class="graph" transform="scale(1 1) rotate(0) translate(4 203)">
<title>libMesh::EigenSparseVector&lt; T &gt;</title>
<polygon fill="white" stroke="none" points="-4,4 -4,-203 277.5,-203 277.5,4 -4,4"/>
<!-- Node1 -->
<g id="node1" class="node">
<title>Node1</title>
<polygon fill="#bfbfbf" stroke="black" points="68.5,-0.5 68.5,-19.5 248.5,-19.5 248.5,-0.5 68.5,-0.5"/>
<text text-anchor="middle" x="158.5" y="-7.5" font-family="Helvetica,sans-Serif" font-size="10.00">libMesh::EigenSparseVector&lt; T &gt;</text>
</g>
<!-- Node2 -->
<g id="node2" class="node">
<title>Node2</title>
<g id="a_node2"><a xlink:href="classlibMesh_1_1NumericVector.html" target="_top" xlink:title="提供了不同线性代数库的向量存储方案的统一接口。 ">
<polygon fill="white" stroke="black" points="78,-56.5 78,-75.5 239,-75.5 239,-56.5 78,-56.5"/>
<text text-anchor="middle" x="158.5" y="-63.5" font-family="Helvetica,sans-Serif" font-size="10.00">libMesh::NumericVector&lt; T &gt;</text>
</a>
</g>
</g>
<!-- Node2&#45;&gt;Node1 -->
<g id="edge1" class="edge">
<title>Node2&#45;&gt;Node1</title>
<path fill="none" stroke="midnightblue" d="M158.5,-45.1C158.5,-36.14 158.5,-26.06 158.5,-19.2"/>
<polygon fill="midnightblue" stroke="midnightblue" points="155,-45.05 158.5,-55.05 162,-45.05 155,-45.05"/>
</g>
<!-- Node3 -->
<g id="node3" class="node">
<title>Node3</title>
<g id="a_node3"><a xlink:href="classlibMesh_1_1ReferenceCountedObject.html" target="_top" xlink:title="libMesh::ReferenceCounted\lObject\&lt; NumericVector\&lt; T \&gt; \&gt;">
<polygon fill="white" stroke="black" points="0,-112.5 0,-142.5 171,-142.5 171,-112.5 0,-112.5"/>
<text text-anchor="start" x="8" y="-130.5" font-family="Helvetica,sans-Serif" font-size="10.00">libMesh::ReferenceCounted</text>
<text text-anchor="middle" x="85.5" y="-119.5" font-family="Helvetica,sans-Serif" font-size="10.00">Object&lt; NumericVector&lt; T &gt; &gt;</text>
</a>
</g>
</g>
<!-- Node3&#45;&gt;Node2 -->
<g id="edge2" class="edge">
<title>Node3&#45;&gt;Node2</title>
<path fill="none" stroke="midnightblue" d="M111.26,-105.5C123.99,-95.13 138.63,-83.2 148.2,-75.4"/>
<polygon fill="midnightblue" stroke="midnightblue" points="109.14,-102.71 103.6,-111.74 113.57,-108.14 109.14,-102.71"/>
</g>
<!-- Node4 -->
<g id="node4" class="node">
<title>Node4</title>
<g id="a_node4"><a xlink:href="classlibMesh_1_1ReferenceCounter.html" target="_top" xlink:title="This is the base class for enabling reference counting. ">
<polygon fill="white" stroke="black" points="11,-179.5 11,-198.5 160,-198.5 160,-179.5 11,-179.5"/>
<text text-anchor="middle" x="85.5" y="-186.5" font-family="Helvetica,sans-Serif" font-size="10.00">libMesh::ReferenceCounter</text>
</a>
</g>
</g>
<!-- Node4&#45;&gt;Node3 -->
<g id="edge3" class="edge">
<title>Node4&#45;&gt;Node3</title>
<path fill="none" stroke="midnightblue" d="M85.5,-168.46C85.5,-159.86 85.5,-149.98 85.5,-142.19"/>
<polygon fill="midnightblue" stroke="midnightblue" points="82,-168.21 85.5,-178.21 89,-168.21 82,-168.21"/>
</g>
<!-- Node5 -->
<g id="node5" class="node">
<title>Node5</title>
<polygon fill="white" stroke="#bfbfbf" points="189.5,-118 189.5,-137 273.5,-137 273.5,-118 189.5,-118"/>
<text text-anchor="middle" x="231.5" y="-125" font-family="Helvetica,sans-Serif" font-size="10.00">ParallelObject</text>
</g>
<!-- Node5&#45;&gt;Node2 -->
<g id="edge4" class="edge">
<title>Node5&#45;&gt;Node2</title>
<path fill="none" stroke="midnightblue" d="M212.49,-111.01C198.44,-99.55 179.86,-84.41 168.56,-75.2"/>
<polygon fill="midnightblue" stroke="midnightblue" points="210.21,-113.67 220.18,-117.27 214.64,-108.24 210.21,-113.67"/>
</g>
</g>
</svg>
