<?xml version="1.0" encoding="UTF-8" standalone="no"?>
<!DOCTYPE svg PUBLIC "-//W3C//DTD SVG 1.1//EN"
 "http://www.w3.org/Graphics/SVG/1.1/DTD/svg11.dtd">
<!-- Generated by graphviz version 7.0.5 (20221231.0122)
 -->
<!-- Title: libMesh::FunctionBase&lt; Output &gt; Pages: 1 -->
<svg width="486pt" height="235pt"
 viewBox="0.00 0.00 486.00 235.00" xmlns="http://www.w3.org/2000/svg" xmlns:xlink="http://www.w3.org/1999/xlink">
<g id="graph0" class="graph" transform="scale(1 1) rotate(0) translate(4 231)">
<title>libMesh::FunctionBase&lt; Output &gt;</title>
<polygon fill="white" stroke="none" points="-4,4 -4,-231 482,-231 482,4 -4,4"/>
<!-- Node1 -->
<g id="node1" class="node">
<title>Node1</title>
<polygon fill="#bfbfbf" stroke="black" points="0,-73.5 0,-103.5 126,-103.5 126,-73.5 0,-73.5"/>
<text text-anchor="start" x="8" y="-91.5" font-family="Helvetica,sans-Serif" font-size="10.00">libMesh::FunctionBase</text>
<text text-anchor="middle" x="63" y="-80.5" font-family="Helvetica,sans-Serif" font-size="10.00">&lt; Output &gt;</text>
</g>
<!-- Node2 -->
<g id="node2" class="node">
<title>Node2</title>
<g id="a_node2"><a xlink:href="classlibMesh_1_1AnalyticFunction.html" target="_top" xlink:title="将函数指针封装成FunctionBase对象。 ">
<polygon fill="white" stroke="black" points="168.5,-196.5 168.5,-226.5 310.5,-226.5 310.5,-196.5 168.5,-196.5"/>
<text text-anchor="start" x="176.5" y="-214.5" font-family="Helvetica,sans-Serif" font-size="10.00">libMesh::AnalyticFunction</text>
<text text-anchor="middle" x="239.5" y="-203.5" font-family="Helvetica,sans-Serif" font-size="10.00">&lt; Output &gt;</text>
</a>
</g>
</g>
<!-- Node1&#45;&gt;Node2 -->
<g id="edge1" class="edge">
<title>Node1&#45;&gt;Node2</title>
<path fill="none" stroke="midnightblue" d="M81.62,-112.02C99.55,-134.41 129.29,-167.57 162,-187.5 167.71,-190.98 173.96,-193.99 180.36,-196.6"/>
<polygon fill="midnightblue" stroke="midnightblue" points="84.53,-110.06 75.61,-104.34 79.02,-114.37 84.53,-110.06"/>
</g>
<!-- Node3 -->
<g id="node3" class="node">
<title>Node3</title>
<g id="a_node3"><a xlink:href="classlibMesh_1_1CompositeFunction.html" target="_top" xlink:title="将不同函数的结果组合成单个向量的函数。所有重写的虚拟函数在function_base.h中都有文档。 ">
<polygon fill="white" stroke="black" points="162,-147.5 162,-177.5 317,-177.5 317,-147.5 162,-147.5"/>
<text text-anchor="start" x="170" y="-165.5" font-family="Helvetica,sans-Serif" font-size="10.00">libMesh::CompositeFunction</text>
<text text-anchor="middle" x="239.5" y="-154.5" font-family="Helvetica,sans-Serif" font-size="10.00">&lt; Output &gt;</text>
</a>
</g>
</g>
<!-- Node1&#45;&gt;Node3 -->
<g id="edge2" class="edge">
<title>Node1&#45;&gt;Node3</title>
<path fill="none" stroke="midnightblue" d="M99.96,-108.68C118.21,-118.45 140.91,-129.88 162,-138.5 169.86,-141.71 178.32,-144.76 186.64,-147.53"/>
<polygon fill="midnightblue" stroke="midnightblue" points="101.85,-105.72 91.39,-104.03 98.51,-111.88 101.85,-105.72"/>
</g>
<!-- Node4 -->
<g id="node4" class="node">
<title>Node4</title>
<g id="a_node4"><a xlink:href="classlibMesh_1_1ConstFunction.html" target="_top" xlink:title="由Roy Stogner创作 2012年 ">
<polygon fill="white" stroke="black" points="174.5,-98.5 174.5,-128.5 304.5,-128.5 304.5,-98.5 174.5,-98.5"/>
<text text-anchor="start" x="182.5" y="-116.5" font-family="Helvetica,sans-Serif" font-size="10.00">libMesh::ConstFunction</text>
<text text-anchor="middle" x="239.5" y="-105.5" font-family="Helvetica,sans-Serif" font-size="10.00">&lt; Output &gt;</text>
</a>
</g>
</g>
<!-- Node1&#45;&gt;Node4 -->
<g id="edge3" class="edge">
<title>Node1&#45;&gt;Node4</title>
<path fill="none" stroke="midnightblue" d="M136.87,-98.94C149.39,-100.73 162.32,-102.59 174.58,-104.34"/>
<polygon fill="midnightblue" stroke="midnightblue" points="137.42,-95.48 127.02,-97.53 136.42,-102.41 137.42,-95.48"/>
</g>
<!-- Node6 -->
<g id="node6" class="node">
<title>Node6</title>
<g id="a_node6"><a xlink:href="classlibMesh_1_1ParsedFunction.html" target="_top" xlink:title="通过解析数学表达式生成（通过 FParser）的函数。所有重写的虚拟函数在 function_base.h 中都有文档说明。 ">
<polygon fill="white" stroke="black" points="172.5,-49.5 172.5,-79.5 306.5,-79.5 306.5,-49.5 172.5,-49.5"/>
<text text-anchor="start" x="180.5" y="-67.5" font-family="Helvetica,sans-Serif" font-size="10.00">libMesh::ParsedFunction</text>
<text text-anchor="middle" x="239.5" y="-56.5" font-family="Helvetica,sans-Serif" font-size="10.00">&lt; Output &gt;</text>
</a>
</g>
</g>
<!-- Node1&#45;&gt;Node6 -->
<g id="edge5" class="edge">
<title>Node1&#45;&gt;Node6</title>
<path fill="none" stroke="midnightblue" d="M136.82,-71.82C148.75,-70.04 161.05,-68.38 172.8,-66.97"/>
<polygon fill="midnightblue" stroke="midnightblue" points="136.37,-68.35 127.02,-73.33 137.43,-75.26 136.37,-68.35"/>
</g>
<!-- Node1&#45;&gt;Node6 -->
<g id="edge6" class="edge">
<title>Node1&#45;&gt;Node6</title>
<path fill="none" stroke="midnightblue" d="M136.57,-85.18C149.89,-83.51 163.68,-81.55 176.65,-79.5"/>
<polygon fill="midnightblue" stroke="midnightblue" points="136.53,-81.66 127.02,-86.34 137.37,-88.61 136.53,-81.66"/>
</g>
<!-- Node7 -->
<g id="node7" class="node">
<title>Node7</title>
<g id="a_node7"><a xlink:href="classlibMesh_1_1WrappedFunction.html" target="_top" xlink:title="将libMesh风格的函数指针封装成FunctionBase对象。 ">
<polygon fill="white" stroke="black" points="166.5,-0.5 166.5,-30.5 312.5,-30.5 312.5,-0.5 166.5,-0.5"/>
<text text-anchor="start" x="174.5" y="-18.5" font-family="Helvetica,sans-Serif" font-size="10.00">libMesh::WrappedFunction</text>
<text text-anchor="middle" x="239.5" y="-7.5" font-family="Helvetica,sans-Serif" font-size="10.00">&lt; Output &gt;</text>
</a>
</g>
</g>
<!-- Node1&#45;&gt;Node7 -->
<g id="edge7" class="edge">
<title>Node1&#45;&gt;Node7</title>
<path fill="none" stroke="midnightblue" d="M101.9,-68.4C119.85,-59.28 141.75,-48.72 162,-40.5 170.8,-36.93 180.33,-33.49 189.57,-30.36"/>
<polygon fill="midnightblue" stroke="midnightblue" points="100.47,-65.2 93.18,-72.88 103.67,-71.43 100.47,-65.2"/>
</g>
<!-- Node5 -->
<g id="node5" class="node">
<title>Node5</title>
<g id="a_node5"><a xlink:href="classlibMesh_1_1ZeroFunction.html" target="_top" xlink:title="ConstFunction that simply returns 0. ">
<polygon fill="white" stroke="black" points="353,-98.5 353,-128.5 478,-128.5 478,-98.5 353,-98.5"/>
<text text-anchor="start" x="361" y="-116.5" font-family="Helvetica,sans-Serif" font-size="10.00">libMesh::ZeroFunction</text>
<text text-anchor="middle" x="415.5" y="-105.5" font-family="Helvetica,sans-Serif" font-size="10.00">&lt; Output &gt;</text>
</a>
</g>
</g>
<!-- Node4&#45;&gt;Node5 -->
<g id="edge4" class="edge">
<title>Node4&#45;&gt;Node5</title>
<path fill="none" stroke="midnightblue" d="M315.64,-113.5C328.12,-113.5 340.93,-113.5 353.02,-113.5"/>
<polygon fill="midnightblue" stroke="midnightblue" points="315.82,-110 305.82,-113.5 315.82,-117 315.82,-110"/>
</g>
</g>
</svg>
