<?xml version="1.0" encoding="UTF-8" standalone="no"?>
<!DOCTYPE svg PUBLIC "-//W3C//DTD SVG 1.1//EN"
 "http://www.w3.org/Graphics/SVG/1.1/DTD/svg11.dtd">
<!-- Generated by graphviz version 7.0.5 (20221231.0122)
 -->
<!-- Title: libMesh::Preconditioner&lt; T &gt; Pages: 1 -->
<svg width="408pt" height="151pt"
 viewBox="0.00 0.00 407.50 151.00" xmlns="http://www.w3.org/2000/svg" xmlns:xlink="http://www.w3.org/1999/xlink">
<g id="graph0" class="graph" transform="scale(1 1) rotate(0) translate(4 147)">
<title>libMesh::Preconditioner&lt; T &gt;</title>
<polygon fill="white" stroke="none" points="-4,4 -4,-147 403.5,-147 403.5,4 -4,4"/>
<!-- Node1 -->
<g id="node1" class="node">
<title>Node1</title>
<polygon fill="#bfbfbf" stroke="black" points="117.5,-56.5 117.5,-75.5 277.5,-75.5 277.5,-56.5 117.5,-56.5"/>
<text text-anchor="middle" x="197.5" y="-63.5" font-family="Helvetica,sans-Serif" font-size="10.00">libMesh::Preconditioner&lt; T &gt;</text>
</g>
<!-- Node4 -->
<g id="node4" class="node">
<title>Node4</title>
<g id="a_node4"><a xlink:href="classlibMesh_1_1EigenPreconditioner.html" target="_top" xlink:title="EigenPreconditioner 类提供了对 Eigen 库中预处理器集合的接口。 ">
<polygon fill="white" stroke="black" points="0,-0.5 0,-19.5 187,-19.5 187,-0.5 0,-0.5"/>
<text text-anchor="middle" x="93.5" y="-7.5" font-family="Helvetica,sans-Serif" font-size="10.00">libMesh::EigenPreconditioner&lt; T &gt;</text>
</a>
</g>
</g>
<!-- Node1&#45;&gt;Node4 -->
<g id="edge3" class="edge">
<title>Node1&#45;&gt;Node4</title>
<path fill="none" stroke="midnightblue" d="M171.24,-51.36C151.85,-41.3 126.08,-27.92 109.64,-19.38"/>
<polygon fill="midnightblue" stroke="midnightblue" points="169.42,-54.36 179.91,-55.87 172.64,-48.15 169.42,-54.36"/>
</g>
<!-- Node5 -->
<g id="node5" class="node">
<title>Node5</title>
<g id="a_node5"><a xlink:href="classlibMesh_1_1TrilinosPreconditioner.html" target="_top" xlink:title="这个类提供了一个接口，用于使用Trilinos提供的预条件器套件。 所有重写的虚拟函数在preconditioner.h中有文档说明。 ">
<polygon fill="white" stroke="black" points="205.5,-0.5 205.5,-19.5 399.5,-19.5 399.5,-0.5 205.5,-0.5"/>
<text text-anchor="middle" x="302.5" y="-7.5" font-family="Helvetica,sans-Serif" font-size="10.00">libMesh::TrilinosPreconditioner&lt; T &gt;</text>
</a>
</g>
</g>
<!-- Node1&#45;&gt;Node5 -->
<g id="edge4" class="edge">
<title>Node1&#45;&gt;Node5</title>
<path fill="none" stroke="midnightblue" d="M224.02,-51.36C243.59,-41.3 269.61,-27.92 286.21,-19.38"/>
<polygon fill="midnightblue" stroke="midnightblue" points="222.54,-48.18 215.25,-55.87 225.75,-54.41 222.54,-48.18"/>
</g>
<!-- Node2 -->
<g id="node2" class="node">
<title>Node2</title>
<polygon fill="white" stroke="#bfbfbf" points="64.5,-112.5 64.5,-142.5 202.5,-142.5 202.5,-112.5 64.5,-112.5"/>
<text text-anchor="start" x="72.5" y="-130.5" font-family="Helvetica,sans-Serif" font-size="10.00">ReferenceCountedObject</text>
<text text-anchor="middle" x="133.5" y="-119.5" font-family="Helvetica,sans-Serif" font-size="10.00">&lt; Preconditioner&lt; T &gt; &gt;</text>
</g>
<!-- Node2&#45;&gt;Node1 -->
<g id="edge1" class="edge">
<title>Node2&#45;&gt;Node1</title>
<path fill="none" stroke="midnightblue" d="M156.74,-104.9C167.74,-94.67 180.24,-83.04 188.47,-75.4"/>
<polygon fill="midnightblue" stroke="midnightblue" points="154.39,-102.3 149.45,-111.67 159.16,-107.42 154.39,-102.3"/>
</g>
<!-- Node3 -->
<g id="node3" class="node">
<title>Node3</title>
<polygon fill="white" stroke="#bfbfbf" points="220.5,-118 220.5,-137 304.5,-137 304.5,-118 220.5,-118"/>
<text text-anchor="middle" x="262.5" y="-125" font-family="Helvetica,sans-Serif" font-size="10.00">ParallelObject</text>
</g>
<!-- Node3&#45;&gt;Node1 -->
<g id="edge2" class="edge">
<title>Node3&#45;&gt;Node1</title>
<path fill="none" stroke="midnightblue" d="M245.21,-110.67C232.74,-99.26 216.42,-84.32 206.46,-75.2"/>
<polygon fill="midnightblue" stroke="midnightblue" points="242.61,-113.03 252.35,-117.2 247.33,-107.87 242.61,-113.03"/>
</g>
</g>
</svg>
