<?xml version="1.0" encoding="UTF-8" standalone="no"?>
<!DOCTYPE svg PUBLIC "-//W3C//DTD SVG 1.1//EN"
 "http://www.w3.org/Graphics/SVG/1.1/DTD/svg11.dtd">
<!-- Generated by graphviz version 7.0.5 (20221231.0122)
 -->
<!-- Title: libMesh::ConstFunction&lt; Output &gt; Pages: 1 -->
<svg width="138pt" height="173pt"
 viewBox="0.00 0.00 138.00 173.00" xmlns="http://www.w3.org/2000/svg" xmlns:xlink="http://www.w3.org/1999/xlink">
<g id="graph0" class="graph" transform="scale(1 1) rotate(0) translate(4 169)">
<title>libMesh::ConstFunction&lt; Output &gt;</title>
<polygon fill="white" stroke="none" points="-4,4 -4,-169 134,-169 134,4 -4,4"/>
<!-- Node1 -->
<g id="node1" class="node">
<title>Node1</title>
<polygon fill="#bfbfbf" stroke="black" points="0,-67.5 0,-97.5 130,-97.5 130,-67.5 0,-67.5"/>
<text text-anchor="start" x="8" y="-85.5" font-family="Helvetica,sans-Serif" font-size="10.00">libMesh::ConstFunction</text>
<text text-anchor="middle" x="65" y="-74.5" font-family="Helvetica,sans-Serif" font-size="10.00">&lt; Output &gt;</text>
</g>
<!-- Node3 -->
<g id="node3" class="node">
<title>Node3</title>
<g id="a_node3"><a xlink:href="classlibMesh_1_1ZeroFunction.html" target="_top" xlink:title="ConstFunction that simply returns 0. ">
<polygon fill="white" stroke="black" points="2.5,-0.5 2.5,-30.5 127.5,-30.5 127.5,-0.5 2.5,-0.5"/>
<text text-anchor="start" x="10.5" y="-18.5" font-family="Helvetica,sans-Serif" font-size="10.00">libMesh::ZeroFunction</text>
<text text-anchor="middle" x="65" y="-7.5" font-family="Helvetica,sans-Serif" font-size="10.00">&lt; Output &gt;</text>
</a>
</g>
</g>
<!-- Node1&#45;&gt;Node3 -->
<g id="edge2" class="edge">
<title>Node1&#45;&gt;Node3</title>
<path fill="none" stroke="midnightblue" d="M65,-56.36C65,-47.49 65,-37.84 65,-30.26"/>
<polygon fill="midnightblue" stroke="midnightblue" points="61.5,-56.2 65,-66.2 68.5,-56.2 61.5,-56.2"/>
</g>
<!-- Node2 -->
<g id="node2" class="node">
<title>Node2</title>
<g id="a_node2"><a xlink:href="classlibMesh_1_1FunctionBase.html" target="_top" xlink:title="FunctionBase是一个函数对象的基类，可以在某一点（可选地包括时间）进行评估。 ">
<polygon fill="white" stroke="black" points="2,-134.5 2,-164.5 128,-164.5 128,-134.5 2,-134.5"/>
<text text-anchor="start" x="10" y="-152.5" font-family="Helvetica,sans-Serif" font-size="10.00">libMesh::FunctionBase</text>
<text text-anchor="middle" x="65" y="-141.5" font-family="Helvetica,sans-Serif" font-size="10.00">&lt; Output &gt;</text>
</a>
</g>
</g>
<!-- Node2&#45;&gt;Node1 -->
<g id="edge1" class="edge">
<title>Node2&#45;&gt;Node1</title>
<path fill="none" stroke="midnightblue" d="M65,-123.36C65,-114.49 65,-104.84 65,-97.26"/>
<polygon fill="midnightblue" stroke="midnightblue" points="61.5,-123.2 65,-133.2 68.5,-123.2 61.5,-123.2"/>
</g>
</g>
</svg>
