<?xml version="1.0" encoding="UTF-8" standalone="no"?>
<!DOCTYPE svg PUBLIC "-//W3C//DTD SVG 1.1//EN"
 "http://www.w3.org/Graphics/SVG/1.1/DTD/svg11.dtd">
<!-- Generated by graphviz version 7.0.5 (20221231.0122)
 -->
<!-- Title: libMesh::TrilinosPreconditioner&lt; T &gt; Pages: 1 -->
<svg width="335pt" height="151pt"
 viewBox="0.00 0.00 335.00 151.00" xmlns="http://www.w3.org/2000/svg" xmlns:xlink="http://www.w3.org/1999/xlink">
<g id="graph0" class="graph" transform="scale(1 1) rotate(0) translate(4 147)">
<title>libMesh::TrilinosPreconditioner&lt; T &gt;</title>
<polygon fill="white" stroke="none" points="-4,4 -4,-147 331,-147 331,4 -4,4"/>
<!-- Node1 -->
<g id="node1" class="node">
<title>Node1</title>
<polygon fill="#bfbfbf" stroke="black" points="109,-0.5 109,-19.5 303,-19.5 303,-0.5 109,-0.5"/>
<text text-anchor="middle" x="206" y="-7.5" font-family="Helvetica,sans-Serif" font-size="10.00">libMesh::TrilinosPreconditioner&lt; T &gt;</text>
</g>
<!-- Node2 -->
<g id="node2" class="node">
<title>Node2</title>
<g id="a_node2"><a xlink:href="classlibMesh_1_1Preconditioner.html" target="_top" xlink:title="该类提供了一个统一的接口，用于预处理器。此基类可继承，以包装来自不同软件包（如 PETSc 或 Trilinos）的预处理器。 ">
<polygon fill="white" stroke="black" points="53,-56.5 53,-75.5 213,-75.5 213,-56.5 53,-56.5"/>
<text text-anchor="middle" x="133" y="-63.5" font-family="Helvetica,sans-Serif" font-size="10.00">libMesh::Preconditioner&lt; T &gt;</text>
</a>
</g>
</g>
<!-- Node2&#45;&gt;Node1 -->
<g id="edge1" class="edge">
<title>Node2&#45;&gt;Node1</title>
<path fill="none" stroke="midnightblue" d="M153.41,-49.9C166.85,-39.96 183.93,-27.33 194.91,-19.2"/>
<polygon fill="midnightblue" stroke="midnightblue" points="151.58,-46.9 145.62,-55.66 155.74,-52.53 151.58,-46.9"/>
</g>
<!-- Node3 -->
<g id="node3" class="node">
<title>Node3</title>
<polygon fill="white" stroke="#bfbfbf" points="0,-112.5 0,-142.5 138,-142.5 138,-112.5 0,-112.5"/>
<text text-anchor="start" x="8" y="-130.5" font-family="Helvetica,sans-Serif" font-size="10.00">ReferenceCountedObject</text>
<text text-anchor="middle" x="69" y="-119.5" font-family="Helvetica,sans-Serif" font-size="10.00">&lt; Preconditioner&lt; T &gt; &gt;</text>
</g>
<!-- Node3&#45;&gt;Node2 -->
<g id="edge2" class="edge">
<title>Node3&#45;&gt;Node2</title>
<path fill="none" stroke="midnightblue" d="M92.24,-104.9C103.24,-94.67 115.74,-83.04 123.97,-75.4"/>
<polygon fill="midnightblue" stroke="midnightblue" points="89.89,-102.3 84.95,-111.67 94.66,-107.42 89.89,-102.3"/>
</g>
<!-- Node4 -->
<g id="node4" class="node">
<title>Node4</title>
<polygon fill="white" stroke="#bfbfbf" points="156,-118 156,-137 240,-137 240,-118 156,-118"/>
<text text-anchor="middle" x="198" y="-125" font-family="Helvetica,sans-Serif" font-size="10.00">ParallelObject</text>
</g>
<!-- Node4&#45;&gt;Node2 -->
<g id="edge3" class="edge">
<title>Node4&#45;&gt;Node2</title>
<path fill="none" stroke="midnightblue" d="M180.71,-110.67C168.24,-99.26 151.92,-84.32 141.96,-75.2"/>
<polygon fill="midnightblue" stroke="midnightblue" points="178.11,-113.03 187.85,-117.2 182.83,-107.87 178.11,-113.03"/>
</g>
<!-- Node5 -->
<g id="node5" class="node">
<title>Node5</title>
<polygon fill="white" stroke="#bfbfbf" points="231,-56.5 231,-75.5 327,-75.5 327,-56.5 231,-56.5"/>
<text text-anchor="middle" x="279" y="-63.5" font-family="Helvetica,sans-Serif" font-size="10.00">Epetra_Operator</text>
</g>
<!-- Node5&#45;&gt;Node1 -->
<g id="edge4" class="edge">
<title>Node5&#45;&gt;Node1</title>
<path fill="none" stroke="midnightblue" d="M258.59,-49.9C245.15,-39.96 228.07,-27.33 217.09,-19.2"/>
<polygon fill="midnightblue" stroke="midnightblue" points="256.26,-52.53 266.38,-55.66 260.42,-46.9 256.26,-52.53"/>
</g>
</g>
</svg>
