<?xml version="1.0" encoding="UTF-8" standalone="no"?>
<!DOCTYPE svg PUBLIC "-//W3C//DTD SVG 1.1//EN"
 "http://www.w3.org/Graphics/SVG/1.1/DTD/svg11.dtd">
<!-- Generated by graphviz version 7.0.5 (20221231.0122)
 -->
<!-- Title: libMesh::DofConstraints Pages: 1 -->
<svg width="414pt" height="72pt"
 viewBox="0.00 0.00 414.00 72.00" xmlns="http://www.w3.org/2000/svg" xmlns:xlink="http://www.w3.org/1999/xlink">
<g id="graph0" class="graph" transform="scale(1 1) rotate(0) translate(4 68)">
<title>libMesh::DofConstraints</title>
<polygon fill="white" stroke="none" points="-4,4 -4,-68 410,-68 410,4 -4,4"/>
<!-- Node1 -->
<g id="node1" class="node">
<title>Node1</title>
<polygon fill="#bfbfbf" stroke="black" points="272,-22.5 272,-41.5 406,-41.5 406,-22.5 272,-22.5"/>
<text text-anchor="middle" x="339" y="-29.5" font-family="Helvetica,sans-Serif" font-size="10.00">libMesh::DofConstraints</text>
</g>
<!-- Node2 -->
<g id="node2" class="node">
<title>Node2</title>
<polygon fill="white" stroke="#bfbfbf" points="0,-0.5 0,-63.5 236,-63.5 236,-0.5 0,-0.5"/>
<text text-anchor="start" x="8" y="-51.5" font-family="Helvetica,sans-Serif" font-size="10.00">std::map&lt;dof_id_type,</text>
<text text-anchor="start" x="8" y="-40.5" font-family="Helvetica,sans-Serif" font-size="10.00"> DofConstraintRow, std</text>
<text text-anchor="start" x="8" y="-29.5" font-family="Helvetica,sans-Serif" font-size="10.00">::less&lt;dof_id_type&gt;, Threads</text>
<text text-anchor="start" x="8" y="-18.5" font-family="Helvetica,sans-Serif" font-size="10.00">::scalable_allocator&lt;std::pair</text>
<text text-anchor="middle" x="118" y="-7.5" font-family="Helvetica,sans-Serif" font-size="10.00">&lt;const dof_id_type, DofConstraintRow&gt; &gt; &gt;</text>
</g>
<!-- Node2&#45;&gt;Node1 -->
<g id="edge1" class="edge">
<title>Node2&#45;&gt;Node1</title>
<path fill="none" stroke="midnightblue" d="M247.19,-32C255.74,-32 264.13,-32 272.15,-32"/>
<polygon fill="midnightblue" stroke="midnightblue" points="247.39,-28.5 237.39,-32 247.39,-35.5 247.39,-28.5"/>
</g>
</g>
</svg>
