<?xml version="1.0" encoding="UTF-8" standalone="no"?>
<!DOCTYPE svg PUBLIC "-//W3C//DTD SVG 1.1//EN"
 "http://www.w3.org/Graphics/SVG/1.1/DTD/svg11.dtd">
<!-- Generated by graphviz version 7.0.5 (20221231.0122)
 -->
<!-- Title: libMesh::NumericVector&lt; T &gt; Pages: 1 -->
<svg width="777pt" height="180pt"
 viewBox="0.00 0.00 777.00 180.00" xmlns="http://www.w3.org/2000/svg" xmlns:xlink="http://www.w3.org/1999/xlink">
<g id="graph0" class="graph" transform="scale(1 1) rotate(0) translate(4 176)">
<title>libMesh::NumericVector&lt; T &gt;</title>
<polygon fill="white" stroke="none" points="-4,4 -4,-176 773,-176 773,4 -4,4"/>
<!-- Node1 -->
<g id="node1" class="node">
<title>Node1</title>
<polygon fill="#bfbfbf" stroke="black" points="392,-76.5 392,-95.5 553,-95.5 553,-76.5 392,-76.5"/>
<text text-anchor="middle" x="472.5" y="-83.5" font-family="Helvetica,sans-Serif" font-size="10.00">libMesh::NumericVector&lt; T &gt;</text>
</g>
<!-- Node5 -->
<g id="node5" class="node">
<title>Node5</title>
<g id="a_node5"><a xlink:href="classlibMesh_1_1DistributedVector.html" target="_top" xlink:title="该类提供了一个简单的并行分布式向量数据类型， 专门用于 libmesh。提供了一些集体通信功能。 ">
<polygon fill="white" stroke="black" points="592,-152.5 592,-171.5 766,-171.5 766,-152.5 592,-152.5"/>
<text text-anchor="middle" x="679" y="-159.5" font-family="Helvetica,sans-Serif" font-size="10.00">libMesh::DistributedVector&lt; T &gt;</text>
</a>
</g>
</g>
<!-- Node1&#45;&gt;Node5 -->
<g id="edge4" class="edge">
<title>Node1&#45;&gt;Node5</title>
<path fill="none" stroke="midnightblue" d="M499.33,-101.07C522.22,-113.86 556.91,-131.85 589,-143 599.89,-146.79 611.81,-149.96 623.29,-152.56"/>
<polygon fill="midnightblue" stroke="midnightblue" points="501.14,-98.07 490.71,-96.18 497.68,-104.16 501.14,-98.07"/>
</g>
<!-- Node6 -->
<g id="node6" class="node">
<title>Node6</title>
<g id="a_node6"><a xlink:href="classlibMesh_1_1EigenSparseVector.html" target="_top" xlink:title="This class provides a nice interface to the Eigen C++&#45;based data structures for serial vectors...">
<polygon fill="white" stroke="black" points="589,-114.5 589,-133.5 769,-133.5 769,-114.5 589,-114.5"/>
<text text-anchor="middle" x="679" y="-121.5" font-family="Helvetica,sans-Serif" font-size="10.00">libMesh::EigenSparseVector&lt; T &gt;</text>
</a>
</g>
</g>
<!-- Node1&#45;&gt;Node6 -->
<g id="edge5" class="edge">
<title>Node1&#45;&gt;Node6</title>
<path fill="none" stroke="midnightblue" d="M535.54,-97.53C564.88,-102.98 599.47,-109.41 627.22,-114.56"/>
<polygon fill="midnightblue" stroke="midnightblue" points="536.54,-94.15 526.06,-95.77 535.26,-101.04 536.54,-94.15"/>
</g>
<!-- Node7 -->
<g id="node7" class="node">
<title>Node7</title>
<g id="a_node7"><a xlink:href="classlibMesh_1_1EpetraVector.html" target="_top" xlink:title="此类提供了对Trilinos Epetra_Vector对象的友好接口。所有重写的虚拟函数在numeric_vector.h中都有文档。 ">
<polygon fill="white" stroke="black" points="603,-76.5 603,-95.5 755,-95.5 755,-76.5 603,-76.5"/>
<text text-anchor="middle" x="679" y="-83.5" font-family="Helvetica,sans-Serif" font-size="10.00">libMesh::EpetraVector&lt; T &gt;</text>
</a>
</g>
</g>
<!-- Node1&#45;&gt;Node7 -->
<g id="edge6" class="edge">
<title>Node1&#45;&gt;Node7</title>
<path fill="none" stroke="midnightblue" d="M564.18,-86C577.17,-86 590.41,-86 603.04,-86"/>
<polygon fill="midnightblue" stroke="midnightblue" points="564.37,-82.5 554.37,-86 564.37,-89.5 564.37,-82.5"/>
</g>
<!-- Node8 -->
<g id="node8" class="node">
<title>Node8</title>
<g id="a_node8"><a xlink:href="classlibMesh_1_1LaspackVector.html" target="_top" xlink:title="这个类为基于laspackc的串行向量数据结构提供了一个很好的接口。 所有被覆盖的虚函数都记录在numeric_vector.h中。 ">
<polygon fill="white" stroke="black" points="599,-38.5 599,-57.5 759,-57.5 759,-38.5 599,-38.5"/>
<text text-anchor="middle" x="679" y="-45.5" font-family="Helvetica,sans-Serif" font-size="10.00">libMesh::LaspackVector&lt; T &gt;</text>
</a>
</g>
</g>
<!-- Node1&#45;&gt;Node8 -->
<g id="edge7" class="edge">
<title>Node1&#45;&gt;Node8</title>
<path fill="none" stroke="midnightblue" d="M535.54,-74.47C564.88,-69.02 599.47,-62.59 627.22,-57.44"/>
<polygon fill="midnightblue" stroke="midnightblue" points="535.26,-70.96 526.06,-76.23 536.54,-77.85 535.26,-70.96"/>
</g>
<!-- Node9 -->
<g id="node9" class="node">
<title>Node9</title>
<g id="a_node9"><a xlink:href="classlibMesh_1_1PetscVector.html" target="_top" xlink:title="该类提供了一个良好的接口，用于访问 PETSc 的 Vec 对象。所有重写的虚拟函数都在 numeric_vector.h 中有文档说明。 ">
<polygon fill="white" stroke="black" points="606,-0.5 606,-19.5 752,-19.5 752,-0.5 606,-0.5"/>
<text text-anchor="middle" x="679" y="-7.5" font-family="Helvetica,sans-Serif" font-size="10.00">libMesh::PetscVector&lt; T &gt;</text>
</a>
</g>
</g>
<!-- Node1&#45;&gt;Node9 -->
<g id="edge8" class="edge">
<title>Node1&#45;&gt;Node9</title>
<path fill="none" stroke="midnightblue" d="M499.33,-70.93C522.22,-58.14 556.91,-40.15 589,-29 599.89,-25.21 611.81,-22.04 623.29,-19.44"/>
<polygon fill="midnightblue" stroke="midnightblue" points="497.68,-67.84 490.71,-75.82 501.14,-73.93 497.68,-67.84"/>
</g>
<!-- Node2 -->
<g id="node2" class="node">
<title>Node2</title>
<g id="a_node2"><a xlink:href="classlibMesh_1_1ReferenceCountedObject.html" target="_top" xlink:title="libMesh::ReferenceCounted\lObject\&lt; NumericVector\&lt; T \&gt; \&gt;">
<polygon fill="white" stroke="black" points="185,-93 185,-123 356,-123 356,-93 185,-93"/>
<text text-anchor="start" x="193" y="-111" font-family="Helvetica,sans-Serif" font-size="10.00">libMesh::ReferenceCounted</text>
<text text-anchor="middle" x="270.5" y="-100" font-family="Helvetica,sans-Serif" font-size="10.00">Object&lt; NumericVector&lt; T &gt; &gt;</text>
</a>
</g>
</g>
<!-- Node2&#45;&gt;Node1 -->
<g id="edge1" class="edge">
<title>Node2&#45;&gt;Node1</title>
<path fill="none" stroke="midnightblue" d="M367.12,-97.48C375.5,-96.56 383.92,-95.63 392.14,-94.73"/>
<polygon fill="midnightblue" stroke="midnightblue" points="366.8,-94 357.24,-98.57 367.57,-100.95 366.8,-94"/>
</g>
<!-- Node3 -->
<g id="node3" class="node">
<title>Node3</title>
<g id="a_node3"><a xlink:href="classlibMesh_1_1ReferenceCounter.html" target="_top" xlink:title="This is the base class for enabling reference counting. ">
<polygon fill="white" stroke="black" points="0,-98.5 0,-117.5 149,-117.5 149,-98.5 0,-98.5"/>
<text text-anchor="middle" x="74.5" y="-105.5" font-family="Helvetica,sans-Serif" font-size="10.00">libMesh::ReferenceCounter</text>
</a>
</g>
</g>
<!-- Node3&#45;&gt;Node2 -->
<g id="edge2" class="edge">
<title>Node3&#45;&gt;Node2</title>
<path fill="none" stroke="midnightblue" d="M160.13,-108C168.49,-108 176.97,-108 185.31,-108"/>
<polygon fill="midnightblue" stroke="midnightblue" points="160.36,-104.5 150.36,-108 160.36,-111.5 160.36,-104.5"/>
</g>
<!-- Node4 -->
<g id="node4" class="node">
<title>Node4</title>
<polygon fill="white" stroke="#bfbfbf" points="228.5,-54.5 228.5,-73.5 312.5,-73.5 312.5,-54.5 228.5,-54.5"/>
<text text-anchor="middle" x="270.5" y="-61.5" font-family="Helvetica,sans-Serif" font-size="10.00">ParallelObject</text>
</g>
<!-- Node4&#45;&gt;Node1 -->
<g id="edge3" class="edge">
<title>Node4&#45;&gt;Node1</title>
<path fill="none" stroke="midnightblue" d="M323.66,-69.74C344.58,-72.04 369.14,-74.74 392.17,-77.27"/>
<polygon fill="midnightblue" stroke="midnightblue" points="324.28,-66.29 313.96,-68.67 323.52,-73.24 324.28,-66.29"/>
</g>
</g>
</svg>
