<?xml version="1.0" encoding="UTF-8" standalone="no"?>
<!DOCTYPE svg PUBLIC "-//W3C//DTD SVG 1.1//EN"
 "http://www.w3.org/Graphics/SVG/1.1/DTD/svg11.dtd">
<!-- Generated by graphviz version 7.0.5 (20221231.0122)
 -->
<!-- Title: libMesh::NodeConstraints Pages: 1 -->
<svg width="394pt" height="94pt"
 viewBox="0.00 0.00 394.00 94.00" xmlns="http://www.w3.org/2000/svg" xmlns:xlink="http://www.w3.org/1999/xlink">
<g id="graph0" class="graph" transform="scale(1 1) rotate(0) translate(4 90)">
<title>libMesh::NodeConstraints</title>
<polygon fill="white" stroke="none" points="-4,4 -4,-90 390,-90 390,4 -4,4"/>
<!-- Node1 -->
<g id="node1" class="node">
<title>Node1</title>
<polygon fill="#bfbfbf" stroke="black" points="244,-33.5 244,-52.5 386,-52.5 386,-33.5 244,-33.5"/>
<text text-anchor="middle" x="315" y="-40.5" font-family="Helvetica,sans-Serif" font-size="10.00">libMesh::NodeConstraints</text>
</g>
<!-- Node2 -->
<g id="node2" class="node">
<title>Node2</title>
<polygon fill="white" stroke="#bfbfbf" points="0,-0.5 0,-85.5 208,-85.5 208,-0.5 0,-0.5"/>
<text text-anchor="start" x="8" y="-73.5" font-family="Helvetica,sans-Serif" font-size="10.00">std::map&lt; const Node</text>
<text text-anchor="start" x="8" y="-62.5" font-family="Helvetica,sans-Serif" font-size="10.00"> *, std::pair&lt; NodeConstraint</text>
<text text-anchor="start" x="8" y="-51.5" font-family="Helvetica,sans-Serif" font-size="10.00">Row, Point &gt;, std::less&lt; const</text>
<text text-anchor="start" x="8" y="-40.5" font-family="Helvetica,sans-Serif" font-size="10.00"> Node * &gt;, Threads::scalable</text>
<text text-anchor="start" x="8" y="-29.5" font-family="Helvetica,sans-Serif" font-size="10.00">_allocator&lt; std::pair&lt; const Node</text>
<text text-anchor="start" x="8" y="-18.5" font-family="Helvetica,sans-Serif" font-size="10.00"> *const, std::pair&lt; NodeConstraintRow,</text>
<text text-anchor="middle" x="104" y="-7.5" font-family="Helvetica,sans-Serif" font-size="10.00"> Point &gt; &gt; &gt; &gt;</text>
</g>
<!-- Node2&#45;&gt;Node1 -->
<g id="edge1" class="edge">
<title>Node2&#45;&gt;Node1</title>
<path fill="none" stroke="midnightblue" d="M219.45,-43C227.85,-43 236.16,-43 244.16,-43"/>
<polygon fill="midnightblue" stroke="midnightblue" points="219.48,-39.5 209.48,-43 219.48,-46.5 219.48,-39.5"/>
</g>
</g>
</svg>
