<?xml version="1.0" encoding="UTF-8" standalone="no"?>
<!DOCTYPE svg PUBLIC "-//W3C//DTD SVG 1.1//EN"
 "http://www.w3.org/Graphics/SVG/1.1/DTD/svg11.dtd">
<!-- Generated by graphviz version 7.0.5 (20221231.0122)
 -->
<!-- Title: libMesh::SparseMatrix&lt; T &gt; Pages: 1 -->
<svg width="774pt" height="180pt"
 viewBox="0.00 0.00 774.00 180.00" xmlns="http://www.w3.org/2000/svg" xmlns:xlink="http://www.w3.org/1999/xlink">
<g id="graph0" class="graph" transform="scale(1 1) rotate(0) translate(4 176)">
<title>libMesh::SparseMatrix&lt; T &gt;</title>
<polygon fill="white" stroke="none" points="-4,4 -4,-176 770,-176 770,4 -4,4"/>
<!-- Node1 -->
<g id="node1" class="node">
<title>Node1</title>
<polygon fill="#bfbfbf" stroke="black" points="174,-76.5 174,-95.5 328,-95.5 328,-76.5 174,-76.5"/>
<text text-anchor="middle" x="251" y="-83.5" font-family="Helvetica,sans-Serif" font-size="10.00">libMesh::SparseMatrix&lt; T &gt;</text>
</g>
<!-- Node4 -->
<g id="node4" class="node">
<title>Node4</title>
<g id="a_node4"><a xlink:href="classlibMesh_1_1DiagonalMatrix.html" target="_top" xlink:title="对角矩阵类，其底层存储是一个向量 ">
<polygon fill="white" stroke="black" points="372.5,-152.5 372.5,-171.5 536.5,-171.5 536.5,-152.5 372.5,-152.5"/>
<text text-anchor="middle" x="454.5" y="-159.5" font-family="Helvetica,sans-Serif" font-size="10.00">libMesh::DiagonalMatrix&lt; T &gt;</text>
</a>
</g>
</g>
<!-- Node1&#45;&gt;Node4 -->
<g id="edge3" class="edge">
<title>Node1&#45;&gt;Node4</title>
<path fill="none" stroke="midnightblue" d="M277.28,-101.29C299.44,-114.1 332.89,-132 364,-143 374.78,-146.81 386.58,-149.99 397.97,-152.57"/>
<polygon fill="midnightblue" stroke="midnightblue" points="279.07,-98.28 268.68,-96.24 275.52,-104.32 279.07,-98.28"/>
</g>
<!-- Node6 -->
<g id="node6" class="node">
<title>Node6</title>
<g id="a_node6"><a xlink:href="classlibMesh_1_1EigenSparseMatrix.html" target="_top" xlink:title="EigenSparseMatrix 类包装了来自 Eigen 库的稀疏矩阵对象。 ">
<polygon fill="white" stroke="black" points="364,-114.5 364,-133.5 545,-133.5 545,-114.5 364,-114.5"/>
<text text-anchor="middle" x="454.5" y="-121.5" font-family="Helvetica,sans-Serif" font-size="10.00">libMesh::EigenSparseMatrix&lt; T &gt;</text>
</a>
</g>
</g>
<!-- Node1&#45;&gt;Node6 -->
<g id="edge5" class="edge">
<title>Node1&#45;&gt;Node6</title>
<path fill="none" stroke="midnightblue" d="M313.51,-97.6C342.34,-103.04 376.24,-109.43 403.47,-114.56"/>
<polygon fill="midnightblue" stroke="midnightblue" points="314.29,-94.19 303.81,-95.77 312.99,-101.06 314.29,-94.19"/>
</g>
<!-- Node7 -->
<g id="node7" class="node">
<title>Node7</title>
<g id="a_node7"><a xlink:href="classlibMesh_1_1EpetraMatrix.html" target="_top" xlink:title="此类提供了对Epetra数据结构的并行、稀疏矩阵的友好接口。所有重写的虚拟函数在sparse_matrix.h中都有文档。 ">
<polygon fill="white" stroke="black" points="378.5,-76.5 378.5,-95.5 530.5,-95.5 530.5,-76.5 378.5,-76.5"/>
<text text-anchor="middle" x="454.5" y="-83.5" font-family="Helvetica,sans-Serif" font-size="10.00">libMesh::EpetraMatrix&lt; T &gt;</text>
</a>
</g>
</g>
<!-- Node1&#45;&gt;Node7 -->
<g id="edge6" class="edge">
<title>Node1&#45;&gt;Node7</title>
<path fill="none" stroke="midnightblue" d="M339.31,-86C352.43,-86 365.86,-86 378.68,-86"/>
<polygon fill="midnightblue" stroke="midnightblue" points="339.4,-82.5 329.4,-86 339.4,-89.5 339.4,-82.5"/>
</g>
<!-- Node8 -->
<g id="node8" class="node">
<title>Node8</title>
<g id="a_node8"><a xlink:href="classlibMesh_1_1LaspackMatrix.html" target="_top" xlink:title="LaspackMatrix类封装了Laspack库中的QMatrix对象。 目前，Laspack仅支持实数数据类型，因此这个类是对 SparseMatrix&lt;T&gt; 的全特化，其中 T = Real。 所...">
<polygon fill="white" stroke="black" points="374,-38.5 374,-57.5 535,-57.5 535,-38.5 374,-38.5"/>
<text text-anchor="middle" x="454.5" y="-45.5" font-family="Helvetica,sans-Serif" font-size="10.00">libMesh::LaspackMatrix&lt; T &gt;</text>
</a>
</g>
</g>
<!-- Node1&#45;&gt;Node8 -->
<g id="edge7" class="edge">
<title>Node1&#45;&gt;Node8</title>
<path fill="none" stroke="midnightblue" d="M313.51,-74.4C342.34,-68.96 376.24,-62.57 403.47,-57.44"/>
<polygon fill="midnightblue" stroke="midnightblue" points="312.99,-70.94 303.81,-76.23 314.29,-77.81 312.99,-70.94"/>
</g>
<!-- Node9 -->
<g id="node9" class="node">
<title>Node9</title>
<g id="a_node9"><a xlink:href="classlibMesh_1_1PetscMatrix.html" target="_top" xlink:title="这个类提供了一个方便的接口，用于操作并行稀疏矩阵的 PETSc C 库数据结构。 所有覆盖的虚拟函数都在 sparse_matrix.h 中有详细的文档说明。 ">
<polygon fill="white" stroke="black" points="381,-0.5 381,-19.5 528,-19.5 528,-0.5 381,-0.5"/>
<text text-anchor="middle" x="454.5" y="-7.5" font-family="Helvetica,sans-Serif" font-size="10.00">libMesh::PetscMatrix&lt; T &gt;</text>
</a>
</g>
</g>
<!-- Node1&#45;&gt;Node9 -->
<g id="edge8" class="edge">
<title>Node1&#45;&gt;Node9</title>
<path fill="none" stroke="midnightblue" d="M277.28,-70.71C299.44,-57.9 332.89,-40 364,-29 374.78,-25.19 386.58,-22.01 397.97,-19.43"/>
<polygon fill="midnightblue" stroke="midnightblue" points="275.52,-67.68 268.68,-75.76 279.07,-73.72 275.52,-67.68"/>
</g>
<!-- Node2 -->
<g id="node2" class="node">
<title>Node2</title>
<polygon fill="white" stroke="#bfbfbf" points="0,-93 0,-123 138,-123 138,-93 0,-93"/>
<text text-anchor="start" x="8" y="-111" font-family="Helvetica,sans-Serif" font-size="10.00">ReferenceCountedObject</text>
<text text-anchor="middle" x="69" y="-100" font-family="Helvetica,sans-Serif" font-size="10.00">&lt; SparseMatrix&lt; T &gt; &gt;</text>
</g>
<!-- Node2&#45;&gt;Node1 -->
<g id="edge1" class="edge">
<title>Node2&#45;&gt;Node1</title>
<path fill="none" stroke="midnightblue" d="M149.05,-98.34C157.37,-97.32 165.83,-96.29 174.12,-95.27"/>
<polygon fill="midnightblue" stroke="midnightblue" points="148.8,-94.84 139.3,-99.53 149.65,-101.79 148.8,-94.84"/>
</g>
<!-- Node3 -->
<g id="node3" class="node">
<title>Node3</title>
<polygon fill="white" stroke="#bfbfbf" points="27,-54.5 27,-73.5 111,-73.5 111,-54.5 27,-54.5"/>
<text text-anchor="middle" x="69" y="-61.5" font-family="Helvetica,sans-Serif" font-size="10.00">ParallelObject</text>
</g>
<!-- Node3&#45;&gt;Node1 -->
<g id="edge2" class="edge">
<title>Node3&#45;&gt;Node1</title>
<path fill="none" stroke="midnightblue" d="M121.8,-70.33C138.16,-72.33 156.59,-74.58 174.26,-76.74"/>
<polygon fill="midnightblue" stroke="midnightblue" points="122.7,-66.91 112.35,-69.18 121.85,-73.86 122.7,-66.91"/>
</g>
<!-- Node5 -->
<g id="node5" class="node">
<title>Node5</title>
<g id="a_node5"><a xlink:href="classlibMesh_1_1LumpedMassMatrix.html" target="_top" xlink:title="模板类用于构造集中质量矩阵。 可能还有用于计算与整体系统缩放相关的数量。每当在此类上调用 add 方法时，我们都会将提供的值的绝对值相加到行索引 i 中。 ">
<polygon fill="white" stroke="black" points="581,-152.5 581,-171.5 766,-171.5 766,-152.5 581,-152.5"/>
<text text-anchor="middle" x="673.5" y="-159.5" font-family="Helvetica,sans-Serif" font-size="10.00">libMesh::LumpedMassMatrix&lt; T &gt;</text>
</a>
</g>
</g>
<!-- Node4&#45;&gt;Node5 -->
<g id="edge4" class="edge">
<title>Node4&#45;&gt;Node5</title>
<path fill="none" stroke="midnightblue" d="M547.7,-162C558.74,-162 570.01,-162 581.04,-162"/>
<polygon fill="midnightblue" stroke="midnightblue" points="547.82,-158.5 537.82,-162 547.82,-165.5 547.82,-158.5"/>
</g>
</g>
</svg>
