<?xml version="1.0" encoding="UTF-8" standalone="no"?>
<!DOCTYPE svg PUBLIC "-//W3C//DTD SVG 1.1//EN"
 "http://www.w3.org/Graphics/SVG/1.1/DTD/svg11.dtd">
<!-- Generated by graphviz version 7.0.5 (20221231.0122)
 -->
<!-- Title: libMesh::EigenPreconditioner&lt; T &gt; Pages: 1 -->
<svg width="280pt" height="207pt"
 viewBox="0.00 0.00 280.00 207.00" xmlns="http://www.w3.org/2000/svg" xmlns:xlink="http://www.w3.org/1999/xlink">
<g id="graph0" class="graph" transform="scale(1 1) rotate(0) translate(4 203)">
<title>libMesh::EigenPreconditioner&lt; T &gt;</title>
<polygon fill="white" stroke="none" points="-4,4 -4,-203 276,-203 276,4 -4,4"/>
<!-- Node1 -->
<g id="node1" class="node">
<title>Node1</title>
<polygon fill="#bfbfbf" stroke="black" points="63.5,-0.5 63.5,-19.5 250.5,-19.5 250.5,-0.5 63.5,-0.5"/>
<text text-anchor="middle" x="157" y="-7.5" font-family="Helvetica,sans-Serif" font-size="10.00">libMesh::EigenPreconditioner&lt; T &gt;</text>
</g>
<!-- Node2 -->
<g id="node2" class="node">
<title>Node2</title>
<g id="a_node2"><a xlink:href="classlibMesh_1_1Preconditioner.html" target="_top" xlink:title="该类提供了一个统一的接口，用于预处理器。此基类可继承，以包装来自不同软件包（如 PETSc 或 Trilinos）的预处理器。 ">
<polygon fill="white" stroke="black" points="77,-56.5 77,-75.5 237,-75.5 237,-56.5 77,-56.5"/>
<text text-anchor="middle" x="157" y="-63.5" font-family="Helvetica,sans-Serif" font-size="10.00">libMesh::Preconditioner&lt; T &gt;</text>
</a>
</g>
</g>
<!-- Node2&#45;&gt;Node1 -->
<g id="edge1" class="edge">
<title>Node2&#45;&gt;Node1</title>
<path fill="none" stroke="midnightblue" d="M157,-45.1C157,-36.14 157,-26.06 157,-19.2"/>
<polygon fill="midnightblue" stroke="midnightblue" points="153.5,-45.05 157,-55.05 160.5,-45.05 153.5,-45.05"/>
</g>
<!-- Node3 -->
<g id="node3" class="node">
<title>Node3</title>
<g id="a_node3"><a xlink:href="classlibMesh_1_1ReferenceCountedObject.html" target="_top" xlink:title="libMesh::ReferenceCounted\lObject\&lt; Preconditioner\&lt; T \&gt; \&gt;">
<polygon fill="white" stroke="black" points="0,-112.5 0,-142.5 170,-142.5 170,-112.5 0,-112.5"/>
<text text-anchor="start" x="8" y="-130.5" font-family="Helvetica,sans-Serif" font-size="10.00">libMesh::ReferenceCounted</text>
<text text-anchor="middle" x="85" y="-119.5" font-family="Helvetica,sans-Serif" font-size="10.00">Object&lt; Preconditioner&lt; T &gt; &gt;</text>
</a>
</g>
</g>
<!-- Node3&#45;&gt;Node2 -->
<g id="edge2" class="edge">
<title>Node3&#45;&gt;Node2</title>
<path fill="none" stroke="midnightblue" d="M110.41,-105.5C122.96,-95.13 137.4,-83.2 146.84,-75.4"/>
<polygon fill="midnightblue" stroke="midnightblue" points="108.34,-102.67 102.87,-111.74 112.8,-108.06 108.34,-102.67"/>
</g>
<!-- Node4 -->
<g id="node4" class="node">
<title>Node4</title>
<g id="a_node4"><a xlink:href="classlibMesh_1_1ReferenceCounter.html" target="_top" xlink:title="This is the base class for enabling reference counting. ">
<polygon fill="white" stroke="black" points="10.5,-179.5 10.5,-198.5 159.5,-198.5 159.5,-179.5 10.5,-179.5"/>
<text text-anchor="middle" x="85" y="-186.5" font-family="Helvetica,sans-Serif" font-size="10.00">libMesh::ReferenceCounter</text>
</a>
</g>
</g>
<!-- Node4&#45;&gt;Node3 -->
<g id="edge3" class="edge">
<title>Node4&#45;&gt;Node3</title>
<path fill="none" stroke="midnightblue" d="M85,-168.46C85,-159.86 85,-149.98 85,-142.19"/>
<polygon fill="midnightblue" stroke="midnightblue" points="81.5,-168.21 85,-178.21 88.5,-168.21 81.5,-168.21"/>
</g>
<!-- Node5 -->
<g id="node5" class="node">
<title>Node5</title>
<polygon fill="white" stroke="#bfbfbf" points="188,-118 188,-137 272,-137 272,-118 188,-118"/>
<text text-anchor="middle" x="230" y="-125" font-family="Helvetica,sans-Serif" font-size="10.00">ParallelObject</text>
</g>
<!-- Node5&#45;&gt;Node2 -->
<g id="edge4" class="edge">
<title>Node5&#45;&gt;Node2</title>
<path fill="none" stroke="midnightblue" d="M210.99,-111.01C196.94,-99.55 178.36,-84.41 167.06,-75.2"/>
<polygon fill="midnightblue" stroke="midnightblue" points="208.71,-113.67 218.68,-117.27 213.14,-108.24 208.71,-113.67"/>
</g>
</g>
</svg>
