<?xml version="1.0" encoding="UTF-8" standalone="no"?>
<!DOCTYPE svg PUBLIC "-//W3C//DTD SVG 1.1//EN"
 "http://www.w3.org/Graphics/SVG/1.1/DTD/svg11.dtd">
<!-- Generated by graphviz version 7.0.5 (20221231.0122)
 -->
<!-- Title: libMesh::DenseMatrixBase&lt; T &gt; Pages: 1 -->
<svg width="348pt" height="84pt"
 viewBox="0.00 0.00 348.00 84.00" xmlns="http://www.w3.org/2000/svg" xmlns:xlink="http://www.w3.org/1999/xlink">
<g id="graph0" class="graph" transform="scale(1 1) rotate(0) translate(4 80)">
<title>libMesh::DenseMatrixBase&lt; T &gt;</title>
<polygon fill="white" stroke="none" points="-4,4 -4,-80 344,-80 344,4 -4,4"/>
<!-- Node1 -->
<g id="node1" class="node">
<title>Node1</title>
<polygon fill="#bfbfbf" stroke="black" points="77,-56.5 77,-75.5 253,-75.5 253,-56.5 77,-56.5"/>
<text text-anchor="middle" x="165" y="-63.5" font-family="Helvetica,sans-Serif" font-size="10.00">libMesh::DenseMatrixBase&lt; T &gt;</text>
</g>
<!-- Node2 -->
<g id="node2" class="node">
<title>Node2</title>
<g id="a_node2"><a xlink:href="classlibMesh_1_1DenseMatrix.html" target="_top" xlink:title="定义用于有限元类型计算的密集矩阵。 用于在求和成全局矩阵之前存储单元刚度矩阵。所有被覆盖的虚函数都记录在dense_matrix_base.h中。 ">
<polygon fill="white" stroke="black" points="0,-0.5 0,-19.5 152,-19.5 152,-0.5 0,-0.5"/>
<text text-anchor="middle" x="76" y="-7.5" font-family="Helvetica,sans-Serif" font-size="10.00">libMesh::DenseMatrix&lt; T &gt;</text>
</a>
</g>
</g>
<!-- Node1&#45;&gt;Node2 -->
<g id="edge1" class="edge">
<title>Node1&#45;&gt;Node2</title>
<path fill="none" stroke="midnightblue" d="M141.6,-50.8C125.12,-40.8 103.62,-27.76 89.81,-19.38"/>
<polygon fill="midnightblue" stroke="midnightblue" points="139.43,-53.58 149.8,-55.78 143.07,-47.6 139.43,-53.58"/>
</g>
<!-- Node3 -->
<g id="node3" class="node">
<title>Node3</title>
<g id="a_node3"><a xlink:href="classlibMesh_1_1DenseSubMatrix.html" target="_top" xlink:title="为有限元类型的计算定义密集子矩阵。 在将元素刚度矩阵相加到全局矩阵之前存储非常有用，特别是在存在方程组时。 所有重写的虚拟函数在 dense_matrix_base.h 中有文档。 ">
<polygon fill="white" stroke="black" points="170,-0.5 170,-19.5 340,-19.5 340,-0.5 170,-0.5"/>
<text text-anchor="middle" x="255" y="-7.5" font-family="Helvetica,sans-Serif" font-size="10.00">libMesh::DenseSubMatrix&lt; T &gt;</text>
</a>
</g>
</g>
<!-- Node1&#45;&gt;Node3 -->
<g id="edge2" class="edge">
<title>Node1&#45;&gt;Node3</title>
<path fill="none" stroke="midnightblue" d="M188.67,-50.8C205.33,-40.8 227.07,-27.76 241.04,-19.38"/>
<polygon fill="midnightblue" stroke="midnightblue" points="187.13,-47.64 180.36,-55.78 190.74,-53.64 187.13,-47.64"/>
</g>
</g>
</svg>
