<?xml version="1.0" encoding="UTF-8" standalone="no"?>
<!DOCTYPE svg PUBLIC "-//W3C//DTD SVG 1.1//EN"
 "http://www.w3.org/Graphics/SVG/1.1/DTD/svg11.dtd">
<!-- Generated by graphviz version 7.0.5 (20221231.0122)
 -->
<!-- Title: libMesh::DofMap Pages: 1 -->
<svg width="262pt" height="151pt"
 viewBox="0.00 0.00 261.50 151.00" xmlns="http://www.w3.org/2000/svg" xmlns:xlink="http://www.w3.org/1999/xlink">
<g id="graph0" class="graph" transform="scale(1 1) rotate(0) translate(4 147)">
<title>libMesh::DofMap</title>
<polygon fill="white" stroke="none" points="-4,4 -4,-147 257.5,-147 257.5,4 -4,4"/>
<!-- Node1 -->
<g id="node1" class="node">
<title>Node1</title>
<polygon fill="#bfbfbf" stroke="black" points="94,-0.5 94,-19.5 193,-19.5 193,-0.5 94,-0.5"/>
<text text-anchor="middle" x="143.5" y="-7.5" font-family="Helvetica,sans-Serif" font-size="10.00">libMesh::DofMap</text>
</g>
<!-- Node2 -->
<g id="node2" class="node">
<title>Node2</title>
<g id="a_node2"><a xlink:href="classlibMesh_1_1ReferenceCountedObject.html" target="_top" xlink:title="libMesh::ReferenceCounted\lObject\&lt; DofMap \&gt;">
<polygon fill="white" stroke="black" points="0,-56.5 0,-86.5 151,-86.5 151,-56.5 0,-56.5"/>
<text text-anchor="start" x="8" y="-74.5" font-family="Helvetica,sans-Serif" font-size="10.00">libMesh::ReferenceCounted</text>
<text text-anchor="middle" x="75.5" y="-63.5" font-family="Helvetica,sans-Serif" font-size="10.00">Object&lt; DofMap &gt;</text>
</a>
</g>
</g>
<!-- Node2&#45;&gt;Node1 -->
<g id="edge1" class="edge">
<title>Node2&#45;&gt;Node1</title>
<path fill="none" stroke="midnightblue" d="M99.84,-49.2C111.62,-38.9 125.08,-27.12 133.9,-19.4"/>
<polygon fill="midnightblue" stroke="midnightblue" points="97.63,-46.48 92.41,-55.7 102.24,-51.75 97.63,-46.48"/>
</g>
<!-- Node3 -->
<g id="node3" class="node">
<title>Node3</title>
<g id="a_node3"><a xlink:href="classlibMesh_1_1ReferenceCounter.html" target="_top" xlink:title="This is the base class for enabling reference counting. ">
<polygon fill="white" stroke="black" points="1,-123.5 1,-142.5 150,-142.5 150,-123.5 1,-123.5"/>
<text text-anchor="middle" x="75.5" y="-130.5" font-family="Helvetica,sans-Serif" font-size="10.00">libMesh::ReferenceCounter</text>
</a>
</g>
</g>
<!-- Node3&#45;&gt;Node2 -->
<g id="edge2" class="edge">
<title>Node3&#45;&gt;Node2</title>
<path fill="none" stroke="midnightblue" d="M75.5,-112.46C75.5,-103.86 75.5,-93.98 75.5,-86.19"/>
<polygon fill="midnightblue" stroke="midnightblue" points="72,-112.21 75.5,-122.21 79,-112.21 72,-112.21"/>
</g>
<!-- Node4 -->
<g id="node4" class="node">
<title>Node4</title>
<polygon fill="white" stroke="#bfbfbf" points="169.5,-62 169.5,-81 253.5,-81 253.5,-62 169.5,-62"/>
<text text-anchor="middle" x="211.5" y="-69" font-family="Helvetica,sans-Serif" font-size="10.00">ParallelObject</text>
</g>
<!-- Node4&#45;&gt;Node1 -->
<g id="edge3" class="edge">
<title>Node4&#45;&gt;Node1</title>
<path fill="none" stroke="midnightblue" d="M193.41,-54.67C180.37,-43.26 163.29,-28.32 152.87,-19.2"/>
<polygon fill="midnightblue" stroke="midnightblue" points="191.08,-57.28 200.91,-61.23 195.68,-52.01 191.08,-57.28"/>
</g>
</g>
</svg>
