<?xml version="1.0" encoding="UTF-8" standalone="no"?>
<!DOCTYPE svg PUBLIC "-//W3C//DTD SVG 1.1//EN"
 "http://www.w3.org/Graphics/SVG/1.1/DTD/svg11.dtd">
<!-- Generated by graphviz version 7.0.5 (20221231.0122)
 -->
<!-- Title: libMesh::ParsedFunction&lt; Output, OutputGradient &gt; Pages: 1 -->
<svg width="161pt" height="106pt"
 viewBox="0.00 0.00 161.00 106.00" xmlns="http://www.w3.org/2000/svg" xmlns:xlink="http://www.w3.org/1999/xlink">
<g id="graph0" class="graph" transform="scale(1 1) rotate(0) translate(4 102)">
<title>libMesh::ParsedFunction&lt; Output, OutputGradient &gt;</title>
<polygon fill="white" stroke="none" points="-4,4 -4,-102 157,-102 157,4 -4,4"/>
<!-- Node1 -->
<g id="node1" class="node">
<title>Node1</title>
<polygon fill="#bfbfbf" stroke="black" points="0,-0.5 0,-30.5 153,-30.5 153,-0.5 0,-0.5"/>
<text text-anchor="start" x="8" y="-18.5" font-family="Helvetica,sans-Serif" font-size="10.00">libMesh::ParsedFunction</text>
<text text-anchor="middle" x="76.5" y="-7.5" font-family="Helvetica,sans-Serif" font-size="10.00">&lt; Output, OutputGradient &gt;</text>
</g>
<!-- Node2 -->
<g id="node2" class="node">
<title>Node2</title>
<g id="a_node2"><a xlink:href="classlibMesh_1_1FunctionBase.html" target="_top" xlink:title="FunctionBase是一个函数对象的基类，可以在某一点（可选地包括时间）进行评估。 ">
<polygon fill="white" stroke="black" points="13.5,-67.5 13.5,-97.5 139.5,-97.5 139.5,-67.5 13.5,-67.5"/>
<text text-anchor="start" x="21.5" y="-85.5" font-family="Helvetica,sans-Serif" font-size="10.00">libMesh::FunctionBase</text>
<text text-anchor="middle" x="76.5" y="-74.5" font-family="Helvetica,sans-Serif" font-size="10.00">&lt; Output &gt;</text>
</a>
</g>
</g>
<!-- Node2&#45;&gt;Node1 -->
<g id="edge1" class="edge">
<title>Node2&#45;&gt;Node1</title>
<path fill="none" stroke="midnightblue" d="M69.91,-56.36C69.52,-47.49 69.84,-37.84 70.87,-30.26"/>
<polygon fill="midnightblue" stroke="midnightblue" points="66.41,-56.54 70.74,-66.21 73.38,-55.95 66.41,-56.54"/>
</g>
<!-- Node2&#45;&gt;Node1 -->
<g id="edge2" class="edge">
<title>Node2&#45;&gt;Node1</title>
<path fill="none" stroke="midnightblue" d="M83.09,-56.36C83.48,-47.49 83.16,-37.84 82.13,-30.26"/>
<polygon fill="midnightblue" stroke="midnightblue" points="79.62,-55.95 82.26,-66.21 86.59,-56.54 79.62,-55.95"/>
</g>
</g>
</svg>
