<?xml version="1.0" encoding="UTF-8" standalone="no"?>
<!DOCTYPE svg PUBLIC "-//W3C//DTD SVG 1.1//EN"
 "http://www.w3.org/Graphics/SVG/1.1/DTD/svg11.dtd">
<!-- Generated by graphviz version 7.0.5 (20221231.0122)
 -->
<!-- Title: libMesh::Preconditioner&lt; T &gt; Pages: 1 -->
<svg width="408pt" height="207pt"
 viewBox="0.00 0.00 407.50 207.00" xmlns="http://www.w3.org/2000/svg" xmlns:xlink="http://www.w3.org/1999/xlink">
<g id="graph0" class="graph" transform="scale(1 1) rotate(0) translate(4 203)">
<title>libMesh::Preconditioner&lt; T &gt;</title>
<polygon fill="white" stroke="none" points="-4,4 -4,-203 403.5,-203 403.5,4 -4,4"/>
<!-- Node1 -->
<g id="node1" class="node">
<title>Node1</title>
<polygon fill="#bfbfbf" stroke="black" points="117.5,-56.5 117.5,-75.5 277.5,-75.5 277.5,-56.5 117.5,-56.5"/>
<text text-anchor="middle" x="197.5" y="-63.5" font-family="Helvetica,sans-Serif" font-size="10.00">libMesh::Preconditioner&lt; T &gt;</text>
</g>
<!-- Node5 -->
<g id="node5" class="node">
<title>Node5</title>
<g id="a_node5"><a xlink:href="classlibMesh_1_1EigenPreconditioner.html" target="_top" xlink:title="EigenPreconditioner 类提供了对 Eigen 库中预处理器集合的接口。 ">
<polygon fill="white" stroke="black" points="0,-0.5 0,-19.5 187,-19.5 187,-0.5 0,-0.5"/>
<text text-anchor="middle" x="93.5" y="-7.5" font-family="Helvetica,sans-Serif" font-size="10.00">libMesh::EigenPreconditioner&lt; T &gt;</text>
</a>
</g>
</g>
<!-- Node1&#45;&gt;Node5 -->
<g id="edge4" class="edge">
<title>Node1&#45;&gt;Node5</title>
<path fill="none" stroke="midnightblue" d="M171.24,-51.36C151.85,-41.3 126.08,-27.92 109.64,-19.38"/>
<polygon fill="midnightblue" stroke="midnightblue" points="169.42,-54.36 179.91,-55.87 172.64,-48.15 169.42,-54.36"/>
</g>
<!-- Node6 -->
<g id="node6" class="node">
<title>Node6</title>
<g id="a_node6"><a xlink:href="classlibMesh_1_1TrilinosPreconditioner.html" target="_top" xlink:title="这个类提供了一个接口，用于使用Trilinos提供的预条件器套件。 所有重写的虚拟函数在preconditioner.h中有文档说明。 ">
<polygon fill="white" stroke="black" points="205.5,-0.5 205.5,-19.5 399.5,-19.5 399.5,-0.5 205.5,-0.5"/>
<text text-anchor="middle" x="302.5" y="-7.5" font-family="Helvetica,sans-Serif" font-size="10.00">libMesh::TrilinosPreconditioner&lt; T &gt;</text>
</a>
</g>
</g>
<!-- Node1&#45;&gt;Node6 -->
<g id="edge5" class="edge">
<title>Node1&#45;&gt;Node6</title>
<path fill="none" stroke="midnightblue" d="M224.02,-51.36C243.59,-41.3 269.61,-27.92 286.21,-19.38"/>
<polygon fill="midnightblue" stroke="midnightblue" points="222.54,-48.18 215.25,-55.87 225.75,-54.41 222.54,-48.18"/>
</g>
<!-- Node2 -->
<g id="node2" class="node">
<title>Node2</title>
<g id="a_node2"><a xlink:href="classlibMesh_1_1ReferenceCountedObject.html" target="_top" xlink:title="libMesh::ReferenceCounted\lObject\&lt; Preconditioner\&lt; T \&gt; \&gt;">
<polygon fill="white" stroke="black" points="40.5,-112.5 40.5,-142.5 210.5,-142.5 210.5,-112.5 40.5,-112.5"/>
<text text-anchor="start" x="48.5" y="-130.5" font-family="Helvetica,sans-Serif" font-size="10.00">libMesh::ReferenceCounted</text>
<text text-anchor="middle" x="125.5" y="-119.5" font-family="Helvetica,sans-Serif" font-size="10.00">Object&lt; Preconditioner&lt; T &gt; &gt;</text>
</a>
</g>
</g>
<!-- Node2&#45;&gt;Node1 -->
<g id="edge1" class="edge">
<title>Node2&#45;&gt;Node1</title>
<path fill="none" stroke="midnightblue" d="M150.91,-105.5C163.46,-95.13 177.9,-83.2 187.34,-75.4"/>
<polygon fill="midnightblue" stroke="midnightblue" points="148.84,-102.67 143.37,-111.74 153.3,-108.06 148.84,-102.67"/>
</g>
<!-- Node3 -->
<g id="node3" class="node">
<title>Node3</title>
<g id="a_node3"><a xlink:href="classlibMesh_1_1ReferenceCounter.html" target="_top" xlink:title="This is the base class for enabling reference counting. ">
<polygon fill="white" stroke="black" points="51,-179.5 51,-198.5 200,-198.5 200,-179.5 51,-179.5"/>
<text text-anchor="middle" x="125.5" y="-186.5" font-family="Helvetica,sans-Serif" font-size="10.00">libMesh::ReferenceCounter</text>
</a>
</g>
</g>
<!-- Node3&#45;&gt;Node2 -->
<g id="edge2" class="edge">
<title>Node3&#45;&gt;Node2</title>
<path fill="none" stroke="midnightblue" d="M125.5,-168.46C125.5,-159.86 125.5,-149.98 125.5,-142.19"/>
<polygon fill="midnightblue" stroke="midnightblue" points="122,-168.21 125.5,-178.21 129,-168.21 122,-168.21"/>
</g>
<!-- Node4 -->
<g id="node4" class="node">
<title>Node4</title>
<polygon fill="white" stroke="#bfbfbf" points="228.5,-118 228.5,-137 312.5,-137 312.5,-118 228.5,-118"/>
<text text-anchor="middle" x="270.5" y="-125" font-family="Helvetica,sans-Serif" font-size="10.00">ParallelObject</text>
</g>
<!-- Node4&#45;&gt;Node1 -->
<g id="edge3" class="edge">
<title>Node4&#45;&gt;Node1</title>
<path fill="none" stroke="midnightblue" d="M251.49,-111.01C237.44,-99.55 218.86,-84.41 207.56,-75.2"/>
<polygon fill="midnightblue" stroke="midnightblue" points="249.21,-113.67 259.18,-117.27 253.64,-108.24 249.21,-113.67"/>
</g>
</g>
</svg>
