<?xml version="1.0" encoding="UTF-8" standalone="no"?>
<!DOCTYPE svg PUBLIC "-//W3C//DTD SVG 1.1//EN"
 "http://www.w3.org/Graphics/SVG/1.1/DTD/svg11.dtd">
<!-- Generated by graphviz version 7.0.5 (20221231.0122)
 -->
<!-- Title: libMesh::LumpedMassMatrix&lt; T &gt; Pages: 1 -->
<svg width="248pt" height="207pt"
 viewBox="0.00 0.00 248.00 207.00" xmlns="http://www.w3.org/2000/svg" xmlns:xlink="http://www.w3.org/1999/xlink">
<g id="graph0" class="graph" transform="scale(1 1) rotate(0) translate(4 203)">
<title>libMesh::LumpedMassMatrix&lt; T &gt;</title>
<polygon fill="white" stroke="none" points="-4,4 -4,-203 244,-203 244,4 -4,4"/>
<!-- Node1 -->
<g id="node1" class="node">
<title>Node1</title>
<polygon fill="#bfbfbf" stroke="black" points="40.5,-0.5 40.5,-19.5 225.5,-19.5 225.5,-0.5 40.5,-0.5"/>
<text text-anchor="middle" x="133" y="-7.5" font-family="Helvetica,sans-Serif" font-size="10.00">libMesh::LumpedMassMatrix&lt; T &gt;</text>
</g>
<!-- Node2 -->
<g id="node2" class="node">
<title>Node2</title>
<g id="a_node2"><a xlink:href="classlibMesh_1_1DiagonalMatrix.html" target="_top" xlink:title="对角矩阵类，其底层存储是一个向量 ">
<polygon fill="white" stroke="black" points="51,-56.5 51,-75.5 215,-75.5 215,-56.5 51,-56.5"/>
<text text-anchor="middle" x="133" y="-63.5" font-family="Helvetica,sans-Serif" font-size="10.00">libMesh::DiagonalMatrix&lt; T &gt;</text>
</a>
</g>
</g>
<!-- Node2&#45;&gt;Node1 -->
<g id="edge1" class="edge">
<title>Node2&#45;&gt;Node1</title>
<path fill="none" stroke="midnightblue" d="M133,-45.1C133,-36.14 133,-26.06 133,-19.2"/>
<polygon fill="midnightblue" stroke="midnightblue" points="129.5,-45.05 133,-55.05 136.5,-45.05 129.5,-45.05"/>
</g>
<!-- Node3 -->
<g id="node3" class="node">
<title>Node3</title>
<g id="a_node3"><a xlink:href="classlibMesh_1_1SparseMatrix.html" target="_top" xlink:title="这是一个通用的稀疏矩阵类。该类包含了必须在派生类中覆盖的纯虚拟成员。 使用一个公共的基类允许从不同的求解器包中以不同的格式统一访问稀疏矩阵。 ">
<polygon fill="white" stroke="black" points="56,-112.5 56,-131.5 210,-131.5 210,-112.5 56,-112.5"/>
<text text-anchor="middle" x="133" y="-119.5" font-family="Helvetica,sans-Serif" font-size="10.00">libMesh::SparseMatrix&lt; T &gt;</text>
</a>
</g>
</g>
<!-- Node3&#45;&gt;Node2 -->
<g id="edge2" class="edge">
<title>Node3&#45;&gt;Node2</title>
<path fill="none" stroke="midnightblue" d="M133,-101.1C133,-92.14 133,-82.06 133,-75.2"/>
<polygon fill="midnightblue" stroke="midnightblue" points="129.5,-101.05 133,-111.05 136.5,-101.05 129.5,-101.05"/>
</g>
<!-- Node4 -->
<g id="node4" class="node">
<title>Node4</title>
<polygon fill="white" stroke="#bfbfbf" points="0,-168.5 0,-198.5 138,-198.5 138,-168.5 0,-168.5"/>
<text text-anchor="start" x="8" y="-186.5" font-family="Helvetica,sans-Serif" font-size="10.00">ReferenceCountedObject</text>
<text text-anchor="middle" x="69" y="-175.5" font-family="Helvetica,sans-Serif" font-size="10.00">&lt; SparseMatrix&lt; T &gt; &gt;</text>
</g>
<!-- Node4&#45;&gt;Node3 -->
<g id="edge3" class="edge">
<title>Node4&#45;&gt;Node3</title>
<path fill="none" stroke="midnightblue" d="M92.24,-160.9C103.24,-150.67 115.74,-139.04 123.97,-131.4"/>
<polygon fill="midnightblue" stroke="midnightblue" points="89.89,-158.3 84.95,-167.67 94.66,-163.42 89.89,-158.3"/>
</g>
<!-- Node5 -->
<g id="node5" class="node">
<title>Node5</title>
<polygon fill="white" stroke="#bfbfbf" points="156,-174 156,-193 240,-193 240,-174 156,-174"/>
<text text-anchor="middle" x="198" y="-181" font-family="Helvetica,sans-Serif" font-size="10.00">ParallelObject</text>
</g>
<!-- Node5&#45;&gt;Node3 -->
<g id="edge4" class="edge">
<title>Node5&#45;&gt;Node3</title>
<path fill="none" stroke="midnightblue" d="M180.71,-166.67C168.24,-155.26 151.92,-140.32 141.96,-131.2"/>
<polygon fill="midnightblue" stroke="midnightblue" points="178.11,-169.03 187.85,-173.2 182.83,-163.87 178.11,-169.03"/>
</g>
</g>
</svg>
