<?xml version="1.0" encoding="UTF-8" standalone="no"?>
<!DOCTYPE svg PUBLIC "-//W3C//DTD SVG 1.1//EN"
 "http://www.w3.org/Graphics/SVG/1.1/DTD/svg11.dtd">
<!-- Generated by graphviz version 7.0.5 (20221231.0122)
 -->
<!-- Title: libMesh::NumericVector&lt; typename &gt; Pages: 1 -->
<svg width="250pt" height="106pt"
 viewBox="0.00 0.00 250.00 106.00" xmlns="http://www.w3.org/2000/svg" xmlns:xlink="http://www.w3.org/1999/xlink">
<g id="graph0" class="graph" transform="scale(1 1) rotate(0) translate(4 102)">
<title>libMesh::NumericVector&lt; typename &gt;</title>
<polygon fill="white" stroke="none" points="-4,4 -4,-102 246,-102 246,4 -4,4"/>
<!-- Node1 -->
<g id="node1" class="node">
<title>Node1</title>
<polygon fill="#bfbfbf" stroke="black" points="68.5,-0.5 68.5,-30.5 201.5,-30.5 201.5,-0.5 68.5,-0.5"/>
<text text-anchor="start" x="76.5" y="-18.5" font-family="Helvetica,sans-Serif" font-size="10.00">libMesh::NumericVector</text>
<text text-anchor="middle" x="135" y="-7.5" font-family="Helvetica,sans-Serif" font-size="10.00">&lt; typename &gt;</text>
</g>
<!-- Node2 -->
<g id="node2" class="node">
<title>Node2</title>
<polygon fill="white" stroke="#bfbfbf" points="0,-67.5 0,-97.5 140,-97.5 140,-67.5 0,-67.5"/>
<text text-anchor="start" x="8" y="-85.5" font-family="Helvetica,sans-Serif" font-size="10.00">ReferenceCountedObject</text>
<text text-anchor="middle" x="70" y="-74.5" font-family="Helvetica,sans-Serif" font-size="10.00">&lt; NumericVector&lt; T &gt; &gt;</text>
</g>
<!-- Node2&#45;&gt;Node1 -->
<g id="edge1" class="edge">
<title>Node2&#45;&gt;Node1</title>
<path fill="none" stroke="midnightblue" d="M91.85,-59.65C101.57,-49.93 112.71,-38.79 121.24,-30.26"/>
<polygon fill="midnightblue" stroke="midnightblue" points="89.45,-57.1 84.86,-66.64 94.4,-62.05 89.45,-57.1"/>
</g>
<!-- Node3 -->
<g id="node3" class="node">
<title>Node3</title>
<polygon fill="white" stroke="#bfbfbf" points="158,-73 158,-92 242,-92 242,-73 158,-73"/>
<text text-anchor="middle" x="200" y="-80" font-family="Helvetica,sans-Serif" font-size="10.00">ParallelObject</text>
</g>
<!-- Node3&#45;&gt;Node1 -->
<g id="edge2" class="edge">
<title>Node3&#45;&gt;Node1</title>
<path fill="none" stroke="midnightblue" d="M183.67,-65.17C172.89,-54.39 158.93,-40.43 148.72,-30.22"/>
<polygon fill="midnightblue" stroke="midnightblue" points="180.89,-67.34 190.43,-71.93 185.84,-62.39 180.89,-67.34"/>
</g>
</g>
</svg>
