<?xml version="1.0" encoding="UTF-8" standalone="no"?>
<!DOCTYPE svg PUBLIC "-//W3C//DTD SVG 1.1//EN"
 "http://www.w3.org/Graphics/SVG/1.1/DTD/svg11.dtd">
<!-- Generated by graphviz version 7.0.5 (20221231.0122)
 -->
<!-- Title: libMesh::FEMFunctionBase&lt; Output &gt; Pages: 1 -->
<svg width="367pt" height="225pt"
 viewBox="0.00 0.00 367.00 224.50" xmlns="http://www.w3.org/2000/svg" xmlns:xlink="http://www.w3.org/1999/xlink">
<g id="graph0" class="graph" transform="scale(1 1) rotate(0) translate(4 220.5)">
<title>libMesh::FEMFunctionBase&lt; Output &gt;</title>
<polygon fill="white" stroke="none" points="-4,4 -4,-220.5 363,-220.5 363,4 -4,4"/>
<!-- Node1 -->
<g id="node1" class="node">
<title>Node1</title>
<polygon fill="#bfbfbf" stroke="black" points="0,-88 0,-118 147,-118 147,-88 0,-88"/>
<text text-anchor="start" x="8" y="-106" font-family="Helvetica,sans-Serif" font-size="10.00">libMesh::FEMFunctionBase</text>
<text text-anchor="middle" x="73.5" y="-95" font-family="Helvetica,sans-Serif" font-size="10.00">&lt; Output &gt;</text>
</g>
<!-- Node2 -->
<g id="node2" class="node">
<title>Node2</title>
<g id="a_node2"><a xlink:href="classlibMesh_1_1CompositeFEMFunction.html" target="_top" xlink:title="FEMFunction函数的另一个函数。 ">
<polygon fill="white" stroke="black" points="183,-186 183,-216 359,-216 359,-186 183,-186"/>
<text text-anchor="start" x="191" y="-204" font-family="Helvetica,sans-Serif" font-size="10.00">libMesh::CompositeFEMFunction</text>
<text text-anchor="middle" x="271" y="-193" font-family="Helvetica,sans-Serif" font-size="10.00">&lt; Output &gt;</text>
</a>
</g>
</g>
<!-- Node1&#45;&gt;Node2 -->
<g id="edge1" class="edge">
<title>Node1&#45;&gt;Node2</title>
<path fill="none" stroke="midnightblue" d="M101.17,-124.89C122.25,-141.26 153.04,-163.12 183,-177 190.39,-180.43 198.37,-183.45 206.39,-186.09"/>
<polygon fill="midnightblue" stroke="midnightblue" points="103.4,-122.2 93.38,-118.75 99.06,-127.69 103.4,-122.2"/>
</g>
<!-- Node3 -->
<g id="node3" class="node">
<title>Node3</title>
<g id="a_node3"><a xlink:href="classlibMesh_1_1ConstFEMFunction.html" target="_top" xlink:title="由Roy Stogner创作 2012年 ">
<polygon fill="white" stroke="black" points="195.5,-137 195.5,-167 346.5,-167 346.5,-137 195.5,-137"/>
<text text-anchor="start" x="203.5" y="-155" font-family="Helvetica,sans-Serif" font-size="10.00">libMesh::ConstFEMFunction</text>
<text text-anchor="middle" x="271" y="-144" font-family="Helvetica,sans-Serif" font-size="10.00">&lt; Output &gt;</text>
</a>
</g>
</g>
<!-- Node1&#45;&gt;Node3 -->
<g id="edge2" class="edge">
<title>Node1&#45;&gt;Node3</title>
<path fill="none" stroke="midnightblue" d="M145.19,-120.72C166.54,-126.07 189.75,-131.89 210.31,-137.04"/>
<polygon fill="midnightblue" stroke="midnightblue" points="146.24,-117.37 135.69,-118.34 144.54,-124.16 146.24,-117.37"/>
</g>
<!-- Node4 -->
<g id="node4" class="node">
<title>Node4</title>
<g id="a_node4"><a xlink:href="classlibMesh_1_1ParsedFEMFunction.html" target="_top" xlink:title="ParsedFEMFunction 提供对 FEMSystem 中基于 FParser 的解析函数的支持。 ">
<polygon fill="white" stroke="black" points="193.5,-88 193.5,-118 348.5,-118 348.5,-88 193.5,-88"/>
<text text-anchor="start" x="201.5" y="-106" font-family="Helvetica,sans-Serif" font-size="10.00">libMesh::ParsedFEMFunction</text>
<text text-anchor="middle" x="271" y="-95" font-family="Helvetica,sans-Serif" font-size="10.00">&lt; Output &gt;</text>
</a>
</g>
</g>
<!-- Node1&#45;&gt;Node4 -->
<g id="edge3" class="edge">
<title>Node1&#45;&gt;Node4</title>
<path fill="none" stroke="midnightblue" d="M158.02,-103C169.9,-103 182.06,-103 193.79,-103"/>
<polygon fill="midnightblue" stroke="midnightblue" points="158.26,-99.5 148.26,-103 158.26,-106.5 158.26,-99.5"/>
</g>
<!-- Node5 -->
<g id="node5" class="node">
<title>Node5</title>
<g id="a_node5"><a xlink:href="classlibMesh_1_1WrappedFunctor.html" target="_top" xlink:title="该类提供了一个包装器，用于在FunctionBase&lt;Output&gt;兼容接口中评估(libMesh风格的)函数指针。 ">
<polygon fill="white" stroke="black" points="201,-39 201,-69 341,-69 341,-39 201,-39"/>
<text text-anchor="start" x="209" y="-57" font-family="Helvetica,sans-Serif" font-size="10.00">libMesh::WrappedFunctor</text>
<text text-anchor="middle" x="271" y="-46" font-family="Helvetica,sans-Serif" font-size="10.00">&lt; Output &gt;</text>
</a>
</g>
</g>
<!-- Node1&#45;&gt;Node5 -->
<g id="edge4" class="edge">
<title>Node1&#45;&gt;Node5</title>
<path fill="none" stroke="midnightblue" d="M145.19,-85.28C166.54,-79.93 189.75,-74.11 210.31,-68.96"/>
<polygon fill="midnightblue" stroke="midnightblue" points="144.54,-81.84 135.69,-87.66 146.24,-88.63 144.54,-81.84"/>
</g>
<!-- Node6 -->
<g id="node6" class="node">
<title>Node6</title>
<g id="a_node6"><a xlink:href="classlibMesh_1_1ParsedFEMFunction.html" target="_top" xlink:title="ParsedFEMFunction\&lt; T \&gt;">
<polygon fill="white" stroke="black" points="201,-0.5 201,-19.5 341,-19.5 341,-0.5 201,-0.5"/>
<text text-anchor="middle" x="271" y="-7.5" font-family="Helvetica,sans-Serif" font-size="10.00">ParsedFEMFunction&lt; T &gt;</text>
</a>
</g>
</g>
<!-- Node1&#45;&gt;Node6 -->
<g id="edge5" class="edge">
<title>Node1&#45;&gt;Node6</title>
<path fill="none" stroke="midnightblue" d="M101.05,-81.05C122.08,-64.72 152.83,-43.08 183,-30 192.95,-25.68 203.97,-22.23 214.72,-19.5"/>
<polygon fill="midnightblue" stroke="midnightblue" points="98.96,-78.24 93.3,-87.19 103.31,-83.73 98.96,-78.24"/>
</g>
</g>
</svg>
