<?xml version="1.0" encoding="UTF-8" standalone="no"?>
<!DOCTYPE svg PUBLIC "-//W3C//DTD SVG 1.1//EN"
 "http://www.w3.org/Graphics/SVG/1.1/DTD/svg11.dtd">
<!-- Generated by graphviz version 7.0.5 (20221231.0122)
 -->
<!-- Title: libMesh::SparseMatrix&lt; T &gt; Pages: 1 -->
<svg width="985pt" height="180pt"
 viewBox="0.00 0.00 985.00 180.00" xmlns="http://www.w3.org/2000/svg" xmlns:xlink="http://www.w3.org/1999/xlink">
<g id="graph0" class="graph" transform="scale(1 1) rotate(0) translate(4 176)">
<title>libMesh::SparseMatrix&lt; T &gt;</title>
<polygon fill="white" stroke="none" points="-4,4 -4,-176 981,-176 981,4 -4,4"/>
<!-- Node1 -->
<g id="node1" class="node">
<title>Node1</title>
<polygon fill="#bfbfbf" stroke="black" points="385,-76.5 385,-95.5 539,-95.5 539,-76.5 385,-76.5"/>
<text text-anchor="middle" x="462" y="-83.5" font-family="Helvetica,sans-Serif" font-size="10.00">libMesh::SparseMatrix&lt; T &gt;</text>
</g>
<!-- Node5 -->
<g id="node5" class="node">
<title>Node5</title>
<g id="a_node5"><a xlink:href="classlibMesh_1_1DiagonalMatrix.html" target="_top" xlink:title="对角矩阵类，其底层存储是一个向量 ">
<polygon fill="white" stroke="black" points="583.5,-152.5 583.5,-171.5 747.5,-171.5 747.5,-152.5 583.5,-152.5"/>
<text text-anchor="middle" x="665.5" y="-159.5" font-family="Helvetica,sans-Serif" font-size="10.00">libMesh::DiagonalMatrix&lt; T &gt;</text>
</a>
</g>
</g>
<!-- Node1&#45;&gt;Node5 -->
<g id="edge4" class="edge">
<title>Node1&#45;&gt;Node5</title>
<path fill="none" stroke="midnightblue" d="M488.28,-101.29C510.44,-114.1 543.89,-132 575,-143 585.78,-146.81 597.58,-149.99 608.97,-152.57"/>
<polygon fill="midnightblue" stroke="midnightblue" points="490.07,-98.28 479.68,-96.24 486.52,-104.32 490.07,-98.28"/>
</g>
<!-- Node7 -->
<g id="node7" class="node">
<title>Node7</title>
<g id="a_node7"><a xlink:href="classlibMesh_1_1EigenSparseMatrix.html" target="_top" xlink:title="EigenSparseMatrix 类包装了来自 Eigen 库的稀疏矩阵对象。 ">
<polygon fill="white" stroke="black" points="575,-114.5 575,-133.5 756,-133.5 756,-114.5 575,-114.5"/>
<text text-anchor="middle" x="665.5" y="-121.5" font-family="Helvetica,sans-Serif" font-size="10.00">libMesh::EigenSparseMatrix&lt; T &gt;</text>
</a>
</g>
</g>
<!-- Node1&#45;&gt;Node7 -->
<g id="edge6" class="edge">
<title>Node1&#45;&gt;Node7</title>
<path fill="none" stroke="midnightblue" d="M524.51,-97.6C553.34,-103.04 587.24,-109.43 614.47,-114.56"/>
<polygon fill="midnightblue" stroke="midnightblue" points="525.29,-94.19 514.81,-95.77 523.99,-101.06 525.29,-94.19"/>
</g>
<!-- Node8 -->
<g id="node8" class="node">
<title>Node8</title>
<g id="a_node8"><a xlink:href="classlibMesh_1_1EpetraMatrix.html" target="_top" xlink:title="此类提供了对Epetra数据结构的并行、稀疏矩阵的友好接口。所有重写的虚拟函数在sparse_matrix.h中都有文档。 ">
<polygon fill="white" stroke="black" points="589.5,-76.5 589.5,-95.5 741.5,-95.5 741.5,-76.5 589.5,-76.5"/>
<text text-anchor="middle" x="665.5" y="-83.5" font-family="Helvetica,sans-Serif" font-size="10.00">libMesh::EpetraMatrix&lt; T &gt;</text>
</a>
</g>
</g>
<!-- Node1&#45;&gt;Node8 -->
<g id="edge7" class="edge">
<title>Node1&#45;&gt;Node8</title>
<path fill="none" stroke="midnightblue" d="M550.31,-86C563.43,-86 576.86,-86 589.68,-86"/>
<polygon fill="midnightblue" stroke="midnightblue" points="550.4,-82.5 540.4,-86 550.4,-89.5 550.4,-82.5"/>
</g>
<!-- Node9 -->
<g id="node9" class="node">
<title>Node9</title>
<g id="a_node9"><a xlink:href="classlibMesh_1_1LaspackMatrix.html" target="_top" xlink:title="LaspackMatrix类封装了Laspack库中的QMatrix对象。 目前，Laspack仅支持实数数据类型，因此这个类是对 SparseMatrix&lt;T&gt; 的全特化，其中 T = Real。 所...">
<polygon fill="white" stroke="black" points="585,-38.5 585,-57.5 746,-57.5 746,-38.5 585,-38.5"/>
<text text-anchor="middle" x="665.5" y="-45.5" font-family="Helvetica,sans-Serif" font-size="10.00">libMesh::LaspackMatrix&lt; T &gt;</text>
</a>
</g>
</g>
<!-- Node1&#45;&gt;Node9 -->
<g id="edge8" class="edge">
<title>Node1&#45;&gt;Node9</title>
<path fill="none" stroke="midnightblue" d="M524.51,-74.4C553.34,-68.96 587.24,-62.57 614.47,-57.44"/>
<polygon fill="midnightblue" stroke="midnightblue" points="523.99,-70.94 514.81,-76.23 525.29,-77.81 523.99,-70.94"/>
</g>
<!-- Node10 -->
<g id="node10" class="node">
<title>Node10</title>
<g id="a_node10"><a xlink:href="classlibMesh_1_1PetscMatrix.html" target="_top" xlink:title="这个类提供了一个方便的接口，用于操作并行稀疏矩阵的 PETSc C 库数据结构。 所有覆盖的虚拟函数都在 sparse_matrix.h 中有详细的文档说明。 ">
<polygon fill="white" stroke="black" points="592,-0.5 592,-19.5 739,-19.5 739,-0.5 592,-0.5"/>
<text text-anchor="middle" x="665.5" y="-7.5" font-family="Helvetica,sans-Serif" font-size="10.00">libMesh::PetscMatrix&lt; T &gt;</text>
</a>
</g>
</g>
<!-- Node1&#45;&gt;Node10 -->
<g id="edge9" class="edge">
<title>Node1&#45;&gt;Node10</title>
<path fill="none" stroke="midnightblue" d="M488.28,-70.71C510.44,-57.9 543.89,-40 575,-29 585.78,-25.19 597.58,-22.01 608.97,-19.43"/>
<polygon fill="midnightblue" stroke="midnightblue" points="486.52,-67.68 479.68,-75.76 490.07,-73.72 486.52,-67.68"/>
</g>
<!-- Node2 -->
<g id="node2" class="node">
<title>Node2</title>
<g id="a_node2"><a xlink:href="classlibMesh_1_1ReferenceCountedObject.html" target="_top" xlink:title="libMesh::ReferenceCounted\lObject\&lt; SparseMatrix\&lt; T \&gt; \&gt;">
<polygon fill="white" stroke="black" points="185,-93 185,-123 349,-123 349,-93 185,-93"/>
<text text-anchor="start" x="193" y="-111" font-family="Helvetica,sans-Serif" font-size="10.00">libMesh::ReferenceCounted</text>
<text text-anchor="middle" x="267" y="-100" font-family="Helvetica,sans-Serif" font-size="10.00">Object&lt; SparseMatrix&lt; T &gt; &gt;</text>
</a>
</g>
</g>
<!-- Node2&#45;&gt;Node1 -->
<g id="edge1" class="edge">
<title>Node2&#45;&gt;Node1</title>
<path fill="none" stroke="midnightblue" d="M360.14,-97.5C368.54,-96.54 376.98,-95.58 385.22,-94.64"/>
<polygon fill="midnightblue" stroke="midnightblue" points="359.77,-94.02 350.23,-98.63 360.57,-100.97 359.77,-94.02"/>
</g>
<!-- Node3 -->
<g id="node3" class="node">
<title>Node3</title>
<g id="a_node3"><a xlink:href="classlibMesh_1_1ReferenceCounter.html" target="_top" xlink:title="This is the base class for enabling reference counting. ">
<polygon fill="white" stroke="black" points="0,-98.5 0,-117.5 149,-117.5 149,-98.5 0,-98.5"/>
<text text-anchor="middle" x="74.5" y="-105.5" font-family="Helvetica,sans-Serif" font-size="10.00">libMesh::ReferenceCounter</text>
</a>
</g>
</g>
<!-- Node3&#45;&gt;Node2 -->
<g id="edge2" class="edge">
<title>Node3&#45;&gt;Node2</title>
<path fill="none" stroke="midnightblue" d="M160.38,-108C168.58,-108 176.89,-108 185.05,-108"/>
<polygon fill="midnightblue" stroke="midnightblue" points="160.39,-104.5 150.39,-108 160.39,-111.5 160.39,-104.5"/>
</g>
<!-- Node4 -->
<g id="node4" class="node">
<title>Node4</title>
<polygon fill="white" stroke="#bfbfbf" points="225,-54.5 225,-73.5 309,-73.5 309,-54.5 225,-54.5"/>
<text text-anchor="middle" x="267" y="-61.5" font-family="Helvetica,sans-Serif" font-size="10.00">ParallelObject</text>
</g>
<!-- Node4&#45;&gt;Node1 -->
<g id="edge3" class="edge">
<title>Node4&#45;&gt;Node1</title>
<path fill="none" stroke="midnightblue" d="M320.26,-69.96C340.21,-72.23 363.36,-74.87 385.07,-77.34"/>
<polygon fill="midnightblue" stroke="midnightblue" points="320.77,-66.49 310.43,-68.84 319.97,-73.45 320.77,-66.49"/>
</g>
<!-- Node6 -->
<g id="node6" class="node">
<title>Node6</title>
<g id="a_node6"><a xlink:href="classlibMesh_1_1LumpedMassMatrix.html" target="_top" xlink:title="模板类用于构造集中质量矩阵。 可能还有用于计算与整体系统缩放相关的数量。每当在此类上调用 add 方法时，我们都会将提供的值的绝对值相加到行索引 i 中。 ">
<polygon fill="white" stroke="black" points="792,-152.5 792,-171.5 977,-171.5 977,-152.5 792,-152.5"/>
<text text-anchor="middle" x="884.5" y="-159.5" font-family="Helvetica,sans-Serif" font-size="10.00">libMesh::LumpedMassMatrix&lt; T &gt;</text>
</a>
</g>
</g>
<!-- Node5&#45;&gt;Node6 -->
<g id="edge5" class="edge">
<title>Node5&#45;&gt;Node6</title>
<path fill="none" stroke="midnightblue" d="M758.7,-162C769.74,-162 781.01,-162 792.04,-162"/>
<polygon fill="midnightblue" stroke="midnightblue" points="758.82,-158.5 748.82,-162 758.82,-165.5 758.82,-158.5"/>
</g>
</g>
</svg>
