<?xml version="1.0" encoding="UTF-8" standalone="no"?>
<!DOCTYPE svg PUBLIC "-//W3C//DTD SVG 1.1//EN"
 "http://www.w3.org/Graphics/SVG/1.1/DTD/svg11.dtd">
<!-- Generated by graphviz version 7.0.5 (20221231.0122)
 -->
<!-- Title: /home/lwz/libmesh Pages: 1 -->
<svg width="256pt" height="111pt"
 viewBox="0.00 0.00 256.00 111.00" xmlns="http://www.w3.org/2000/svg" xmlns:xlink="http://www.w3.org/1999/xlink">
<g id="graph0" class="graph" transform="scale(1 1) rotate(0) translate(4 107)">
<title>/home/lwz/libmesh</title>
<polygon fill="white" stroke="none" points="-4,4 -4,-107 252,-107 252,4 -4,4"/>
<g id="clust1" class="cluster">
<title>clusterdir_aca5732f3463f86c31e2cf8b655e9c91</title>
<g id="a_clust1"><a xlink:href="dir_aca5732f3463f86c31e2cf8b655e9c91.html" target="_top" xlink:title="lwz">
<polygon fill="#ddddee" stroke="black" points="8,-8 8,-95 240,-95 240,-8 8,-8"/>
<text text-anchor="middle" x="124" y="-83" font-family="Helvetica,sans-Serif" font-size="10.00">lwz</text>
</a>
</g>
</g>
<g id="clust2" class="cluster">
<title>clusterdir_8cd6e838402b13ab6ef6597d22f852f8</title>
<g id="a_clust2"><a xlink:href="dir_8cd6e838402b13ab6ef6597d22f852f8.html" target="_top">
<polygon fill="#eeeeff" stroke="black" points="16,-16 16,-68 232,-68 232,-16 16,-16"/>
</a>
</g>
</g>
<!-- dir_8cd6e838402b13ab6ef6597d22f852f8 -->
<g id="node1" class="node">
<title>dir_8cd6e838402b13ab6ef6597d22f852f8</title>
<text text-anchor="middle" x="196" y="-39.5" font-family="Helvetica,sans-Serif" font-size="10.00">libmesh</text>
</g>
<!-- dir_e7fee3c13989f8a9ad582fb61a959d2f -->
<g id="node2" class="node">
<title>dir_e7fee3c13989f8a9ad582fb61a959d2f</title>
<g id="a_node2"><a xlink:href="dir_e7fee3c13989f8a9ad582fb61a959d2f.html" target="_top" xlink:title="include">
<polygon fill="white" stroke="red" points="150,-60 96,-60 96,-24 150,-24 150,-60"/>
<text text-anchor="middle" x="123" y="-39.5" font-family="Helvetica,sans-Serif" font-size="10.00">include</text>
</a>
</g>
</g>
<!-- dir_b67bea1992da7c14177dd4764c9b03c0 -->
<g id="node3" class="node">
<title>dir_b67bea1992da7c14177dd4764c9b03c0</title>
<g id="a_node3"><a xlink:href="dir_b67bea1992da7c14177dd4764c9b03c0.html" target="_top" xlink:title="src">
<polygon fill="white" stroke="red" points="78,-60 24,-60 24,-24 78,-24 78,-60"/>
<text text-anchor="middle" x="51" y="-39.5" font-family="Helvetica,sans-Serif" font-size="10.00">src</text>
</a>
</g>
</g>
</g>
</svg>
