<?xml version="1.0" encoding="UTF-8" standalone="no"?>
<!DOCTYPE svg PUBLIC "-//W3C//DTD SVG 1.1//EN"
 "http://www.w3.org/Graphics/SVG/1.1/DTD/svg11.dtd">
<!-- Generated by graphviz version 7.0.5 (20221231.0122)
 -->
<!-- Title: /home/lwz/libmesh/src Pages: 1 -->
<svg width="262pt" height="111pt"
 viewBox="0.00 0.00 262.00 111.00" xmlns="http://www.w3.org/2000/svg" xmlns:xlink="http://www.w3.org/1999/xlink">
<g id="graph0" class="graph" transform="scale(1 1) rotate(0) translate(4 107)">
<title>/home/lwz/libmesh/src</title>
<polygon fill="white" stroke="none" points="-4,4 -4,-107 258,-107 258,4 -4,4"/>
<g id="clust1" class="cluster">
<title>clusterdir_8cd6e838402b13ab6ef6597d22f852f8</title>
<g id="a_clust1"><a xlink:href="dir_8cd6e838402b13ab6ef6597d22f852f8.html" target="_top" xlink:title="libmesh">
<polygon fill="#ddddee" stroke="black" points="8,-8 8,-95 246,-95 246,-8 8,-8"/>
<text text-anchor="middle" x="127" y="-83" font-family="Helvetica,sans-Serif" font-size="10.00">libmesh</text>
</a>
</g>
</g>
<g id="clust2" class="cluster">
<title>clusterdir_b67bea1992da7c14177dd4764c9b03c0</title>
<g id="a_clust2"><a xlink:href="dir_b67bea1992da7c14177dd4764c9b03c0.html" target="_top">
<polygon fill="#eeeeff" stroke="black" points="16,-16 16,-68 238,-68 238,-16 16,-16"/>
</a>
</g>
</g>
<!-- dir_b67bea1992da7c14177dd4764c9b03c0 -->
<g id="node1" class="node">
<title>dir_b67bea1992da7c14177dd4764c9b03c0</title>
<text text-anchor="middle" x="203" y="-39.5" font-family="Helvetica,sans-Serif" font-size="10.00">src</text>
</g>
<!-- dir_2db4e969cdbcc7cd24cb62de5c75c5e0 -->
<g id="node2" class="node">
<title>dir_2db4e969cdbcc7cd24cb62de5c75c5e0</title>
<g id="a_node2"><a xlink:href="dir_2db4e969cdbcc7cd24cb62de5c75c5e0.html" target="_top" xlink:title="base">
<polygon fill="white" stroke="black" points="158,-60 104,-60 104,-24 158,-24 158,-60"/>
<text text-anchor="middle" x="131" y="-39.5" font-family="Helvetica,sans-Serif" font-size="10.00">base</text>
</a>
</g>
</g>
<!-- dir_f9975977ce271819849de43d89795655 -->
<g id="node3" class="node">
<title>dir_f9975977ce271819849de43d89795655</title>
<g id="a_node3"><a xlink:href="dir_f9975977ce271819849de43d89795655.html" target="_top" xlink:title="numerics">
<polygon fill="white" stroke="black" points="86,-60 24,-60 24,-24 86,-24 86,-60"/>
<text text-anchor="middle" x="55" y="-39.5" font-family="Helvetica,sans-Serif" font-size="10.00">numerics</text>
</a>
</g>
</g>
</g>
</svg>
