<?xml version="1.0" encoding="UTF-8" standalone="no"?>
<!DOCTYPE svg PUBLIC "-//W3C//DTD SVG 1.1//EN"
 "http://www.w3.org/Graphics/SVG/1.1/DTD/svg11.dtd">
<!-- Generated by graphviz version 7.0.5 (20221231.0122)
 -->
<!-- Title: 类继承关系图 Pages: 1 -->
<svg width="375pt" height="225pt"
 viewBox="0.00 0.00 375.00 224.50" xmlns="http://www.w3.org/2000/svg" xmlns:xlink="http://www.w3.org/1999/xlink">
<g id="graph0" class="graph" transform="scale(1 1) rotate(0) translate(4 220.5)">
<title>类继承关系图</title>
<polygon fill="white" stroke="none" points="-4,4 -4,-220.5 371,-220.5 371,4 -4,4"/>
<!-- Node1 -->
<g id="node1" class="node">
<title>Node1</title>
<g id="a_node1"><a xlink:href="classlibMesh_1_1FEMFunctionBase.html" target="_top" xlink:title="FEMFunctionBase是一个基类，用户可以从中派生出“函数样式”的对象，以在FEMSystem中使用。 ">
<polygon fill="white" stroke="black" points="0,-88 0,-118 147,-118 147,-88 0,-88"/>
<text text-anchor="start" x="8" y="-106" font-family="Helvetica,sans-Serif" font-size="10.00">libMesh::FEMFunctionBase</text>
<text text-anchor="middle" x="73.5" y="-95" font-family="Helvetica,sans-Serif" font-size="10.00">&lt; Output &gt;</text>
</a>
</g>
</g>
<!-- Node2 -->
<g id="node2" class="node">
<title>Node2</title>
<g id="a_node2"><a xlink:href="classlibMesh_1_1CompositeFEMFunction.html" target="_top" xlink:title="FEMFunction函数的另一个函数。 ">
<polygon fill="white" stroke="black" points="187,-186 187,-216 363,-216 363,-186 187,-186"/>
<text text-anchor="start" x="195" y="-204" font-family="Helvetica,sans-Serif" font-size="10.00">libMesh::CompositeFEMFunction</text>
<text text-anchor="middle" x="275" y="-193" font-family="Helvetica,sans-Serif" font-size="10.00">&lt; Output &gt;</text>
</a>
</g>
</g>
<!-- Node1&#45;&gt;Node2 -->
<g id="edge1" class="edge">
<title>Node1&#45;&gt;Node2</title>
<path fill="none" stroke="midnightblue" d="M101.12,-124.99C122.19,-141.41 152.96,-163.29 183,-177 190.58,-180.46 198.75,-183.49 206.98,-186.13"/>
<polygon fill="midnightblue" stroke="midnightblue" points="103.36,-122.3 93.35,-118.82 99.01,-127.78 103.36,-122.3"/>
</g>
<!-- Node3 -->
<g id="node3" class="node">
<title>Node3</title>
<g id="a_node3"><a xlink:href="classlibMesh_1_1ConstFEMFunction.html" target="_top" xlink:title="由Roy Stogner创作 2012年 ">
<polygon fill="white" stroke="black" points="199.5,-137 199.5,-167 350.5,-167 350.5,-137 199.5,-137"/>
<text text-anchor="start" x="207.5" y="-155" font-family="Helvetica,sans-Serif" font-size="10.00">libMesh::ConstFEMFunction</text>
<text text-anchor="middle" x="275" y="-144" font-family="Helvetica,sans-Serif" font-size="10.00">&lt; Output &gt;</text>
</a>
</g>
</g>
<!-- Node1&#45;&gt;Node3 -->
<g id="edge2" class="edge">
<title>Node1&#45;&gt;Node3</title>
<path fill="none" stroke="midnightblue" d="M146.33,-120.64C168.2,-126.01 192.02,-131.86 213.09,-137.04"/>
<polygon fill="midnightblue" stroke="midnightblue" points="147.46,-117.32 136.91,-118.33 145.79,-124.11 147.46,-117.32"/>
</g>
<!-- Node4 -->
<g id="node4" class="node">
<title>Node4</title>
<g id="a_node4"><a xlink:href="classlibMesh_1_1ParsedFEMFunction.html" target="_top" xlink:title="ParsedFEMFunction 提供对 FEMSystem 中基于 FParser 的解析函数的支持。 ">
<polygon fill="white" stroke="black" points="197.5,-88 197.5,-118 352.5,-118 352.5,-88 197.5,-88"/>
<text text-anchor="start" x="205.5" y="-106" font-family="Helvetica,sans-Serif" font-size="10.00">libMesh::ParsedFEMFunction</text>
<text text-anchor="middle" x="275" y="-95" font-family="Helvetica,sans-Serif" font-size="10.00">&lt; Output &gt;</text>
</a>
</g>
</g>
<!-- Node1&#45;&gt;Node4 -->
<g id="edge3" class="edge">
<title>Node1&#45;&gt;Node4</title>
<path fill="none" stroke="midnightblue" d="M158.17,-103C171.23,-103 184.68,-103 197.57,-103"/>
<polygon fill="midnightblue" stroke="midnightblue" points="158.32,-99.5 148.32,-103 158.32,-106.5 158.32,-99.5"/>
</g>
<!-- Node5 -->
<g id="node5" class="node">
<title>Node5</title>
<g id="a_node5"><a xlink:href="classlibMesh_1_1WrappedFunctor.html" target="_top" xlink:title="该类提供了一个包装器，用于在FunctionBase&lt;Output&gt;兼容接口中评估(libMesh风格的)函数指针。 ">
<polygon fill="white" stroke="black" points="205,-39 205,-69 345,-69 345,-39 205,-39"/>
<text text-anchor="start" x="213" y="-57" font-family="Helvetica,sans-Serif" font-size="10.00">libMesh::WrappedFunctor</text>
<text text-anchor="middle" x="275" y="-46" font-family="Helvetica,sans-Serif" font-size="10.00">&lt; Output &gt;</text>
</a>
</g>
</g>
<!-- Node1&#45;&gt;Node5 -->
<g id="edge4" class="edge">
<title>Node1&#45;&gt;Node5</title>
<path fill="none" stroke="midnightblue" d="M146.33,-85.36C168.2,-79.99 192.02,-74.14 213.09,-68.96"/>
<polygon fill="midnightblue" stroke="midnightblue" points="145.79,-81.89 136.91,-87.67 147.46,-88.68 145.79,-81.89"/>
</g>
<!-- Node6 -->
<g id="node6" class="node">
<title>Node6</title>
<g id="a_node6"><a xlink:href="classlibMesh_1_1ParsedFEMFunction.html" target="_top" xlink:title="libMesh::ParsedFEMFunction\&lt; T \&gt;">
<polygon fill="white" stroke="black" points="183,-0.5 183,-19.5 367,-19.5 367,-0.5 183,-0.5"/>
<text text-anchor="middle" x="275" y="-7.5" font-family="Helvetica,sans-Serif" font-size="10.00">libMesh::ParsedFEMFunction&lt; T &gt;</text>
</a>
</g>
</g>
<!-- Node1&#45;&gt;Node6 -->
<g id="edge5" class="edge">
<title>Node1&#45;&gt;Node6</title>
<path fill="none" stroke="midnightblue" d="M101.01,-80.97C122.02,-64.6 152.77,-42.93 183,-30 193.26,-25.61 204.6,-22.13 215.69,-19.4"/>
<polygon fill="midnightblue" stroke="midnightblue" points="98.92,-78.17 93.27,-87.13 103.27,-83.65 98.92,-78.17"/>
</g>
</g>
</svg>
