<?xml version="1.0" encoding="UTF-8" standalone="no"?>
<!DOCTYPE svg PUBLIC "-//W3C//DTD SVG 1.1//EN"
 "http://www.w3.org/Graphics/SVG/1.1/DTD/svg11.dtd">
<!-- Generated by graphviz version 7.0.5 (20221231.0122)
 -->
<!-- Title: 类继承关系图 Pages: 1 -->
<svg width="248pt" height="78pt"
 viewBox="0.00 0.00 248.00 77.50" xmlns="http://www.w3.org/2000/svg" xmlns:xlink="http://www.w3.org/1999/xlink">
<g id="graph0" class="graph" transform="scale(1 1) rotate(0) translate(4 73.5)">
<title>类继承关系图</title>
<polygon fill="white" stroke="none" points="-4,4 -4,-73.5 244,-73.5 244,4 -4,4"/>
<!-- Node1 -->
<g id="node1" class="node">
<title>Node1</title>
<polygon fill="white" stroke="#bfbfbf" points="0,-28 0,-47 47,-47 47,-28 0,-28"/>
<text text-anchor="middle" x="23.5" y="-35" font-family="Helvetica,sans-Serif" font-size="10.00">vector</text>
</g>
<!-- Node2 -->
<g id="node2" class="node">
<title>Node2</title>
<g id="a_node2"><a xlink:href="classlibMesh_1_1DirichletBoundaries.html" target="_top" xlink:title="We&#39;re using a class instead of a typedef to allow forward declarations and future flexibility...">
<polygon fill="white" stroke="black" points="83,-50 83,-69 240,-69 240,-50 83,-50"/>
<text text-anchor="middle" x="161.5" y="-57" font-family="Helvetica,sans-Serif" font-size="10.00">libMesh::DirichletBoundaries</text>
</a>
</g>
</g>
<!-- Node1&#45;&gt;Node2 -->
<g id="edge1" class="edge">
<title>Node1&#45;&gt;Node2</title>
<path fill="none" stroke="midnightblue" d="M57.93,-42.91C71.2,-45.06 86.87,-47.59 101.91,-50.02"/>
<polygon fill="midnightblue" stroke="midnightblue" points="58.88,-39.52 48.45,-41.37 57.76,-46.43 58.88,-39.52"/>
</g>
<!-- Node3 -->
<g id="node3" class="node">
<title>Node3</title>
<g id="a_node3"><a xlink:href="classlibMesh_1_1SparsityPattern_1_1Graph.html" target="_top" xlink:title="libMesh::SparsityPattern\l::Graph">
<polygon fill="white" stroke="black" points="94,-0.5 94,-30.5 229,-30.5 229,-0.5 94,-0.5"/>
<text text-anchor="start" x="102" y="-18.5" font-family="Helvetica,sans-Serif" font-size="10.00">libMesh::SparsityPattern</text>
<text text-anchor="middle" x="161.5" y="-7.5" font-family="Helvetica,sans-Serif" font-size="10.00">::Graph</text>
</a>
</g>
</g>
<!-- Node1&#45;&gt;Node3 -->
<g id="edge2" class="edge">
<title>Node1&#45;&gt;Node3</title>
<path fill="none" stroke="midnightblue" d="M58.15,-32.06C69.13,-30.28 81.73,-28.24 94.25,-26.22"/>
<polygon fill="midnightblue" stroke="midnightblue" points="57.76,-28.57 48.45,-33.63 58.88,-35.48 57.76,-28.57"/>
</g>
</g>
</svg>
