<?xml version="1.0" encoding="UTF-8" standalone="no"?>
<!DOCTYPE svg PUBLIC "-//W3C//DTD SVG 1.1//EN"
 "http://www.w3.org/Graphics/SVG/1.1/DTD/svg11.dtd">
<!-- Generated by graphviz version 7.0.5 (20221231.0122)
 -->
<!-- Title: 类继承关系图 Pages: 1 -->
<svg width="486pt" height="235pt"
 viewBox="0.00 0.00 486.00 235.00" xmlns="http://www.w3.org/2000/svg" xmlns:xlink="http://www.w3.org/1999/xlink">
<g id="graph0" class="graph" transform="scale(1 1) rotate(0) translate(4 231)">
<title>类继承关系图</title>
<polygon fill="white" stroke="none" points="-4,4 -4,-231 482,-231 482,4 -4,4"/>
<!-- Node1 -->
<g id="node1" class="node">
<title>Node1</title>
<g id="a_node1"><a xlink:href="classlibMesh_1_1FunctionBase.html" target="_top" xlink:title="FunctionBase是一个函数对象的基类，可以在某一点（可选地包括时间）进行评估。 ">
<polygon fill="white" stroke="black" points="0,-98.5 0,-128.5 126,-128.5 126,-98.5 0,-98.5"/>
<text text-anchor="start" x="8" y="-116.5" font-family="Helvetica,sans-Serif" font-size="10.00">libMesh::FunctionBase</text>
<text text-anchor="middle" x="63" y="-105.5" font-family="Helvetica,sans-Serif" font-size="10.00">&lt; Output &gt;</text>
</a>
</g>
</g>
<!-- Node2 -->
<g id="node2" class="node">
<title>Node2</title>
<g id="a_node2"><a xlink:href="classlibMesh_1_1AnalyticFunction.html" target="_top" xlink:title="将函数指针封装成FunctionBase对象。 ">
<polygon fill="white" stroke="black" points="168.5,-196.5 168.5,-226.5 310.5,-226.5 310.5,-196.5 168.5,-196.5"/>
<text text-anchor="start" x="176.5" y="-214.5" font-family="Helvetica,sans-Serif" font-size="10.00">libMesh::AnalyticFunction</text>
<text text-anchor="middle" x="239.5" y="-203.5" font-family="Helvetica,sans-Serif" font-size="10.00">&lt; Output &gt;</text>
</a>
</g>
</g>
<!-- Node1&#45;&gt;Node2 -->
<g id="edge1" class="edge">
<title>Node1&#45;&gt;Node2</title>
<path fill="none" stroke="midnightblue" d="M88.38,-135.69C107.29,-151.94 134.8,-173.5 162,-187.5 168.56,-190.88 175.68,-193.88 182.85,-196.53"/>
<polygon fill="midnightblue" stroke="midnightblue" points="90.79,-133.15 80.96,-129.2 86.18,-138.42 90.79,-133.15"/>
</g>
<!-- Node3 -->
<g id="node3" class="node">
<title>Node3</title>
<g id="a_node3"><a xlink:href="classlibMesh_1_1CompositeFunction.html" target="_top" xlink:title="将不同函数的结果组合成单个向量的函数。所有重写的虚拟函数在function_base.h中都有文档。 ">
<polygon fill="white" stroke="black" points="162,-147.5 162,-177.5 317,-177.5 317,-147.5 162,-147.5"/>
<text text-anchor="start" x="170" y="-165.5" font-family="Helvetica,sans-Serif" font-size="10.00">libMesh::CompositeFunction</text>
<text text-anchor="middle" x="239.5" y="-154.5" font-family="Helvetica,sans-Serif" font-size="10.00">&lt; Output &gt;</text>
</a>
</g>
</g>
<!-- Node1&#45;&gt;Node3 -->
<g id="edge2" class="edge">
<title>Node1&#45;&gt;Node3</title>
<path fill="none" stroke="midnightblue" d="M128.15,-131.51C146.91,-136.78 167.21,-142.48 185.22,-147.54"/>
<polygon fill="midnightblue" stroke="midnightblue" points="129.33,-128.21 118.76,-128.88 127.44,-134.95 129.33,-128.21"/>
</g>
<!-- Node4 -->
<g id="node4" class="node">
<title>Node4</title>
<g id="a_node4"><a xlink:href="classlibMesh_1_1ConstFunction.html" target="_top" xlink:title="由Roy Stogner创作 2012年 ">
<polygon fill="white" stroke="black" points="174.5,-98.5 174.5,-128.5 304.5,-128.5 304.5,-98.5 174.5,-98.5"/>
<text text-anchor="start" x="182.5" y="-116.5" font-family="Helvetica,sans-Serif" font-size="10.00">libMesh::ConstFunction</text>
<text text-anchor="middle" x="239.5" y="-105.5" font-family="Helvetica,sans-Serif" font-size="10.00">&lt; Output &gt;</text>
</a>
</g>
</g>
<!-- Node1&#45;&gt;Node4 -->
<g id="edge3" class="edge">
<title>Node1&#45;&gt;Node4</title>
<path fill="none" stroke="midnightblue" d="M136.87,-113.5C149.39,-113.5 162.32,-113.5 174.58,-113.5"/>
<polygon fill="midnightblue" stroke="midnightblue" points="137.04,-110 127.04,-113.5 137.04,-117 137.04,-110"/>
</g>
<!-- Node6 -->
<g id="node6" class="node">
<title>Node6</title>
<g id="a_node6"><a xlink:href="classlibMesh_1_1ParsedFunction.html" target="_top" xlink:title="通过解析数学表达式生成（通过 FParser）的函数。所有重写的虚拟函数在 function_base.h 中都有文档说明。 ">
<polygon fill="white" stroke="black" points="163,-49.5 163,-79.5 316,-79.5 316,-49.5 163,-49.5"/>
<text text-anchor="start" x="171" y="-67.5" font-family="Helvetica,sans-Serif" font-size="10.00">libMesh::ParsedFunction</text>
<text text-anchor="middle" x="239.5" y="-56.5" font-family="Helvetica,sans-Serif" font-size="10.00">&lt; Output, OutputGradient &gt;</text>
</a>
</g>
</g>
<!-- Node1&#45;&gt;Node6 -->
<g id="edge5" class="edge">
<title>Node1&#45;&gt;Node6</title>
<path fill="none" stroke="midnightblue" d="M128.15,-95.49C146.91,-90.22 167.21,-84.52 185.22,-79.46"/>
<polygon fill="midnightblue" stroke="midnightblue" points="127.44,-92.05 118.76,-98.12 129.33,-98.79 127.44,-92.05"/>
</g>
<!-- Node7 -->
<g id="node7" class="node">
<title>Node7</title>
<g id="a_node7"><a xlink:href="classlibMesh_1_1WrappedFunction.html" target="_top" xlink:title="将libMesh风格的函数指针封装成FunctionBase对象。 ">
<polygon fill="white" stroke="black" points="166.5,-0.5 166.5,-30.5 312.5,-30.5 312.5,-0.5 166.5,-0.5"/>
<text text-anchor="start" x="174.5" y="-18.5" font-family="Helvetica,sans-Serif" font-size="10.00">libMesh::WrappedFunction</text>
<text text-anchor="middle" x="239.5" y="-7.5" font-family="Helvetica,sans-Serif" font-size="10.00">&lt; Output &gt;</text>
</a>
</g>
</g>
<!-- Node1&#45;&gt;Node7 -->
<g id="edge6" class="edge">
<title>Node1&#45;&gt;Node7</title>
<path fill="none" stroke="midnightblue" d="M88.82,-91.43C107.77,-75.5 135.13,-54.42 162,-40.5 169.32,-36.71 177.33,-33.34 185.32,-30.39"/>
<polygon fill="midnightblue" stroke="midnightblue" points="86.7,-88.64 81.38,-97.8 91.25,-93.96 86.7,-88.64"/>
</g>
<!-- Node5 -->
<g id="node5" class="node">
<title>Node5</title>
<g id="a_node5"><a xlink:href="classlibMesh_1_1ZeroFunction.html" target="_top" xlink:title="ConstFunction that simply returns 0. ">
<polygon fill="white" stroke="black" points="353,-98.5 353,-128.5 478,-128.5 478,-98.5 353,-98.5"/>
<text text-anchor="start" x="361" y="-116.5" font-family="Helvetica,sans-Serif" font-size="10.00">libMesh::ZeroFunction</text>
<text text-anchor="middle" x="415.5" y="-105.5" font-family="Helvetica,sans-Serif" font-size="10.00">&lt; Output &gt;</text>
</a>
</g>
</g>
<!-- Node4&#45;&gt;Node5 -->
<g id="edge4" class="edge">
<title>Node4&#45;&gt;Node5</title>
<path fill="none" stroke="midnightblue" d="M315.64,-113.5C328.12,-113.5 340.93,-113.5 353.02,-113.5"/>
<polygon fill="midnightblue" stroke="midnightblue" points="315.82,-110 305.82,-113.5 315.82,-117 315.82,-110"/>
</g>
</g>
</svg>
