<?xml version="1.0" encoding="UTF-8" standalone="no"?>
<!DOCTYPE svg PUBLIC "-//W3C//DTD SVG 1.1//EN"
 "http://www.w3.org/Graphics/SVG/1.1/DTD/svg11.dtd">
<!-- Generated by graphviz version 7.0.5 (20221231.0122)
 -->
<!-- Title: 类继承关系图 Pages: 1 -->
<svg width="255pt" height="66pt"
 viewBox="0.00 0.00 255.00 66.00" xmlns="http://www.w3.org/2000/svg" xmlns:xlink="http://www.w3.org/1999/xlink">
<g id="graph0" class="graph" transform="scale(1 1) rotate(0) translate(4 62)">
<title>类继承关系图</title>
<polygon fill="white" stroke="none" points="-4,4 -4,-62 251,-62 251,4 -4,4"/>
<!-- Node1 -->
<g id="node1" class="node">
<title>Node1</title>
<polygon fill="white" stroke="#bfbfbf" points="0,-19.5 0,-38.5 68,-38.5 68,-19.5 0,-19.5"/>
<text text-anchor="middle" x="34" y="-26.5" font-family="Helvetica,sans-Serif" font-size="10.00">logic_error</text>
</g>
<!-- Node2 -->
<g id="node2" class="node">
<title>Node2</title>
<g id="a_node2"><a xlink:href="classlibMesh_1_1LogicError.html" target="_top" xlink:title="A class to represent the internal &quot;this should never happen&quot; errors, to be thrown by &quot;libmesh_error()...">
<polygon fill="white" stroke="black" points="120.5,-38.5 120.5,-57.5 230.5,-57.5 230.5,-38.5 120.5,-38.5"/>
<text text-anchor="middle" x="175.5" y="-45.5" font-family="Helvetica,sans-Serif" font-size="10.00">libMesh::LogicError</text>
</a>
</g>
</g>
<!-- Node1&#45;&gt;Node2 -->
<g id="edge1" class="edge">
<title>Node1&#45;&gt;Node2</title>
<path fill="none" stroke="midnightblue" d="M78.93,-34.98C92.18,-36.79 106.89,-38.79 120.71,-40.67"/>
<polygon fill="midnightblue" stroke="midnightblue" points="79.59,-31.54 69.21,-33.66 78.64,-38.48 79.59,-31.54"/>
</g>
<!-- Node3 -->
<g id="node3" class="node">
<title>Node3</title>
<g id="a_node3"><a xlink:href="classlibMesh_1_1NotImplemented.html" target="_top" xlink:title="A class to stub for features that should be in libMesh, but haven&#39;t been written yet, to be thrown by &quot;libmesh_not_implemented();&quot;. ">
<polygon fill="white" stroke="black" points="104,-0.5 104,-19.5 247,-19.5 247,-0.5 104,-0.5"/>
<text text-anchor="middle" x="175.5" y="-7.5" font-family="Helvetica,sans-Serif" font-size="10.00">libMesh::NotImplemented</text>
</a>
</g>
</g>
<!-- Node1&#45;&gt;Node3 -->
<g id="edge2" class="edge">
<title>Node1&#45;&gt;Node3</title>
<path fill="none" stroke="midnightblue" d="M78.96,-23.01C87.22,-21.89 96.05,-20.69 104.87,-19.48"/>
<polygon fill="midnightblue" stroke="midnightblue" points="78.64,-19.52 69.21,-24.34 79.59,-26.46 78.64,-19.52"/>
</g>
</g>
</svg>
