<?xml version="1.0" encoding="UTF-8" standalone="no"?>
<!DOCTYPE svg PUBLIC "-//W3C//DTD SVG 1.1//EN"
 "http://www.w3.org/Graphics/SVG/1.1/DTD/svg11.dtd">
<!-- Generated by graphviz version 7.0.5 (20221231.0122)
 -->
<!-- Title: 类继承关系图 Pages: 1 -->
<svg width="1012pt" height="598pt"
 viewBox="0.00 0.00 1012.00 598.00" xmlns="http://www.w3.org/2000/svg" xmlns:xlink="http://www.w3.org/1999/xlink">
<g id="graph0" class="graph" transform="scale(1 1) rotate(0) translate(4 594)">
<title>类继承关系图</title>
<polygon fill="white" stroke="none" points="-4,4 -4,-594 1008,-594 1008,4 -4,4"/>
<!-- Node1 -->
<g id="node1" class="node">
<title>Node1</title>
<polygon fill="white" stroke="#bfbfbf" points="424.5,-310.5 424.5,-329.5 520.5,-329.5 520.5,-310.5 424.5,-310.5"/>
<text text-anchor="middle" x="472.5" y="-317.5" font-family="Helvetica,sans-Serif" font-size="10.00">Epetra_Operator</text>
</g>
<!-- Node2 -->
<g id="node2" class="node">
<title>Node2</title>
<g id="a_node2"><a xlink:href="classlibMesh_1_1TrilinosPreconditioner.html" target="_top" xlink:title="这个类提供了一个接口，用于使用Trilinos提供的预条件器套件。 所有重写的虚拟函数在preconditioner.h中有文档说明。 ">
<polygon fill="white" stroke="black" points="589,-228.5 589,-247.5 783,-247.5 783,-228.5 589,-228.5"/>
<text text-anchor="middle" x="686" y="-235.5" font-family="Helvetica,sans-Serif" font-size="10.00">libMesh::TrilinosPreconditioner&lt; T &gt;</text>
</a>
</g>
</g>
<!-- Node1&#45;&gt;Node2 -->
<g id="edge1" class="edge">
<title>Node1&#45;&gt;Node2</title>
<path fill="none" stroke="midnightblue" d="M531.03,-311.02C538.75,-308.47 546.3,-305.2 553,-301 574.41,-287.58 567.33,-270 589,-257 595.56,-253.07 602.77,-249.93 610.22,-247.43"/>
<polygon fill="midnightblue" stroke="midnightblue" points="530.19,-307.62 521.54,-313.75 532.12,-314.35 530.19,-307.62"/>
</g>
<!-- Node3 -->
<g id="node3" class="node">
<title>Node3</title>
<polygon fill="white" stroke="#bfbfbf" points="228.5,-277.5 228.5,-296.5 312.5,-296.5 312.5,-277.5 228.5,-277.5"/>
<text text-anchor="middle" x="270.5" y="-284.5" font-family="Helvetica,sans-Serif" font-size="10.00">ParallelObject</text>
</g>
<!-- Node4 -->
<g id="node4" class="node">
<title>Node4</title>
<g id="a_node4"><a xlink:href="classlibMesh_1_1DofMap.html" target="_top" xlink:title="This class handles the numbering of degrees of freedom on a mesh. ">
<polygon fill="white" stroke="black" points="423,-184.5 423,-203.5 522,-203.5 522,-184.5 423,-184.5"/>
<text text-anchor="middle" x="472.5" y="-191.5" font-family="Helvetica,sans-Serif" font-size="10.00">libMesh::DofMap</text>
</a>
</g>
</g>
<!-- Node3&#45;&gt;Node4 -->
<g id="edge2" class="edge">
<title>Node3&#45;&gt;Node4</title>
<path fill="none" stroke="midnightblue" d="M323.24,-281.91C334.74,-279.06 346.35,-274.69 356,-268 380.01,-251.35 368.1,-229.81 392,-213 401.17,-206.55 412.25,-202.27 423.19,-199.44"/>
<polygon fill="midnightblue" stroke="midnightblue" points="322.88,-278.41 313.81,-283.9 324.32,-285.26 322.88,-278.41"/>
</g>
<!-- Node5 -->
<g id="node5" class="node">
<title>Node5</title>
<g id="a_node5"><a xlink:href="classlibMesh_1_1NumericVector.html" target="_top" xlink:title="提供了不同线性代数库的向量存储方案的统一接口。 ">
<polygon fill="white" stroke="black" points="392,-86.5 392,-105.5 553,-105.5 553,-86.5 392,-86.5"/>
<text text-anchor="middle" x="472.5" y="-93.5" font-family="Helvetica,sans-Serif" font-size="10.00">libMesh::NumericVector&lt; T &gt;</text>
</a>
</g>
</g>
<!-- Node3&#45;&gt;Node5 -->
<g id="edge3" class="edge">
<title>Node3&#45;&gt;Node5</title>
<path fill="none" stroke="midnightblue" d="M323.34,-283.58C335.12,-280.69 346.85,-275.89 356,-268 389.57,-239.07 367.75,-212.1 392,-175 410.95,-146.01 441.98,-119.14 459.13,-105.46"/>
<polygon fill="midnightblue" stroke="midnightblue" points="322.72,-280.13 313.58,-285.5 324.07,-287 322.72,-280.13"/>
</g>
<!-- Node11 -->
<g id="node11" class="node">
<title>Node11</title>
<g id="a_node11"><a xlink:href="classlibMesh_1_1Preconditioner.html" target="_top" xlink:title="该类提供了一个统一的接口，用于预处理器。此基类可继承，以包装来自不同软件包（如 PETSc 或 Trilinos）的预处理器。 ">
<polygon fill="white" stroke="black" points="392.5,-222.5 392.5,-241.5 552.5,-241.5 552.5,-222.5 392.5,-222.5"/>
<text text-anchor="middle" x="472.5" y="-229.5" font-family="Helvetica,sans-Serif" font-size="10.00">libMesh::Preconditioner&lt; T &gt;</text>
</a>
</g>
</g>
<!-- Node3&#45;&gt;Node11 -->
<g id="edge9" class="edge">
<title>Node3&#45;&gt;Node11</title>
<path fill="none" stroke="midnightblue" d="M323.45,-277.01C334.31,-274.45 345.62,-271.44 356,-268 372.62,-262.5 375.45,-257.71 392,-252 403.57,-248.01 416.34,-244.44 428.19,-241.46"/>
<polygon fill="midnightblue" stroke="midnightblue" points="322.81,-273.57 313.82,-279.18 324.35,-280.4 322.81,-273.57"/>
</g>
<!-- Node13 -->
<g id="node13" class="node">
<title>Node13</title>
<g id="a_node13"><a xlink:href="classlibMesh_1_1ShellMatrix.html" target="_top" xlink:title="通用的Shell矩阵，即一个仅定义其对向量的作用的矩阵。此类包含必须在派生类中重写的纯虚拟成员。 ">
<polygon fill="white" stroke="black" points="400,-456.5 400,-475.5 545,-475.5 545,-456.5 400,-456.5"/>
<text text-anchor="middle" x="472.5" y="-463.5" font-family="Helvetica,sans-Serif" font-size="10.00">libMesh::ShellMatrix&lt; T &gt;</text>
</a>
</g>
</g>
<!-- Node3&#45;&gt;Node13 -->
<g id="edge12" class="edge">
<title>Node3&#45;&gt;Node13</title>
<path fill="none" stroke="midnightblue" d="M319.28,-300.34C332.09,-305.42 345.34,-312.18 356,-321 378.8,-339.86 374.09,-353.45 392,-377 415.33,-407.67 446.72,-440.76 462.15,-456.56"/>
<polygon fill="midnightblue" stroke="midnightblue" points="320.69,-297.13 310.1,-296.98 318.28,-303.7 320.69,-297.13"/>
</g>
<!-- Node18 -->
<g id="node18" class="node">
<title>Node18</title>
<g id="a_node18"><a xlink:href="classlibMesh_1_1SparseMatrix.html" target="_top" xlink:title="这是一个通用的稀疏矩阵类。该类包含了必须在派生类中覆盖的纯虚拟成员。 使用一个公共的基类允许从不同的求解器包中以不同的格式统一访问稀疏矩阵。 ">
<polygon fill="white" stroke="black" points="395.5,-348.5 395.5,-367.5 549.5,-367.5 549.5,-348.5 395.5,-348.5"/>
<text text-anchor="middle" x="472.5" y="-355.5" font-family="Helvetica,sans-Serif" font-size="10.00">libMesh::SparseMatrix&lt; T &gt;</text>
</a>
</g>
</g>
<!-- Node3&#45;&gt;Node18 -->
<g id="edge17" class="edge">
<title>Node3&#45;&gt;Node18</title>
<path fill="none" stroke="midnightblue" d="M307.03,-300.55C322.23,-306.54 340.1,-313.84 356,-321 372.31,-328.34 375.19,-332.88 392,-339 402.13,-342.69 413.26,-345.86 423.89,-348.5"/>
<polygon fill="midnightblue" stroke="midnightblue" points="308.49,-297.37 297.91,-296.99 305.95,-303.89 308.49,-297.37"/>
</g>
<!-- Node25 -->
<g id="node25" class="node">
<title>Node25</title>
<g id="a_node25"><a xlink:href="classlibMesh_1_1SparsityPattern_1_1Build.html" target="_top" xlink:title="This helper class can be called on multiple threads to compute the sparsity pattern (or graph) of the...">
<polygon fill="white" stroke="black" points="405,-261 405,-291 540,-291 540,-261 405,-261"/>
<text text-anchor="start" x="413" y="-279" font-family="Helvetica,sans-Serif" font-size="10.00">libMesh::SparsityPattern</text>
<text text-anchor="middle" x="472.5" y="-268" font-family="Helvetica,sans-Serif" font-size="10.00">::Build</text>
</a>
</g>
</g>
<!-- Node3&#45;&gt;Node25 -->
<g id="edge24" class="edge">
<title>Node3&#45;&gt;Node25</title>
<path fill="none" stroke="midnightblue" d="M323.83,-284.12C348.66,-282.76 378.6,-281.11 405.01,-279.66"/>
<polygon fill="midnightblue" stroke="midnightblue" points="323.76,-280.62 313.97,-284.66 324.14,-287.61 323.76,-280.62"/>
</g>
<!-- Node6 -->
<g id="node6" class="node">
<title>Node6</title>
<g id="a_node6"><a xlink:href="classlibMesh_1_1DistributedVector.html" target="_top" xlink:title="该类提供了一个简单的并行分布式向量数据类型， 专门用于 libmesh。提供了一些集体通信功能。 ">
<polygon fill="white" stroke="black" points="599,-0.5 599,-19.5 773,-19.5 773,-0.5 599,-0.5"/>
<text text-anchor="middle" x="686" y="-7.5" font-family="Helvetica,sans-Serif" font-size="10.00">libMesh::DistributedVector&lt; T &gt;</text>
</a>
</g>
</g>
<!-- Node5&#45;&gt;Node6 -->
<g id="edge4" class="edge">
<title>Node5&#45;&gt;Node6</title>
<path fill="none" stroke="midnightblue" d="M495.59,-80.19C518.05,-64.86 554.39,-42.05 589,-29 599.25,-25.13 610.44,-22.01 621.43,-19.5"/>
<polygon fill="midnightblue" stroke="midnightblue" points="493.75,-77.21 487.54,-85.79 497.75,-82.95 493.75,-77.21"/>
</g>
<!-- Node7 -->
<g id="node7" class="node">
<title>Node7</title>
<g id="a_node7"><a xlink:href="classlibMesh_1_1EigenSparseVector.html" target="_top" xlink:title="This class provides a nice interface to the Eigen C++&#45;based data structures for serial vectors...">
<polygon fill="white" stroke="black" points="596,-152.5 596,-171.5 776,-171.5 776,-152.5 596,-152.5"/>
<text text-anchor="middle" x="686" y="-159.5" font-family="Helvetica,sans-Serif" font-size="10.00">libMesh::EigenSparseVector&lt; T &gt;</text>
</a>
</g>
</g>
<!-- Node5&#45;&gt;Node7 -->
<g id="edge5" class="edge">
<title>Node5&#45;&gt;Node7</title>
<path fill="none" stroke="midnightblue" d="M503.56,-110.09C526.54,-120.4 559.24,-134.09 589,-143 601.37,-146.7 614.86,-149.88 627.71,-152.52"/>
<polygon fill="midnightblue" stroke="midnightblue" points="505.04,-106.92 494.49,-105.96 502.14,-113.29 505.04,-106.92"/>
</g>
<!-- Node8 -->
<g id="node8" class="node">
<title>Node8</title>
<g id="a_node8"><a xlink:href="classlibMesh_1_1EpetraVector.html" target="_top" xlink:title="此类提供了对Trilinos Epetra_Vector对象的友好接口。所有重写的虚拟函数在numeric_vector.h中都有文档。 ">
<polygon fill="white" stroke="black" points="610,-114.5 610,-133.5 762,-133.5 762,-114.5 610,-114.5"/>
<text text-anchor="middle" x="686" y="-121.5" font-family="Helvetica,sans-Serif" font-size="10.00">libMesh::EpetraVector&lt; T &gt;</text>
</a>
</g>
</g>
<!-- Node5&#45;&gt;Node8 -->
<g id="edge6" class="edge">
<title>Node5&#45;&gt;Node8</title>
<path fill="none" stroke="midnightblue" d="M556.38,-106.97C575.24,-109.47 595.13,-112.1 613.47,-114.53"/>
<polygon fill="midnightblue" stroke="midnightblue" points="556.98,-103.52 546.6,-105.68 556.06,-110.46 556.98,-103.52"/>
</g>
<!-- Node9 -->
<g id="node9" class="node">
<title>Node9</title>
<g id="a_node9"><a xlink:href="classlibMesh_1_1LaspackVector.html" target="_top" xlink:title="这个类为基于laspackc的串行向量数据结构提供了一个很好的接口。 所有被覆盖的虚函数都记录在numeric_vector.h中。 ">
<polygon fill="white" stroke="black" points="606,-76.5 606,-95.5 766,-95.5 766,-76.5 606,-76.5"/>
<text text-anchor="middle" x="686" y="-83.5" font-family="Helvetica,sans-Serif" font-size="10.00">libMesh::LaspackVector&lt; T &gt;</text>
</a>
</g>
</g>
<!-- Node5&#45;&gt;Node9 -->
<g id="edge7" class="edge">
<title>Node5&#45;&gt;Node9</title>
<path fill="none" stroke="midnightblue" d="M564.03,-91.72C578.08,-91.06 592.49,-90.37 606.25,-89.72"/>
<polygon fill="midnightblue" stroke="midnightblue" points="564.19,-88.21 554.37,-92.18 564.52,-95.2 564.19,-88.21"/>
</g>
<!-- Node10 -->
<g id="node10" class="node">
<title>Node10</title>
<g id="a_node10"><a xlink:href="classlibMesh_1_1PetscVector.html" target="_top" xlink:title="该类提供了一个良好的接口，用于访问 PETSc 的 Vec 对象。所有重写的虚拟函数都在 numeric_vector.h 中有文档说明。 ">
<polygon fill="white" stroke="black" points="613,-38.5 613,-57.5 759,-57.5 759,-38.5 613,-38.5"/>
<text text-anchor="middle" x="686" y="-45.5" font-family="Helvetica,sans-Serif" font-size="10.00">libMesh::PetscVector&lt; T &gt;</text>
</a>
</g>
</g>
<!-- Node5&#45;&gt;Node10 -->
<g id="edge8" class="edge">
<title>Node5&#45;&gt;Node10</title>
<path fill="none" stroke="midnightblue" d="M520.16,-83.71C541.15,-78.33 566.26,-72.1 589,-67 603.75,-63.69 619.85,-60.38 634.58,-57.48"/>
<polygon fill="midnightblue" stroke="midnightblue" points="519.56,-80.25 510.75,-86.14 521.31,-87.03 519.56,-80.25"/>
</g>
<!-- Node11&#45;&gt;Node2 -->
<g id="edge11" class="edge">
<title>Node11&#45;&gt;Node2</title>
<path fill="none" stroke="midnightblue" d="M563.61,-234.56C572.01,-234.79 580.55,-235.04 589.01,-235.28"/>
<polygon fill="midnightblue" stroke="midnightblue" points="563.86,-231.06 553.77,-234.28 563.66,-238.06 563.86,-231.06"/>
</g>
<!-- Node12 -->
<g id="node12" class="node">
<title>Node12</title>
<g id="a_node12"><a xlink:href="classlibMesh_1_1EigenPreconditioner.html" target="_top" xlink:title="EigenPreconditioner 类提供了对 Eigen 库中预处理器集合的接口。 ">
<polygon fill="white" stroke="black" points="592.5,-190.5 592.5,-209.5 779.5,-209.5 779.5,-190.5 592.5,-190.5"/>
<text text-anchor="middle" x="686" y="-197.5" font-family="Helvetica,sans-Serif" font-size="10.00">libMesh::EigenPreconditioner&lt; T &gt;</text>
</a>
</g>
</g>
<!-- Node11&#45;&gt;Node12 -->
<g id="edge10" class="edge">
<title>Node11&#45;&gt;Node12</title>
<path fill="none" stroke="midnightblue" d="M547.19,-220.85C571.78,-217.13 598.92,-213.02 622.56,-209.45"/>
<polygon fill="midnightblue" stroke="midnightblue" points="546.96,-217.35 537.6,-222.3 548.01,-224.27 546.96,-217.35"/>
</g>
<!-- Node14 -->
<g id="node14" class="node">
<title>Node14</title>
<g id="a_node14"><a xlink:href="classlibMesh_1_1PetscShellMatrix.html" target="_top" xlink:title="这个类允许使用 PETSc shell 矩阵。 所有覆盖的虚拟函数都在 shell_matrix.h 中有文档说明。 ">
<polygon fill="white" stroke="black" points="600.5,-456.5 600.5,-475.5 771.5,-475.5 771.5,-456.5 600.5,-456.5"/>
<text text-anchor="middle" x="686" y="-463.5" font-family="Helvetica,sans-Serif" font-size="10.00">libMesh::PetscShellMatrix&lt; T &gt;</text>
</a>
</g>
</g>
<!-- Node13&#45;&gt;Node14 -->
<g id="edge13" class="edge">
<title>Node13&#45;&gt;Node14</title>
<path fill="none" stroke="midnightblue" d="M555.94,-466C570.67,-466 586.05,-466 600.83,-466"/>
<polygon fill="midnightblue" stroke="midnightblue" points="556.32,-462.5 546.32,-466 556.32,-469.5 556.32,-462.5"/>
</g>
<!-- Node15 -->
<g id="node15" class="node">
<title>Node15</title>
<g id="a_node15"><a xlink:href="classlibMesh_1_1SparseShellMatrix.html" target="_top" xlink:title="允许将任何SparseMatrix对象用作壳矩阵的类。 ">
<polygon fill="white" stroke="black" points="597,-570.5 597,-589.5 775,-589.5 775,-570.5 597,-570.5"/>
<text text-anchor="middle" x="686" y="-577.5" font-family="Helvetica,sans-Serif" font-size="10.00">libMesh::SparseShellMatrix&lt; T &gt;</text>
</a>
</g>
</g>
<!-- Node13&#45;&gt;Node15 -->
<g id="edge14" class="edge">
<title>Node13&#45;&gt;Node15</title>
<path fill="none" stroke="midnightblue" d="M546.78,-480.59C548.95,-481.93 551.03,-483.4 553,-485 582.03,-508.55 559.52,-538.03 589,-561 593.96,-564.86 599.49,-568.01 605.32,-570.56"/>
<polygon fill="midnightblue" stroke="midnightblue" points="548.62,-477.6 538.13,-476.11 545.4,-483.82 548.62,-477.6"/>
</g>
<!-- Node16 -->
<g id="node16" class="node">
<title>Node16</title>
<g id="a_node16"><a xlink:href="classlibMesh_1_1SumShellMatrix.html" target="_top" xlink:title="将任意数量的壳矩阵组合成一个单独的壳矩阵，通过将它们相加在一起的类。 ">
<polygon fill="white" stroke="black" points="602.5,-532.5 602.5,-551.5 769.5,-551.5 769.5,-532.5 602.5,-532.5"/>
<text text-anchor="middle" x="686" y="-539.5" font-family="Helvetica,sans-Serif" font-size="10.00">libMesh::SumShellMatrix&lt; T &gt;</text>
</a>
</g>
</g>
<!-- Node13&#45;&gt;Node16 -->
<g id="edge15" class="edge">
<title>Node13&#45;&gt;Node16</title>
<path fill="none" stroke="midnightblue" d="M541.46,-479.34C545.46,-481.01 549.34,-482.89 553,-485 573.15,-496.63 568.63,-511.77 589,-523 596.14,-526.94 603.98,-530.07 612,-532.55"/>
<polygon fill="midnightblue" stroke="midnightblue" points="542.67,-476.06 532.07,-475.92 540.26,-482.63 542.67,-476.06"/>
</g>
<!-- Node17 -->
<g id="node17" class="node">
<title>Node17</title>
<g id="a_node17"><a xlink:href="classlibMesh_1_1TensorShellMatrix.html" target="_top" xlink:title="由两个向量的张量积构成的壳矩阵，即A = v*w^T。 ">
<polygon fill="white" stroke="black" points="598,-494.5 598,-513.5 774,-513.5 774,-494.5 598,-494.5"/>
<text text-anchor="middle" x="686" y="-501.5" font-family="Helvetica,sans-Serif" font-size="10.00">libMesh::TensorShellMatrix&lt; T &gt;</text>
</a>
</g>
</g>
<!-- Node13&#45;&gt;Node17 -->
<g id="edge16" class="edge">
<title>Node13&#45;&gt;Node17</title>
<path fill="none" stroke="midnightblue" d="M537.26,-477.46C567.69,-482.92 603.66,-489.38 632.48,-494.56"/>
<polygon fill="midnightblue" stroke="midnightblue" points="538.28,-474.08 527.81,-475.76 537.04,-480.97 538.28,-474.08"/>
</g>
<!-- Node19 -->
<g id="node19" class="node">
<title>Node19</title>
<g id="a_node19"><a xlink:href="classlibMesh_1_1DiagonalMatrix.html" target="_top" xlink:title="对角矩阵类，其底层存储是一个向量 ">
<polygon fill="white" stroke="black" points="604,-342.5 604,-361.5 768,-361.5 768,-342.5 604,-342.5"/>
<text text-anchor="middle" x="686" y="-349.5" font-family="Helvetica,sans-Serif" font-size="10.00">libMesh::DiagonalMatrix&lt; T &gt;</text>
</a>
</g>
</g>
<!-- Node18&#45;&gt;Node19 -->
<g id="edge18" class="edge">
<title>Node18&#45;&gt;Node19</title>
<path fill="none" stroke="midnightblue" d="M560.65,-355.53C575.01,-355.12 589.85,-354.7 604.05,-354.3"/>
<polygon fill="midnightblue" stroke="midnightblue" points="560.67,-352.03 550.77,-355.81 560.87,-359.02 560.67,-352.03"/>
</g>
<!-- Node21 -->
<g id="node21" class="node">
<title>Node21</title>
<g id="a_node21"><a xlink:href="classlibMesh_1_1EigenSparseMatrix.html" target="_top" xlink:title="EigenSparseMatrix 类包装了来自 Eigen 库的稀疏矩阵对象。 ">
<polygon fill="white" stroke="black" points="595.5,-304.5 595.5,-323.5 776.5,-323.5 776.5,-304.5 595.5,-304.5"/>
<text text-anchor="middle" x="686" y="-311.5" font-family="Helvetica,sans-Serif" font-size="10.00">libMesh::EigenSparseMatrix&lt; T &gt;</text>
</a>
</g>
</g>
<!-- Node18&#45;&gt;Node21 -->
<g id="edge20" class="edge">
<title>Node18&#45;&gt;Node21</title>
<path fill="none" stroke="midnightblue" d="M527.34,-346.14C546.75,-341.92 568.85,-337.17 589,-333 604.31,-329.83 621.01,-326.48 636.13,-323.5"/>
<polygon fill="midnightblue" stroke="midnightblue" points="526.75,-342.69 517.72,-348.24 528.24,-349.52 526.75,-342.69"/>
</g>
<!-- Node22 -->
<g id="node22" class="node">
<title>Node22</title>
<g id="a_node22"><a xlink:href="classlibMesh_1_1EpetraMatrix.html" target="_top" xlink:title="此类提供了对Epetra数据结构的并行、稀疏矩阵的友好接口。所有重写的虚拟函数在sparse_matrix.h中都有文档。 ">
<polygon fill="white" stroke="black" points="610,-266.5 610,-285.5 762,-285.5 762,-266.5 610,-266.5"/>
<text text-anchor="middle" x="686" y="-273.5" font-family="Helvetica,sans-Serif" font-size="10.00">libMesh::EpetraMatrix&lt; T &gt;</text>
</a>
</g>
</g>
<!-- Node18&#45;&gt;Node22 -->
<g id="edge21" class="edge">
<title>Node18&#45;&gt;Node22</title>
<path fill="none" stroke="midnightblue" d="M542.61,-344.53C546.22,-342.9 549.71,-341.06 553,-339 574.41,-325.58 567.33,-308 589,-295 595.56,-291.07 602.77,-287.93 610.22,-285.43"/>
<polygon fill="midnightblue" stroke="midnightblue" points="541.6,-341.17 533.57,-348.09 544.16,-347.68 541.6,-341.17"/>
</g>
<!-- Node23 -->
<g id="node23" class="node">
<title>Node23</title>
<g id="a_node23"><a xlink:href="classlibMesh_1_1LaspackMatrix.html" target="_top" xlink:title="LaspackMatrix类封装了Laspack库中的QMatrix对象。 目前，Laspack仅支持实数数据类型，因此这个类是对 SparseMatrix&lt;T&gt; 的全特化，其中 T = Real。 所...">
<polygon fill="white" stroke="black" points="605.5,-418.5 605.5,-437.5 766.5,-437.5 766.5,-418.5 605.5,-418.5"/>
<text text-anchor="middle" x="686" y="-425.5" font-family="Helvetica,sans-Serif" font-size="10.00">libMesh::LaspackMatrix&lt; T &gt;</text>
</a>
</g>
</g>
<!-- Node18&#45;&gt;Node23 -->
<g id="edge22" class="edge">
<title>Node18&#45;&gt;Node23</title>
<path fill="none" stroke="midnightblue" d="M501.48,-372.45C524.47,-383.8 558.14,-399.26 589,-409 600.91,-412.76 613.89,-415.92 626.35,-418.53"/>
<polygon fill="midnightblue" stroke="midnightblue" points="503.28,-369.44 492.77,-368.08 500.15,-375.69 503.28,-369.44"/>
</g>
<!-- Node24 -->
<g id="node24" class="node">
<title>Node24</title>
<g id="a_node24"><a xlink:href="classlibMesh_1_1PetscMatrix.html" target="_top" xlink:title="这个类提供了一个方便的接口，用于操作并行稀疏矩阵的 PETSc C 库数据结构。 所有覆盖的虚拟函数都在 sparse_matrix.h 中有详细的文档说明。 ">
<polygon fill="white" stroke="black" points="612.5,-380.5 612.5,-399.5 759.5,-399.5 759.5,-380.5 612.5,-380.5"/>
<text text-anchor="middle" x="686" y="-387.5" font-family="Helvetica,sans-Serif" font-size="10.00">libMesh::PetscMatrix&lt; T &gt;</text>
</a>
</g>
</g>
<!-- Node18&#45;&gt;Node24 -->
<g id="edge23" class="edge">
<title>Node18&#45;&gt;Node24</title>
<path fill="none" stroke="midnightblue" d="M547.19,-369.15C571.78,-372.87 598.92,-376.98 622.56,-380.55"/>
<polygon fill="midnightblue" stroke="midnightblue" points="548.01,-365.73 537.6,-367.7 546.96,-372.65 548.01,-365.73"/>
</g>
<!-- Node20 -->
<g id="node20" class="node">
<title>Node20</title>
<g id="a_node20"><a xlink:href="classlibMesh_1_1LumpedMassMatrix.html" target="_top" xlink:title="模板类用于构造集中质量矩阵。 可能还有用于计算与整体系统缩放相关的数量。每当在此类上调用 add 方法时，我们都会将提供的值的绝对值相加到行索引 i 中。 ">
<polygon fill="white" stroke="black" points="819,-342.5 819,-361.5 1004,-361.5 1004,-342.5 819,-342.5"/>
<text text-anchor="middle" x="911.5" y="-349.5" font-family="Helvetica,sans-Serif" font-size="10.00">libMesh::LumpedMassMatrix&lt; T &gt;</text>
</a>
</g>
</g>
<!-- Node19&#45;&gt;Node20 -->
<g id="edge19" class="edge">
<title>Node19&#45;&gt;Node20</title>
<path fill="none" stroke="midnightblue" d="M778.81,-352C792.18,-352 805.95,-352 819.31,-352"/>
<polygon fill="midnightblue" stroke="midnightblue" points="779.2,-348.5 769.2,-352 779.2,-355.5 779.2,-348.5"/>
</g>
<!-- Node26 -->
<g id="node26" class="node">
<title>Node26</title>
<g id="a_node26"><a xlink:href="classlibMesh_1_1ReferenceCounter.html" target="_top" xlink:title="This is the base class for enabling reference counting. ">
<polygon fill="white" stroke="black" points="0,-233.5 0,-252.5 149,-252.5 149,-233.5 0,-233.5"/>
<text text-anchor="middle" x="74.5" y="-240.5" font-family="Helvetica,sans-Serif" font-size="10.00">libMesh::ReferenceCounter</text>
</a>
</g>
</g>
<!-- Node27 -->
<g id="node27" class="node">
<title>Node27</title>
<g id="a_node27"><a xlink:href="classlibMesh_1_1ReferenceCountedObject.html" target="_top" xlink:title="This class implements reference counting. ">
<polygon fill="white" stroke="black" points="195,-130 195,-160 346,-160 346,-130 195,-130"/>
<text text-anchor="start" x="203" y="-148" font-family="Helvetica,sans-Serif" font-size="10.00">libMesh::ReferenceCounted</text>
<text text-anchor="middle" x="270.5" y="-137" font-family="Helvetica,sans-Serif" font-size="10.00">Object&lt; T &gt;</text>
</a>
</g>
</g>
<!-- Node26&#45;&gt;Node27 -->
<g id="edge25" class="edge">
<title>Node26&#45;&gt;Node27</title>
<path fill="none" stroke="midnightblue" d="M95.54,-226.56C116.65,-209.97 151.42,-184.63 185,-169 192.33,-165.59 200.24,-162.56 208.19,-159.91"/>
<polygon fill="midnightblue" stroke="midnightblue" points="93.4,-223.79 87.78,-232.77 97.78,-229.26 93.4,-223.79"/>
</g>
<!-- Node28 -->
<g id="node28" class="node">
<title>Node28</title>
<g id="a_node28"><a xlink:href="classlibMesh_1_1ReferenceCountedObject.html" target="_top" xlink:title="libMesh::ReferenceCounted\lObject\&lt; DofMap \&gt;">
<polygon fill="white" stroke="black" points="195,-179 195,-209 346,-209 346,-179 195,-179"/>
<text text-anchor="start" x="203" y="-197" font-family="Helvetica,sans-Serif" font-size="10.00">libMesh::ReferenceCounted</text>
<text text-anchor="middle" x="270.5" y="-186" font-family="Helvetica,sans-Serif" font-size="10.00">Object&lt; DofMap &gt;</text>
</a>
</g>
</g>
<!-- Node26&#45;&gt;Node28 -->
<g id="edge26" class="edge">
<title>Node26&#45;&gt;Node28</title>
<path fill="none" stroke="midnightblue" d="M123.73,-230.82C149.98,-224.19 182.68,-215.93 210.45,-208.91"/>
<polygon fill="midnightblue" stroke="midnightblue" points="123.21,-227.34 114.37,-233.18 124.93,-234.13 123.21,-227.34"/>
</g>
<!-- Node29 -->
<g id="node29" class="node">
<title>Node29</title>
<g id="a_node29"><a xlink:href="classlibMesh_1_1ReferenceCountedObject.html" target="_top" xlink:title="libMesh::ReferenceCounted\lObject\&lt; DofObject \&gt;">
<polygon fill="white" stroke="black" points="195,-469 195,-499 346,-499 346,-469 195,-469"/>
<text text-anchor="start" x="203" y="-487" font-family="Helvetica,sans-Serif" font-size="10.00">libMesh::ReferenceCounted</text>
<text text-anchor="middle" x="270.5" y="-476" font-family="Helvetica,sans-Serif" font-size="10.00">Object&lt; DofObject &gt;</text>
</a>
</g>
</g>
<!-- Node26&#45;&gt;Node29 -->
<g id="edge28" class="edge">
<title>Node26&#45;&gt;Node29</title>
<path fill="none" stroke="midnightblue" d="M82.97,-262.78C97.75,-299.85 133.78,-380.74 185,-433 199.75,-448.05 219.83,-460.41 236.72,-469.2"/>
<polygon fill="midnightblue" stroke="midnightblue" points="86.36,-261.84 79.47,-253.79 79.84,-264.38 86.36,-261.84"/>
</g>
<!-- Node31 -->
<g id="node31" class="node">
<title>Node31</title>
<g id="a_node31"><a xlink:href="classlibMesh_1_1ReferenceCountedObject.html" target="_top" xlink:title="libMesh::ReferenceCounted\lObject\&lt; NumericVector\&lt; T \&gt; \&gt;">
<polygon fill="white" stroke="black" points="185,-81 185,-111 356,-111 356,-81 185,-81"/>
<text text-anchor="start" x="193" y="-99" font-family="Helvetica,sans-Serif" font-size="10.00">libMesh::ReferenceCounted</text>
<text text-anchor="middle" x="270.5" y="-88" font-family="Helvetica,sans-Serif" font-size="10.00">Object&lt; NumericVector&lt; T &gt; &gt;</text>
</a>
</g>
</g>
<!-- Node26&#45;&gt;Node31 -->
<g id="edge30" class="edge">
<title>Node26&#45;&gt;Node31</title>
<path fill="none" stroke="midnightblue" d="M87.17,-224.19C104.94,-197.09 141.38,-147.35 185,-120 190.56,-116.52 196.63,-113.53 202.89,-110.96"/>
<polygon fill="midnightblue" stroke="midnightblue" points="84.35,-222.09 81.92,-232.4 90.25,-225.86 84.35,-222.09"/>
</g>
<!-- Node32 -->
<g id="node32" class="node">
<title>Node32</title>
<g id="a_node32"><a xlink:href="classlibMesh_1_1ReferenceCountedObject.html" target="_top" xlink:title="libMesh::ReferenceCounted\lObject\&lt; Preconditioner\&lt; T \&gt; \&gt;">
<polygon fill="white" stroke="black" points="185.5,-228 185.5,-258 355.5,-258 355.5,-228 185.5,-228"/>
<text text-anchor="start" x="193.5" y="-246" font-family="Helvetica,sans-Serif" font-size="10.00">libMesh::ReferenceCounted</text>
<text text-anchor="middle" x="270.5" y="-235" font-family="Helvetica,sans-Serif" font-size="10.00">Object&lt; Preconditioner&lt; T &gt; &gt;</text>
</a>
</g>
</g>
<!-- Node26&#45;&gt;Node32 -->
<g id="edge32" class="edge">
<title>Node26&#45;&gt;Node32</title>
<path fill="none" stroke="midnightblue" d="M160.24,-243C168.67,-243 177.22,-243 185.64,-243"/>
<polygon fill="midnightblue" stroke="midnightblue" points="160.36,-239.5 150.36,-243 160.36,-246.5 160.36,-239.5"/>
</g>
<!-- Node33 -->
<g id="node33" class="node">
<title>Node33</title>
<g id="a_node33"><a xlink:href="classlibMesh_1_1ReferenceCountedObject.html" target="_top" xlink:title="libMesh::ReferenceCounted\lObject\&lt; ShellMatrix\&lt; T \&gt; \&gt;">
<polygon fill="white" stroke="black" points="193,-393 193,-423 348,-423 348,-393 193,-393"/>
<text text-anchor="start" x="201" y="-411" font-family="Helvetica,sans-Serif" font-size="10.00">libMesh::ReferenceCounted</text>
<text text-anchor="middle" x="270.5" y="-400" font-family="Helvetica,sans-Serif" font-size="10.00">Object&lt; ShellMatrix&lt; T &gt; &gt;</text>
</a>
</g>
</g>
<!-- Node26&#45;&gt;Node33 -->
<g id="edge34" class="edge">
<title>Node26&#45;&gt;Node33</title>
<path fill="none" stroke="midnightblue" d="M87.59,-261.61C105.89,-288.56 142.98,-338.65 185,-370 197.51,-379.33 212.67,-387.04 226.67,-393.03"/>
<polygon fill="midnightblue" stroke="midnightblue" points="90.62,-259.84 82.16,-253.46 84.79,-263.72 90.62,-259.84"/>
</g>
<!-- Node34 -->
<g id="node34" class="node">
<title>Node34</title>
<g id="a_node34"><a xlink:href="classlibMesh_1_1ReferenceCountedObject.html" target="_top" xlink:title="libMesh::ReferenceCounted\lObject\&lt; SparseMatrix\&lt; T \&gt; \&gt;">
<polygon fill="white" stroke="black" points="188.5,-330 188.5,-360 352.5,-360 352.5,-330 188.5,-330"/>
<text text-anchor="start" x="196.5" y="-348" font-family="Helvetica,sans-Serif" font-size="10.00">libMesh::ReferenceCounted</text>
<text text-anchor="middle" x="270.5" y="-337" font-family="Helvetica,sans-Serif" font-size="10.00">Object&lt; SparseMatrix&lt; T &gt; &gt;</text>
</a>
</g>
</g>
<!-- Node26&#45;&gt;Node34 -->
<g id="edge36" class="edge">
<title>Node26&#45;&gt;Node34</title>
<path fill="none" stroke="midnightblue" d="M100.7,-258.36C122.66,-271.54 155.53,-290.76 185,-306 201.36,-314.46 219.91,-323.12 235.45,-330.12"/>
<polygon fill="midnightblue" stroke="midnightblue" points="102.52,-255.37 92.15,-253.2 98.9,-261.36 102.52,-255.37"/>
</g>
<!-- Node28&#45;&gt;Node4 -->
<g id="edge27" class="edge">
<title>Node28&#45;&gt;Node4</title>
<path fill="none" stroke="midnightblue" d="M357.27,-194C379.78,-194 403.27,-194 423.05,-194"/>
<polygon fill="midnightblue" stroke="midnightblue" points="357.49,-190.5 347.49,-194 357.49,-197.5 357.49,-190.5"/>
</g>
<!-- Node30 -->
<g id="node30" class="node">
<title>Node30</title>
<g id="a_node30"><a xlink:href="classlibMesh_1_1DofObject.html" target="_top" xlink:title="The DofObject defines an abstract base class for objects that have degrees of freedom associated with...">
<polygon fill="white" stroke="black" points="417.5,-494.5 417.5,-513.5 527.5,-513.5 527.5,-494.5 417.5,-494.5"/>
<text text-anchor="middle" x="472.5" y="-501.5" font-family="Helvetica,sans-Serif" font-size="10.00">libMesh::DofObject</text>
</a>
</g>
</g>
<!-- Node29&#45;&gt;Node30 -->
<g id="edge29" class="edge">
<title>Node29&#45;&gt;Node30</title>
<path fill="none" stroke="midnightblue" d="M357.24,-492.57C377.72,-494.62 399.01,-496.75 417.58,-498.61"/>
<polygon fill="midnightblue" stroke="midnightblue" points="357.78,-489.11 347.48,-491.6 357.08,-496.08 357.78,-489.11"/>
</g>
<!-- Node31&#45;&gt;Node5 -->
<g id="edge31" class="edge">
<title>Node31&#45;&gt;Node5</title>
<path fill="none" stroke="midnightblue" d="M367.12,-96C375.5,-96 383.92,-96 392.14,-96"/>
<polygon fill="midnightblue" stroke="midnightblue" points="367.25,-92.5 357.25,-96 367.25,-99.5 367.25,-92.5"/>
</g>
<!-- Node32&#45;&gt;Node11 -->
<g id="edge33" class="edge">
<title>Node32&#45;&gt;Node11</title>
<path fill="none" stroke="midnightblue" d="M366.76,-237.76C375.4,-237.29 384.08,-236.81 392.56,-236.34"/>
<polygon fill="midnightblue" stroke="midnightblue" points="366.75,-234.26 356.96,-238.3 367.14,-241.25 366.75,-234.26"/>
</g>
<!-- Node33&#45;&gt;Node13 -->
<g id="edge35" class="edge">
<title>Node33&#45;&gt;Node13</title>
<path fill="none" stroke="midnightblue" d="M334.02,-426.13C368.79,-436.22 410.64,-448.35 438.96,-456.56"/>
<polygon fill="midnightblue" stroke="midnightblue" points="335.04,-422.78 324.46,-423.36 333.09,-429.5 335.04,-422.78"/>
</g>
<!-- Node34&#45;&gt;Node18 -->
<g id="edge37" class="edge">
<title>Node34&#45;&gt;Node18</title>
<path fill="none" stroke="midnightblue" d="M363.43,-350.98C374.2,-351.68 385.09,-352.38 395.61,-353.07"/>
<polygon fill="midnightblue" stroke="midnightblue" points="363.99,-347.5 353.78,-350.35 363.53,-354.49 363.99,-347.5"/>
</g>
</g>
</svg>
