<?xml version="1.0" encoding="UTF-8" standalone="no"?>
<!DOCTYPE svg PUBLIC "-//W3C//DTD SVG 1.1//EN"
 "http://www.w3.org/Graphics/SVG/1.1/DTD/svg11.dtd">
<!-- Generated by graphviz version 7.0.5 (20221231.0122)
 -->
<!-- Title: 类继承关系图 Pages: 1 -->
<svg width="367pt" height="78pt"
 viewBox="0.00 0.00 367.00 77.50" xmlns="http://www.w3.org/2000/svg" xmlns:xlink="http://www.w3.org/1999/xlink">
<g id="graph0" class="graph" transform="scale(1 1) rotate(0) translate(4 73.5)">
<title>类继承关系图</title>
<polygon fill="white" stroke="none" points="-4,4 -4,-73.5 363,-73.5 363,4 -4,4"/>
<!-- Node1 -->
<g id="node1" class="node">
<title>Node1</title>
<polygon fill="white" stroke="#bfbfbf" points="0,-22.5 0,-41.5 110,-41.5 110,-22.5 0,-22.5"/>
<text text-anchor="middle" x="55" y="-29.5" font-family="Helvetica,sans-Serif" font-size="10.00">ParameterAccessor</text>
</g>
<!-- Node2 -->
<g id="node2" class="node">
<title>Node2</title>
<g id="a_node2"><a xlink:href="classlibMesh_1_1ParsedFEMFunctionParameter.html" target="_top" xlink:title="访问器对象，允许读取和修改参数灵敏度计算中的独立变量。 ">
<polygon fill="white" stroke="black" points="175,-39 175,-69 330,-69 330,-39 175,-39"/>
<text text-anchor="start" x="183" y="-57" font-family="Helvetica,sans-Serif" font-size="10.00">libMesh::ParsedFEMFunction</text>
<text text-anchor="middle" x="252.5" y="-46" font-family="Helvetica,sans-Serif" font-size="10.00">Parameter&lt; T &gt;</text>
</a>
</g>
</g>
<!-- Node1&#45;&gt;Node2 -->
<g id="edge1" class="edge">
<title>Node1&#45;&gt;Node2</title>
<path fill="none" stroke="midnightblue" d="M121.06,-39.32C138.36,-41.27 157.21,-43.39 175.05,-45.4"/>
<polygon fill="midnightblue" stroke="midnightblue" points="121.77,-35.88 111.44,-38.24 120.99,-42.84 121.77,-35.88"/>
</g>
<!-- Node3 -->
<g id="node3" class="node">
<title>Node3</title>
<g id="a_node3"><a xlink:href="classlibMesh_1_1ParsedFunctionParameter.html" target="_top" xlink:title="访问器对象，允许在参数敏感性计算中读取和修改参数的独立变量。 ">
<polygon fill="white" stroke="black" points="146,-0.5 146,-19.5 359,-19.5 359,-0.5 146,-0.5"/>
<text text-anchor="middle" x="252.5" y="-7.5" font-family="Helvetica,sans-Serif" font-size="10.00">libMesh::ParsedFunctionParameter&lt; T &gt;</text>
</a>
</g>
</g>
<!-- Node1&#45;&gt;Node3 -->
<g id="edge2" class="edge">
<title>Node1&#45;&gt;Node3</title>
<path fill="none" stroke="midnightblue" d="M121.03,-24.68C135.85,-23.01 151.81,-21.22 167.3,-19.48"/>
<polygon fill="midnightblue" stroke="midnightblue" points="120.99,-21.16 111.44,-25.76 121.77,-28.12 120.99,-21.16"/>
</g>
</g>
</svg>
