<?xml version="1.0" encoding="UTF-8" standalone="no"?>
<!DOCTYPE svg PUBLIC "-//W3C//DTD SVG 1.1//EN"
 "http://www.w3.org/Graphics/SVG/1.1/DTD/svg11.dtd">
<!-- Generated by graphviz version 7.0.5 (20221231.0122)
 -->
<!-- Title: 类继承关系图 Pages: 1 -->
<svg width="300pt" height="142pt"
 viewBox="0.00 0.00 300.00 142.00" xmlns="http://www.w3.org/2000/svg" xmlns:xlink="http://www.w3.org/1999/xlink">
<g id="graph0" class="graph" transform="scale(1 1) rotate(0) translate(4 138)">
<title>类继承关系图</title>
<polygon fill="white" stroke="none" points="-4,4 -4,-138 296,-138 296,4 -4,4"/>
<!-- Node1 -->
<g id="node1" class="node">
<title>Node1</title>
<polygon fill="white" stroke="#bfbfbf" points="0,-57.5 0,-76.5 83,-76.5 83,-57.5 0,-57.5"/>
<text text-anchor="middle" x="41.5" y="-64.5" font-family="Helvetica,sans-Serif" font-size="10.00">runtime_error</text>
</g>
<!-- Node2 -->
<g id="node2" class="node">
<title>Node2</title>
<g id="a_node2"><a xlink:href="classlibMesh_1_1ConvergenceFailure.html" target="_top" xlink:title="A class representing a solver&#39;s failure to converge, to be thrown by &quot;libmesh_convergence_failure();&quot;...">
<polygon fill="white" stroke="black" points="127,-114.5 127,-133.5 284,-133.5 284,-114.5 127,-114.5"/>
<text text-anchor="middle" x="205.5" y="-121.5" font-family="Helvetica,sans-Serif" font-size="10.00">libMesh::ConvergenceFailure</text>
</a>
</g>
</g>
<!-- Node1&#45;&gt;Node2 -->
<g id="edge1" class="edge">
<title>Node1&#45;&gt;Node2</title>
<path fill="none" stroke="midnightblue" d="M68.46,-81.86C82.96,-89.66 101.56,-98.83 119,-105 129.61,-108.75 141.23,-111.92 152.39,-114.53"/>
<polygon fill="midnightblue" stroke="midnightblue" points="70.48,-78.98 60.03,-77.23 67.11,-85.12 70.48,-78.98"/>
</g>
<!-- Node3 -->
<g id="node3" class="node">
<title>Node3</title>
<g id="a_node3"><a xlink:href="classlibMesh_1_1DynamicCastFailure.html" target="_top" xlink:title="A class representing that a dynamic cast failed to produce expected output. ">
<polygon fill="white" stroke="black" points="126.5,-76.5 126.5,-95.5 284.5,-95.5 284.5,-76.5 126.5,-76.5"/>
<text text-anchor="middle" x="205.5" y="-83.5" font-family="Helvetica,sans-Serif" font-size="10.00">libMesh::DynamicCastFailure</text>
</a>
</g>
</g>
<!-- Node1&#45;&gt;Node3 -->
<g id="edge2" class="edge">
<title>Node1&#45;&gt;Node3</title>
<path fill="none" stroke="midnightblue" d="M94.28,-73.07C104.61,-74.28 115.68,-75.58 126.67,-76.87"/>
<polygon fill="midnightblue" stroke="midnightblue" points="94.8,-69.61 84.46,-71.92 93.99,-76.56 94.8,-69.61"/>
</g>
<!-- Node4 -->
<g id="node4" class="node">
<title>Node4</title>
<g id="a_node4"><a xlink:href="classlibMesh_1_1FileError.html" target="_top" xlink:title="A class representing a failed attempt by the library to open a file (or construct an fstream...">
<polygon fill="white" stroke="black" points="155,-38.5 155,-57.5 256,-57.5 256,-38.5 155,-38.5"/>
<text text-anchor="middle" x="205.5" y="-45.5" font-family="Helvetica,sans-Serif" font-size="10.00">libMesh::FileError</text>
</a>
</g>
</g>
<!-- Node1&#45;&gt;Node4 -->
<g id="edge3" class="edge">
<title>Node1&#45;&gt;Node4</title>
<path fill="none" stroke="midnightblue" d="M94.37,-60.92C113.8,-58.64 135.81,-56.06 155.02,-53.8"/>
<polygon fill="midnightblue" stroke="midnightblue" points="93.99,-57.44 84.46,-62.08 94.8,-64.39 93.99,-57.44"/>
</g>
<!-- Node5 -->
<g id="node5" class="node">
<title>Node5</title>
<g id="a_node5"><a xlink:href="classlibMesh_1_1FloatingPointException.html" target="_top" xlink:title="A class representing a floating point exception. ">
<polygon fill="white" stroke="black" points="119,-0.5 119,-19.5 292,-19.5 292,-0.5 119,-0.5"/>
<text text-anchor="middle" x="205.5" y="-7.5" font-family="Helvetica,sans-Serif" font-size="10.00">libMesh::FloatingPointException</text>
</a>
</g>
</g>
<!-- Node1&#45;&gt;Node5 -->
<g id="edge4" class="edge">
<title>Node1&#45;&gt;Node5</title>
<path fill="none" stroke="midnightblue" d="M68.46,-52.14C82.96,-44.34 101.56,-35.17 119,-29 129.61,-25.25 141.23,-22.08 152.39,-19.47"/>
<polygon fill="midnightblue" stroke="midnightblue" points="67.11,-48.88 60.03,-56.77 70.48,-55.02 67.11,-48.88"/>
</g>
</g>
</svg>
