<?xml version="1.0" encoding="UTF-8" standalone="no"?>
<!DOCTYPE svg PUBLIC "-//W3C//DTD SVG 1.1//EN"
 "http://www.w3.org/Graphics/SVG/1.1/DTD/svg11.dtd">
<!-- Generated by graphviz version 7.0.5 (20221231.0122)
 -->
<!-- Title: 类继承关系图 Pages: 1 -->
<svg width="390pt" height="66pt"
 viewBox="0.00 0.00 390.00 66.00" xmlns="http://www.w3.org/2000/svg" xmlns:xlink="http://www.w3.org/1999/xlink">
<g id="graph0" class="graph" transform="scale(1 1) rotate(0) translate(4 62)">
<title>类继承关系图</title>
<polygon fill="white" stroke="none" points="-4,4 -4,-62 386,-62 386,4 -4,4"/>
<!-- Node1 -->
<g id="node1" class="node">
<title>Node1</title>
<g id="a_node1"><a xlink:href="classlibMesh_1_1DenseMatrixBase.html" target="_top" xlink:title="为有限元类型的计算定义了一个抽象的稠密矩阵基类。例如 DenseSubMatrices 可以从这个类派生出来。 ">
<polygon fill="white" stroke="black" points="0,-19.5 0,-38.5 176,-38.5 176,-19.5 0,-19.5"/>
<text text-anchor="middle" x="88" y="-26.5" font-family="Helvetica,sans-Serif" font-size="10.00">libMesh::DenseMatrixBase&lt; T &gt;</text>
</a>
</g>
</g>
<!-- Node2 -->
<g id="node2" class="node">
<title>Node2</title>
<g id="a_node2"><a xlink:href="classlibMesh_1_1DenseMatrix.html" target="_top" xlink:title="定义用于有限元类型计算的密集矩阵。 用于在求和成全局矩阵之前存储单元刚度矩阵。所有被覆盖的虚函数都记录在dense_matrix_base.h中。 ">
<polygon fill="white" stroke="black" points="221,-38.5 221,-57.5 373,-57.5 373,-38.5 221,-38.5"/>
<text text-anchor="middle" x="297" y="-45.5" font-family="Helvetica,sans-Serif" font-size="10.00">libMesh::DenseMatrix&lt; T &gt;</text>
</a>
</g>
</g>
<!-- Node1&#45;&gt;Node2 -->
<g id="edge1" class="edge">
<title>Node1&#45;&gt;Node2</title>
<path fill="none" stroke="midnightblue" d="M187.24,-38.02C198.65,-39.06 210.14,-40.12 221.15,-41.13"/>
<polygon fill="midnightblue" stroke="midnightblue" points="187.67,-34.54 177.39,-37.11 187.03,-41.51 187.67,-34.54"/>
</g>
<!-- Node3 -->
<g id="node3" class="node">
<title>Node3</title>
<g id="a_node3"><a xlink:href="classlibMesh_1_1DenseSubMatrix.html" target="_top" xlink:title="为有限元类型的计算定义密集子矩阵。 在将元素刚度矩阵相加到全局矩阵之前存储非常有用，特别是在存在方程组时。 所有重写的虚拟函数在 dense_matrix_base.h 中有文档。 ">
<polygon fill="white" stroke="black" points="212,-0.5 212,-19.5 382,-19.5 382,-0.5 212,-0.5"/>
<text text-anchor="middle" x="297" y="-7.5" font-family="Helvetica,sans-Serif" font-size="10.00">libMesh::DenseSubMatrix&lt; T &gt;</text>
</a>
</g>
</g>
<!-- Node1&#45;&gt;Node3 -->
<g id="edge2" class="edge">
<title>Node1&#45;&gt;Node3</title>
<path fill="none" stroke="midnightblue" d="M187.26,-19.98C195.64,-19.21 204.07,-18.44 212.32,-17.68"/>
<polygon fill="midnightblue" stroke="midnightblue" points="187.03,-16.49 177.39,-20.89 187.67,-23.46 187.03,-16.49"/>
</g>
</g>
</svg>
