<?xml version="1.0" encoding="UTF-8" standalone="no"?>
<!DOCTYPE svg PUBLIC "-//W3C//DTD SVG 1.1//EN"
 "http://www.w3.org/Graphics/SVG/1.1/DTD/svg11.dtd">
<!-- Generated by graphviz version 7.0.5 (20221231.0122)
 -->
<!-- Title: 类继承关系图 Pages: 1 -->
<svg width="388pt" height="116pt"
 viewBox="0.00 0.00 388.00 115.50" xmlns="http://www.w3.org/2000/svg" xmlns:xlink="http://www.w3.org/1999/xlink">
<g id="graph0" class="graph" transform="scale(1 1) rotate(0) translate(4 111.5)">
<title>类继承关系图</title>
<polygon fill="white" stroke="none" points="-4,4 -4,-111.5 384,-111.5 384,4 -4,4"/>
<!-- Node1 -->
<g id="node1" class="node">
<title>Node1</title>
<g id="a_node1"><a xlink:href="classlibMesh_1_1DenseVectorBase.html" target="_top" xlink:title="定义用于有限元计算的抽象稠密向量基类。 可以从这个类派生出特定的稠密向量，例如 DenseSubVectors。 ">
<polygon fill="white" stroke="black" points="0,-38.5 0,-57.5 175,-57.5 175,-38.5 0,-38.5"/>
<text text-anchor="middle" x="87.5" y="-45.5" font-family="Helvetica,sans-Serif" font-size="10.00">libMesh::DenseVectorBase&lt; T &gt;</text>
</a>
</g>
</g>
<!-- Node2 -->
<g id="node2" class="node">
<title>Node2</title>
<g id="a_node2"><a xlink:href="classlibMesh_1_1DenseVector.html" target="_top" xlink:title="libMesh::DenseVector\l\&lt; Output \&gt;">
<polygon fill="white" stroke="black" points="234.5,-77 234.5,-107 356.5,-107 356.5,-77 234.5,-77"/>
<text text-anchor="start" x="242.5" y="-95" font-family="Helvetica,sans-Serif" font-size="10.00">libMesh::DenseVector</text>
<text text-anchor="middle" x="295.5" y="-84" font-family="Helvetica,sans-Serif" font-size="10.00">&lt; Output &gt;</text>
</a>
</g>
</g>
<!-- Node1&#45;&gt;Node2 -->
<g id="edge1" class="edge">
<title>Node1&#45;&gt;Node2</title>
<path fill="none" stroke="midnightblue" d="M144.13,-59.88C172.07,-65.85 205.97,-73.09 234.5,-79.18"/>
<polygon fill="midnightblue" stroke="midnightblue" points="144.94,-56.48 134.43,-57.81 143.47,-63.32 144.94,-56.48"/>
</g>
<!-- Node3 -->
<g id="node3" class="node">
<title>Node3</title>
<g id="a_node3"><a xlink:href="classlibMesh_1_1DenseSubVector.html" target="_top" xlink:title="定义了一个用于有限元计算的稠密子向量。 在将元素载荷向量累加到全局向量之前存储这些载荷向量时特别有用，尤其是在存在方程组的情况下。 所有重写的虚拟函数在 dense_vector_base.h 中有文档说明。 ">
<polygon fill="white" stroke="black" points="211,-38.5 211,-57.5 380,-57.5 380,-38.5 211,-38.5"/>
<text text-anchor="middle" x="295.5" y="-45.5" font-family="Helvetica,sans-Serif" font-size="10.00">libMesh::DenseSubVector&lt; T &gt;</text>
</a>
</g>
</g>
<!-- Node1&#45;&gt;Node3 -->
<g id="edge2" class="edge">
<title>Node1&#45;&gt;Node3</title>
<path fill="none" stroke="midnightblue" d="M186.29,-48C194.63,-48 203.01,-48 211.22,-48"/>
<polygon fill="midnightblue" stroke="midnightblue" points="186.48,-44.5 176.48,-48 186.48,-51.5 186.48,-44.5"/>
</g>
<!-- Node4 -->
<g id="node4" class="node">
<title>Node4</title>
<g id="a_node4"><a xlink:href="classlibMesh_1_1DenseVector.html" target="_top" xlink:title="定义用于有限元计算的稠密向量类。该类基本上是为了补充 DenseMatrix 类而设计的。 它相对于 std::vector 具有额外的功能，使其在有限元中特别有用，特别是对于方程组。 所有重写的虚拟函...">
<polygon fill="white" stroke="black" points="220,-0.5 220,-19.5 371,-19.5 371,-0.5 220,-0.5"/>
<text text-anchor="middle" x="295.5" y="-7.5" font-family="Helvetica,sans-Serif" font-size="10.00">libMesh::DenseVector&lt; T &gt;</text>
</a>
</g>
</g>
<!-- Node1&#45;&gt;Node4 -->
<g id="edge3" class="edge">
<title>Node1&#45;&gt;Node4</title>
<path fill="none" stroke="midnightblue" d="M150.99,-36.47C180.55,-31.02 215.39,-24.59 243.35,-19.44"/>
<polygon fill="midnightblue" stroke="midnightblue" points="150.64,-32.98 141.44,-38.23 151.91,-39.86 150.64,-32.98"/>
</g>
</g>
</svg>
