<?xml version="1.0" encoding="UTF-8" standalone="no"?>
<!DOCTYPE svg PUBLIC "-//W3C//DTD SVG 1.1//EN"
 "http://www.w3.org/Graphics/SVG/1.1/DTD/svg11.dtd">
<!-- Generated by graphviz version 7.0.5 (20221231.0122)
 -->
<!-- Title: 类继承关系图 Pages: 1 -->
<svg width="464pt" height="72pt"
 viewBox="0.00 0.00 464.00 72.00" xmlns="http://www.w3.org/2000/svg" xmlns:xlink="http://www.w3.org/1999/xlink">
<g id="graph0" class="graph" transform="scale(1 1) rotate(0) translate(4 68)">
<title>类继承关系图</title>
<polygon fill="white" stroke="none" points="-4,4 -4,-68 460,-68 460,4 -4,4"/>
<!-- Node1 -->
<g id="node1" class="node">
<title>Node1</title>
<g id="a_node1"><a xlink:href="structvariant__filter__iterator_1_1IterBase.html" target="_top" xlink:title="Abstract base class for the iterator type. ">
<polygon fill="white" stroke="black" points="0,-0.5 0,-63.5 210,-63.5 210,-0.5 0,-0.5"/>
<text text-anchor="start" x="8" y="-51.5" font-family="Helvetica,sans-Serif" font-size="10.00">variant_filter_iterator</text>
<text text-anchor="start" x="8" y="-40.5" font-family="Helvetica,sans-Serif" font-size="10.00">&lt; Predicate, Type, Reference</text>
<text text-anchor="start" x="8" y="-29.5" font-family="Helvetica,sans-Serif" font-size="10.00">Type, PointerType, ConstType,</text>
<text text-anchor="start" x="8" y="-18.5" font-family="Helvetica,sans-Serif" font-size="10.00"> ConstReferenceType, ConstPointerType</text>
<text text-anchor="middle" x="105" y="-7.5" font-family="Helvetica,sans-Serif" font-size="10.00"> &gt;::IterBase</text>
</a>
</g>
</g>
<!-- Node2 -->
<g id="node2" class="node">
<title>Node2</title>
<g id="a_node2"><a xlink:href="structvariant__filter__iterator_1_1Iter.html" target="_top" xlink:title="The actual iterator object is held as a template parameter here. ">
<polygon fill="white" stroke="black" points="246,-0.5 246,-63.5 456,-63.5 456,-0.5 246,-0.5"/>
<text text-anchor="start" x="254" y="-51.5" font-family="Helvetica,sans-Serif" font-size="10.00">variant_filter_iterator</text>
<text text-anchor="start" x="254" y="-40.5" font-family="Helvetica,sans-Serif" font-size="10.00">&lt; Predicate, Type, Reference</text>
<text text-anchor="start" x="254" y="-29.5" font-family="Helvetica,sans-Serif" font-size="10.00">Type, PointerType, ConstType,</text>
<text text-anchor="start" x="254" y="-18.5" font-family="Helvetica,sans-Serif" font-size="10.00"> ConstReferenceType, ConstPointerType</text>
<text text-anchor="middle" x="351" y="-7.5" font-family="Helvetica,sans-Serif" font-size="10.00"> &gt;::Iter&lt; IterType &gt;</text>
</a>
</g>
</g>
<!-- Node1&#45;&gt;Node2 -->
<g id="edge1" class="edge">
<title>Node1&#45;&gt;Node2</title>
<path fill="none" stroke="midnightblue" d="M221.2,-32C229.56,-32 237.97,-32 246.26,-32"/>
<polygon fill="midnightblue" stroke="midnightblue" points="221.35,-28.5 211.35,-32 221.35,-35.5 221.35,-28.5"/>
</g>
</g>
</svg>
