<?xml version="1.0" encoding="UTF-8" standalone="no"?>
<!DOCTYPE svg PUBLIC "-//W3C//DTD SVG 1.1//EN"
 "http://www.w3.org/Graphics/SVG/1.1/DTD/svg11.dtd">
<!-- Generated by graphviz version 7.0.5 (20221231.0122)
 -->
<!-- Title: 类继承关系图 Pages: 1 -->
<svg width="258pt" height="241pt"
 viewBox="0.00 0.00 258.00 241.00" xmlns="http://www.w3.org/2000/svg" xmlns:xlink="http://www.w3.org/1999/xlink">
<g id="graph0" class="graph" transform="scale(1 1) rotate(0) translate(4 237)">
<title>类继承关系图</title>
<polygon fill="white" stroke="none" points="-4,4 -4,-237 254,-237 254,4 -4,4"/>
<!-- Node1 -->
<g id="node1" class="node">
<title>Node1</title>
<polygon fill="white" stroke="#bfbfbf" points="0,-107 0,-126 38,-126 38,-107 0,-107"/>
<text text-anchor="middle" x="19" y="-114" font-family="Helvetica,sans-Serif" font-size="10.00">map</text>
</g>
<!-- Node2 -->
<g id="node2" class="node">
<title>Node2</title>
<g id="a_node2"><a xlink:href="classlibMesh_1_1AdjointDofConstraintValues.html" target="_top" xlink:title="Storage for DofConstraint right hand sides for all adjoint problems. ">
<polygon fill="white" stroke="black" points="80.5,-202.5 80.5,-232.5 243.5,-232.5 243.5,-202.5 80.5,-202.5"/>
<text text-anchor="start" x="88.5" y="-220.5" font-family="Helvetica,sans-Serif" font-size="10.00">libMesh::AdjointDofConstraint</text>
<text text-anchor="middle" x="162" y="-209.5" font-family="Helvetica,sans-Serif" font-size="10.00">Values</text>
</a>
</g>
</g>
<!-- Node1&#45;&gt;Node2 -->
<g id="edge1" class="edge">
<title>Node1&#45;&gt;Node2</title>
<path fill="none" stroke="midnightblue" d="M29.02,-135.87C38.04,-153.18 53.52,-177.99 74,-192.5 79.64,-196.5 85.91,-199.86 92.43,-202.69"/>
<polygon fill="midnightblue" stroke="midnightblue" points="32.26,-134.54 24.7,-127.12 25.99,-137.63 32.26,-134.54"/>
</g>
<!-- Node3 -->
<g id="node3" class="node">
<title>Node3</title>
<g id="a_node3"><a xlink:href="classlibMesh_1_1DofConstraints.html" target="_top" xlink:title="The constraint matrix storage format. ">
<polygon fill="white" stroke="black" points="95,-164 95,-183 229,-183 229,-164 95,-164"/>
<text text-anchor="middle" x="162" y="-171" font-family="Helvetica,sans-Serif" font-size="10.00">libMesh::DofConstraints</text>
</a>
</g>
</g>
<!-- Node1&#45;&gt;Node3 -->
<g id="edge2" class="edge">
<title>Node1&#45;&gt;Node3</title>
<path fill="none" stroke="midnightblue" d="M39.24,-132.88C49.07,-140.49 61.56,-149.03 74,-154.5 82.92,-158.42 92.71,-161.56 102.42,-164.07"/>
<polygon fill="midnightblue" stroke="midnightblue" points="41.55,-130.25 31.57,-126.69 37.15,-135.69 41.55,-130.25"/>
</g>
<!-- Node4 -->
<g id="node4" class="node">
<title>Node4</title>
<g id="a_node4"><a xlink:href="classlibMesh_1_1DofConstraintValueMap.html" target="_top" xlink:title="Storage for DofConstraint right hand sides for a particular problem. ">
<polygon fill="white" stroke="black" points="74,-126 74,-145 250,-145 250,-126 74,-126"/>
<text text-anchor="middle" x="162" y="-133" font-family="Helvetica,sans-Serif" font-size="10.00">libMesh::DofConstraintValueMap</text>
</a>
</g>
</g>
<!-- Node1&#45;&gt;Node4 -->
<g id="edge3" class="edge">
<title>Node1&#45;&gt;Node4</title>
<path fill="none" stroke="midnightblue" d="M49.07,-120.42C61.22,-122.05 75.91,-124.03 90.6,-126.01"/>
<polygon fill="midnightblue" stroke="midnightblue" points="49.74,-116.98 39.36,-119.11 48.8,-123.91 49.74,-116.98"/>
</g>
<!-- Node5 -->
<g id="node5" class="node">
<title>Node5</title>
<g id="a_node5"><a xlink:href="classlibMesh_1_1NodeConstraints.html" target="_top" xlink:title="The Node constraint storage format. ">
<polygon fill="white" stroke="black" points="91,-88 91,-107 233,-107 233,-88 91,-88"/>
<text text-anchor="middle" x="162" y="-95" font-family="Helvetica,sans-Serif" font-size="10.00">libMesh::NodeConstraints</text>
</a>
</g>
</g>
<!-- Node1&#45;&gt;Node5 -->
<g id="edge4" class="edge">
<title>Node1&#45;&gt;Node5</title>
<path fill="none" stroke="midnightblue" d="M49.2,-112.57C61.5,-110.91 76.4,-108.9 91.25,-106.9"/>
<polygon fill="midnightblue" stroke="midnightblue" points="48.8,-109.09 39.36,-113.89 49.74,-116.02 48.8,-109.09"/>
</g>
<!-- Node6 -->
<g id="node6" class="node">
<title>Node6</title>
<g id="a_node6"><a xlink:href="classlibMesh_1_1PeriodicBoundaries.html" target="_top" xlink:title="We&#39;re using a class instead of a typedef to allow forward declarations and future flexibility...">
<polygon fill="white" stroke="black" points="84.5,-50 84.5,-69 239.5,-69 239.5,-50 84.5,-50"/>
<text text-anchor="middle" x="162" y="-57" font-family="Helvetica,sans-Serif" font-size="10.00">libMesh::PeriodicBoundaries</text>
</a>
</g>
</g>
<!-- Node1&#45;&gt;Node6 -->
<g id="edge5" class="edge">
<title>Node1&#45;&gt;Node6</title>
<path fill="none" stroke="midnightblue" d="M39.24,-100.12C49.07,-92.51 61.56,-83.97 74,-78.5 82.92,-74.58 92.71,-71.44 102.42,-68.93"/>
<polygon fill="midnightblue" stroke="midnightblue" points="37.15,-97.31 31.57,-106.31 41.55,-102.75 37.15,-97.31"/>
</g>
<!-- Node7 -->
<g id="node7" class="node">
<title>Node7</title>
<g id="a_node7"><a xlink:href="classlibMesh_1_1SparsityPattern_1_1NonlocalGraph.html" target="_top" xlink:title="libMesh::SparsityPattern\l::NonlocalGraph">
<polygon fill="white" stroke="black" points="94.5,-0.5 94.5,-30.5 229.5,-30.5 229.5,-0.5 94.5,-0.5"/>
<text text-anchor="start" x="102.5" y="-18.5" font-family="Helvetica,sans-Serif" font-size="10.00">libMesh::SparsityPattern</text>
<text text-anchor="middle" x="162" y="-7.5" font-family="Helvetica,sans-Serif" font-size="10.00">::NonlocalGraph</text>
</a>
</g>
</g>
<!-- Node1&#45;&gt;Node7 -->
<g id="edge6" class="edge">
<title>Node1&#45;&gt;Node7</title>
<path fill="none" stroke="midnightblue" d="M29.02,-97.13C38.04,-79.82 53.52,-55.01 74,-40.5 80.28,-36.05 87.35,-32.38 94.67,-29.37"/>
<polygon fill="midnightblue" stroke="midnightblue" points="25.99,-95.37 24.7,-105.88 32.26,-98.46 25.99,-95.37"/>
</g>
</g>
</svg>
