<?xml version="1.0" encoding="UTF-8" standalone="no"?>
<!DOCTYPE svg PUBLIC "-//W3C//DTD SVG 1.1//EN"
 "http://www.w3.org/Graphics/SVG/1.1/DTD/svg11.dtd">
<!-- Generated by graphviz version 7.0.5 (20221231.0122)
 -->
<!-- Title: 类继承关系图 Pages: 1 -->
<svg width="441pt" height="872pt"
 viewBox="0.00 0.00 441.00 872.00" xmlns="http://www.w3.org/2000/svg" xmlns:xlink="http://www.w3.org/1999/xlink">
<g id="graph0" class="graph" transform="scale(1 1) rotate(0) translate(4 868)">
<title>类继承关系图</title>
<polygon fill="white" stroke="none" points="-4,4 -4,-868 437,-868 437,4 -4,4"/>
<!-- Node1 -->
<g id="node1" class="node">
<title>Node1</title>
<g id="a_node1"><a xlink:href="structlibMesh_1_1Predicates_1_1predicate.html" target="_top" xlink:title="libMesh::Predicates\l::predicate\&lt; T \&gt;">
<polygon fill="white" stroke="black" points="0,-416.5 0,-446.5 112,-446.5 112,-416.5 0,-416.5"/>
<text text-anchor="start" x="8" y="-434.5" font-family="Helvetica,sans-Serif" font-size="10.00">libMesh::Predicates</text>
<text text-anchor="middle" x="56" y="-423.5" font-family="Helvetica,sans-Serif" font-size="10.00">::predicate&lt; T &gt;</text>
</a>
</g>
</g>
<!-- Node2 -->
<g id="node2" class="node">
<title>Node2</title>
<g id="a_node2"><a xlink:href="structlibMesh_1_1Predicates_1_1active.html" target="_top" xlink:title="libMesh::Predicates\l::active\&lt; T \&gt;">
<polygon fill="white" stroke="black" points="157,-833.5 157,-863.5 269,-863.5 269,-833.5 157,-833.5"/>
<text text-anchor="start" x="165" y="-851.5" font-family="Helvetica,sans-Serif" font-size="10.00">libMesh::Predicates</text>
<text text-anchor="middle" x="213" y="-840.5" font-family="Helvetica,sans-Serif" font-size="10.00">::active&lt; T &gt;</text>
</a>
</g>
</g>
<!-- Node1&#45;&gt;Node2 -->
<g id="edge1" class="edge">
<title>Node1&#45;&gt;Node2</title>
<path fill="none" stroke="midnightblue" d="M59.84,-457.75C68.86,-536.51 99.14,-768.76 148,-824.5 151.05,-827.98 154.66,-830.96 158.58,-833.5"/>
<polygon fill="midnightblue" stroke="midnightblue" points="63.34,-457.53 58.75,-447.98 56.39,-458.31 63.34,-457.53"/>
</g>
<!-- Node4 -->
<g id="node4" class="node">
<title>Node4</title>
<g id="a_node4"><a xlink:href="structlibMesh_1_1Predicates_1_1ancestor.html" target="_top" xlink:title="libMesh::Predicates\l::ancestor\&lt; T \&gt;">
<polygon fill="white" stroke="black" points="157,-784.5 157,-814.5 269,-814.5 269,-784.5 157,-784.5"/>
<text text-anchor="start" x="165" y="-802.5" font-family="Helvetica,sans-Serif" font-size="10.00">libMesh::Predicates</text>
<text text-anchor="middle" x="213" y="-791.5" font-family="Helvetica,sans-Serif" font-size="10.00">::ancestor&lt; T &gt;</text>
</a>
</g>
</g>
<!-- Node1&#45;&gt;Node4 -->
<g id="edge3" class="edge">
<title>Node1&#45;&gt;Node4</title>
<path fill="none" stroke="midnightblue" d="M56.27,-457.7C55.95,-520.73 63.89,-682.51 148,-775.5 151.18,-779.02 154.94,-782.03 159,-784.59"/>
<polygon fill="midnightblue" stroke="midnightblue" points="59.76,-458.02 56.4,-447.97 52.77,-457.92 59.76,-458.02"/>
</g>
<!-- Node6 -->
<g id="node6" class="node">
<title>Node6</title>
<g id="a_node6"><a xlink:href="structlibMesh_1_1Predicates_1_1bid.html" target="_top" xlink:title="libMesh::Predicates\l::bid\&lt; T \&gt;">
<polygon fill="white" stroke="black" points="157,-735.5 157,-765.5 269,-765.5 269,-735.5 157,-735.5"/>
<text text-anchor="start" x="165" y="-753.5" font-family="Helvetica,sans-Serif" font-size="10.00">libMesh::Predicates</text>
<text text-anchor="middle" x="213" y="-742.5" font-family="Helvetica,sans-Serif" font-size="10.00">::bid&lt; T &gt;</text>
</a>
</g>
</g>
<!-- Node1&#45;&gt;Node6 -->
<g id="edge5" class="edge">
<title>Node1&#45;&gt;Node6</title>
<path fill="none" stroke="midnightblue" d="M57.67,-457.75C60.52,-514.37 75.05,-649.07 148,-726.5 151.34,-730.04 155.25,-733.06 159.46,-735.64"/>
<polygon fill="midnightblue" stroke="midnightblue" points="61.17,-457.67 57.26,-447.82 54.17,-457.95 61.17,-457.67"/>
</g>
<!-- Node7 -->
<g id="node7" class="node">
<title>Node7</title>
<g id="a_node7"><a xlink:href="structlibMesh_1_1Predicates_1_1bnd.html" target="_top" xlink:title="libMesh::Predicates\l::bnd\&lt; T \&gt;">
<polygon fill="white" stroke="black" points="157,-686.5 157,-716.5 269,-716.5 269,-686.5 157,-686.5"/>
<text text-anchor="start" x="165" y="-704.5" font-family="Helvetica,sans-Serif" font-size="10.00">libMesh::Predicates</text>
<text text-anchor="middle" x="213" y="-693.5" font-family="Helvetica,sans-Serif" font-size="10.00">::bnd&lt; T &gt;</text>
</a>
</g>
</g>
<!-- Node1&#45;&gt;Node7 -->
<g id="edge6" class="edge">
<title>Node1&#45;&gt;Node7</title>
<path fill="none" stroke="midnightblue" d="M59.54,-457.44C65.73,-506.88 85.95,-615.17 148,-677.5 151.52,-681.03 155.6,-684.05 159.97,-686.63"/>
<polygon fill="midnightblue" stroke="midnightblue" points="63.04,-457.25 58.43,-447.71 56.09,-458.05 63.04,-457.25"/>
</g>
<!-- Node8 -->
<g id="node8" class="node">
<title>Node8</title>
<g id="a_node8"><a xlink:href="structlibMesh_1_1Predicates_1_1boundary__side.html" target="_top" xlink:title="libMesh::Predicates\l::boundary_side\&lt; T \&gt;">
<polygon fill="white" stroke="black" points="152,-637.5 152,-667.5 274,-667.5 274,-637.5 152,-637.5"/>
<text text-anchor="start" x="160" y="-655.5" font-family="Helvetica,sans-Serif" font-size="10.00">libMesh::Predicates</text>
<text text-anchor="middle" x="213" y="-644.5" font-family="Helvetica,sans-Serif" font-size="10.00">::boundary_side&lt; T &gt;</text>
</a>
</g>
</g>
<!-- Node1&#45;&gt;Node8 -->
<g id="edge7" class="edge">
<title>Node1&#45;&gt;Node8</title>
<path fill="none" stroke="midnightblue" d="M62.3,-457.46C72.09,-499.12 96.87,-581.02 148,-628.5 151.74,-631.97 156.03,-634.96 160.58,-637.52"/>
<polygon fill="midnightblue" stroke="midnightblue" points="65.75,-456.85 60.15,-447.85 58.91,-458.37 65.75,-456.85"/>
</g>
<!-- Node9 -->
<g id="node9" class="node">
<title>Node9</title>
<g id="a_node9"><a xlink:href="structlibMesh_1_1Predicates_1_1elem__type.html" target="_top" xlink:title="libMesh::Predicates\l::elem_type\&lt; T \&gt;">
<polygon fill="white" stroke="black" points="157,-588.5 157,-618.5 269,-618.5 269,-588.5 157,-588.5"/>
<text text-anchor="start" x="165" y="-606.5" font-family="Helvetica,sans-Serif" font-size="10.00">libMesh::Predicates</text>
<text text-anchor="middle" x="213" y="-595.5" font-family="Helvetica,sans-Serif" font-size="10.00">::elem_type&lt; T &gt;</text>
</a>
</g>
</g>
<!-- Node1&#45;&gt;Node9 -->
<g id="edge8" class="edge">
<title>Node1&#45;&gt;Node9</title>
<path fill="none" stroke="midnightblue" d="M66.46,-456.81C79.87,-489.47 107.39,-546.04 148,-579.5 152.21,-582.97 156.98,-585.97 161.96,-588.55"/>
<polygon fill="midnightblue" stroke="midnightblue" points="69.8,-455.75 62.86,-447.74 63.3,-458.33 69.8,-455.75"/>
</g>
<!-- Node10 -->
<g id="node10" class="node">
<title>Node10</title>
<g id="a_node10"><a xlink:href="structlibMesh_1_1Predicates_1_1evaluable.html" target="_top" xlink:title="libMesh::Predicates\l::evaluable\&lt; T \&gt;">
<polygon fill="white" stroke="black" points="157,-539.5 157,-569.5 269,-569.5 269,-539.5 157,-539.5"/>
<text text-anchor="start" x="165" y="-557.5" font-family="Helvetica,sans-Serif" font-size="10.00">libMesh::Predicates</text>
<text text-anchor="middle" x="213" y="-546.5" font-family="Helvetica,sans-Serif" font-size="10.00">::evaluable&lt; T &gt;</text>
</a>
</g>
</g>
<!-- Node1&#45;&gt;Node10 -->
<g id="edge9" class="edge">
<title>Node1&#45;&gt;Node10</title>
<path fill="none" stroke="midnightblue" d="M73.73,-455.36C90.34,-477.5 117.65,-510.04 148,-530.5 153.12,-533.95 158.8,-536.99 164.6,-539.64"/>
<polygon fill="midnightblue" stroke="midnightblue" points="76.71,-453.51 67.98,-447.51 71.06,-457.64 76.71,-453.51"/>
</g>
<!-- Node11 -->
<g id="node11" class="node">
<title>Node11</title>
<g id="a_node11"><a xlink:href="structlibMesh_1_1Predicates_1_1facelocal__pid.html" target="_top" xlink:title="libMesh::Predicates\l::facelocal_pid\&lt; T \&gt;">
<polygon fill="white" stroke="black" points="155,-490.5 155,-520.5 271,-520.5 271,-490.5 155,-490.5"/>
<text text-anchor="start" x="163" y="-508.5" font-family="Helvetica,sans-Serif" font-size="10.00">libMesh::Predicates</text>
<text text-anchor="middle" x="213" y="-497.5" font-family="Helvetica,sans-Serif" font-size="10.00">::facelocal_pid&lt; T &gt;</text>
</a>
</g>
</g>
<!-- Node1&#45;&gt;Node11 -->
<g id="edge10" class="edge">
<title>Node1&#45;&gt;Node11</title>
<path fill="none" stroke="midnightblue" d="M91.5,-451.99C108.26,-461.54 128.87,-472.71 148,-481.5 154.9,-484.67 162.35,-487.76 169.65,-490.6"/>
<polygon fill="midnightblue" stroke="midnightblue" points="93.33,-449 82.92,-447.04 89.83,-455.07 93.33,-449"/>
</g>
<!-- Node12 -->
<g id="node12" class="node">
<title>Node12</title>
<g id="a_node12"><a xlink:href="structlibMesh_1_1Predicates_1_1flagged.html" target="_top" xlink:title="libMesh::Predicates\l::flagged\&lt; T \&gt;">
<polygon fill="white" stroke="black" points="157,-441.5 157,-471.5 269,-471.5 269,-441.5 157,-441.5"/>
<text text-anchor="start" x="165" y="-459.5" font-family="Helvetica,sans-Serif" font-size="10.00">libMesh::Predicates</text>
<text text-anchor="middle" x="213" y="-448.5" font-family="Helvetica,sans-Serif" font-size="10.00">::flagged&lt; T &gt;</text>
</a>
</g>
</g>
<!-- Node1&#45;&gt;Node12 -->
<g id="edge11" class="edge">
<title>Node1&#45;&gt;Node12</title>
<path fill="none" stroke="midnightblue" d="M122.88,-442.13C134.27,-443.96 146,-445.86 157.06,-447.64"/>
<polygon fill="midnightblue" stroke="midnightblue" points="123.57,-438.69 113.14,-440.56 122.46,-445.6 123.57,-438.69"/>
</g>
<!-- Node13 -->
<g id="node13" class="node">
<title>Node13</title>
<g id="a_node13"><a xlink:href="structlibMesh_1_1Predicates_1_1is__null.html" target="_top" xlink:title="libMesh::Predicates\l::is_null\&lt; T \&gt;">
<polygon fill="white" stroke="black" points="157,-392.5 157,-422.5 269,-422.5 269,-392.5 157,-392.5"/>
<text text-anchor="start" x="165" y="-410.5" font-family="Helvetica,sans-Serif" font-size="10.00">libMesh::Predicates</text>
<text text-anchor="middle" x="213" y="-399.5" font-family="Helvetica,sans-Serif" font-size="10.00">::is_null&lt; T &gt;</text>
</a>
</g>
</g>
<!-- Node1&#45;&gt;Node13 -->
<g id="edge12" class="edge">
<title>Node1&#45;&gt;Node13</title>
<path fill="none" stroke="midnightblue" d="M122.88,-421.3C134.27,-419.54 146,-417.72 157.06,-416.01"/>
<polygon fill="midnightblue" stroke="midnightblue" points="122.49,-417.82 113.14,-422.81 123.56,-424.74 122.49,-417.82"/>
</g>
<!-- Node15 -->
<g id="node15" class="node">
<title>Node15</title>
<g id="a_node15"><a xlink:href="structlibMesh_1_1Predicates_1_1level.html" target="_top" xlink:title="libMesh::Predicates\l::level\&lt; T \&gt;">
<polygon fill="white" stroke="black" points="157,-343.5 157,-373.5 269,-373.5 269,-343.5 157,-343.5"/>
<text text-anchor="start" x="165" y="-361.5" font-family="Helvetica,sans-Serif" font-size="10.00">libMesh::Predicates</text>
<text text-anchor="middle" x="213" y="-350.5" font-family="Helvetica,sans-Serif" font-size="10.00">::level&lt; T &gt;</text>
</a>
</g>
</g>
<!-- Node1&#45;&gt;Node15 -->
<g id="edge14" class="edge">
<title>Node1&#45;&gt;Node15</title>
<path fill="none" stroke="midnightblue" d="M93.08,-411.27C109.6,-402.31 129.57,-391.93 148,-383.5 155.59,-380.03 163.82,-376.58 171.76,-373.42"/>
<polygon fill="midnightblue" stroke="midnightblue" points="91.7,-408.03 84.61,-415.9 95.06,-414.17 91.7,-408.03"/>
</g>
<!-- Node17 -->
<g id="node17" class="node">
<title>Node17</title>
<g id="a_node17"><a xlink:href="structlibMesh_1_1Predicates_1_1multi__evaluable.html" target="_top" xlink:title="libMesh::Predicates\l::multi_evaluable\&lt; T \&gt;">
<polygon fill="white" stroke="black" points="148,-294.5 148,-324.5 278,-324.5 278,-294.5 148,-294.5"/>
<text text-anchor="start" x="156" y="-312.5" font-family="Helvetica,sans-Serif" font-size="10.00">libMesh::Predicates</text>
<text text-anchor="middle" x="213" y="-301.5" font-family="Helvetica,sans-Serif" font-size="10.00">::multi_evaluable&lt; T &gt;</text>
</a>
</g>
</g>
<!-- Node1&#45;&gt;Node17 -->
<g id="edge16" class="edge">
<title>Node1&#45;&gt;Node17</title>
<path fill="none" stroke="midnightblue" d="M74.4,-407.58C91.17,-385.98 118.31,-354.59 148,-334.5 153.63,-330.69 159.93,-327.34 166.31,-324.43"/>
<polygon fill="midnightblue" stroke="midnightblue" points="71.62,-405.45 68.37,-415.53 77.2,-409.68 71.62,-405.45"/>
</g>
<!-- Node18 -->
<g id="node18" class="node">
<title>Node18</title>
<g id="a_node18"><a xlink:href="structlibMesh_1_1Predicates_1_1null__neighbor.html" target="_top" xlink:title="libMesh::Predicates\l::null_neighbor\&lt; T \&gt;">
<polygon fill="white" stroke="black" points="154.5,-245.5 154.5,-275.5 271.5,-275.5 271.5,-245.5 154.5,-245.5"/>
<text text-anchor="start" x="162.5" y="-263.5" font-family="Helvetica,sans-Serif" font-size="10.00">libMesh::Predicates</text>
<text text-anchor="middle" x="213" y="-252.5" font-family="Helvetica,sans-Serif" font-size="10.00">::null_neighbor&lt; T &gt;</text>
</a>
</g>
</g>
<!-- Node1&#45;&gt;Node18 -->
<g id="edge17" class="edge">
<title>Node1&#45;&gt;Node18</title>
<path fill="none" stroke="midnightblue" d="M66.62,-406.62C80.21,-374.49 107.92,-318.78 148,-285.5 152.68,-281.61 158.04,-278.28 163.61,-275.44"/>
<polygon fill="midnightblue" stroke="midnightblue" points="63.52,-404.94 62.98,-415.52 70,-407.59 63.52,-404.94"/>
</g>
<!-- Node19 -->
<g id="node19" class="node">
<title>Node19</title>
<g id="a_node19"><a xlink:href="structlibMesh_1_1Predicates_1_1pid.html" target="_top" xlink:title="libMesh::Predicates\l::pid\&lt; T \&gt;">
<polygon fill="white" stroke="black" points="157,-196.5 157,-226.5 269,-226.5 269,-196.5 157,-196.5"/>
<text text-anchor="start" x="165" y="-214.5" font-family="Helvetica,sans-Serif" font-size="10.00">libMesh::Predicates</text>
<text text-anchor="middle" x="213" y="-203.5" font-family="Helvetica,sans-Serif" font-size="10.00">::pid&lt; T &gt;</text>
</a>
</g>
</g>
<!-- Node1&#45;&gt;Node19 -->
<g id="edge18" class="edge">
<title>Node1&#45;&gt;Node19</title>
<path fill="none" stroke="midnightblue" d="M62.52,-405.57C72.58,-364.35 97.65,-283.72 148,-236.5 152.18,-232.58 157.04,-229.26 162.18,-226.44"/>
<polygon fill="midnightblue" stroke="midnightblue" points="59.17,-404.55 60.31,-415.08 65.98,-406.13 59.17,-404.55"/>
</g>
<!-- Node21 -->
<g id="node21" class="node">
<title>Node21</title>
<g id="a_node21"><a xlink:href="structlibMesh_1_1Predicates_1_1semilocal__pid.html" target="_top" xlink:title="libMesh::Predicates\l::semilocal_pid\&lt; T \&gt;">
<polygon fill="white" stroke="black" points="153.5,-147.5 153.5,-177.5 272.5,-177.5 272.5,-147.5 153.5,-147.5"/>
<text text-anchor="start" x="161.5" y="-165.5" font-family="Helvetica,sans-Serif" font-size="10.00">libMesh::Predicates</text>
<text text-anchor="middle" x="213" y="-154.5" font-family="Helvetica,sans-Serif" font-size="10.00">::semilocal_pid&lt; T &gt;</text>
</a>
</g>
</g>
<!-- Node1&#45;&gt;Node21 -->
<g id="edge20" class="edge">
<title>Node1&#45;&gt;Node21</title>
<path fill="none" stroke="midnightblue" d="M59.73,-405.49C66.22,-356.42 86.88,-249.57 148,-187.5 151.85,-183.59 156.38,-180.28 161.23,-177.48"/>
<polygon fill="midnightblue" stroke="midnightblue" points="56.29,-404.8 58.55,-415.15 63.24,-405.65 56.29,-404.8"/>
</g>
<!-- Node22 -->
<g id="node22" class="node">
<title>Node22</title>
<g id="a_node22"><a xlink:href="structlibMesh_1_1Predicates_1_1subactive.html" target="_top" xlink:title="libMesh::Predicates\l::subactive\&lt; T \&gt;">
<polygon fill="white" stroke="black" points="157,-98.5 157,-128.5 269,-128.5 269,-98.5 157,-98.5"/>
<text text-anchor="start" x="165" y="-116.5" font-family="Helvetica,sans-Serif" font-size="10.00">libMesh::Predicates</text>
<text text-anchor="middle" x="213" y="-105.5" font-family="Helvetica,sans-Serif" font-size="10.00">::subactive&lt; T &gt;</text>
</a>
</g>
</g>
<!-- Node1&#45;&gt;Node22 -->
<g id="edge21" class="edge">
<title>Node1&#45;&gt;Node22</title>
<path fill="none" stroke="midnightblue" d="M57.83,-405.1C60.99,-348.78 76.12,-215.69 148,-138.5 151.66,-134.57 156.01,-131.25 160.69,-128.45"/>
<polygon fill="midnightblue" stroke="midnightblue" points="54.34,-404.84 57.37,-414.99 61.33,-405.17 54.34,-404.84"/>
</g>
<!-- Node24 -->
<g id="node24" class="node">
<title>Node24</title>
<g id="a_node24"><a xlink:href="structlibMesh_1_1Predicates_1_1subdomain.html" target="_top" xlink:title="libMesh::Predicates\l::subdomain\&lt; T \&gt;">
<polygon fill="white" stroke="black" points="157,-49.5 157,-79.5 269,-79.5 269,-49.5 157,-49.5"/>
<text text-anchor="start" x="165" y="-67.5" font-family="Helvetica,sans-Serif" font-size="10.00">libMesh::Predicates</text>
<text text-anchor="middle" x="213" y="-56.5" font-family="Helvetica,sans-Serif" font-size="10.00">::subdomain&lt; T &gt;</text>
</a>
</g>
</g>
<!-- Node1&#45;&gt;Node24 -->
<g id="edge23" class="edge">
<title>Node1&#45;&gt;Node24</title>
<path fill="none" stroke="midnightblue" d="M56.4,-405.52C56.37,-343.01 64.91,-182.49 148,-89.5 151.5,-85.59 155.68,-82.28 160.22,-79.49"/>
<polygon fill="midnightblue" stroke="midnightblue" points="52.9,-405.19 56.49,-415.16 59.9,-405.13 52.9,-405.19"/>
</g>
<!-- Node25 -->
<g id="node25" class="node">
<title>Node25</title>
<g id="a_node25"><a xlink:href="structlibMesh_1_1Predicates_1_1subdomain__set.html" target="_top" xlink:title="libMesh::Predicates\l::subdomain_set\&lt; T \&gt;">
<polygon fill="white" stroke="black" points="150.5,-0.5 150.5,-30.5 275.5,-30.5 275.5,-0.5 150.5,-0.5"/>
<text text-anchor="start" x="158.5" y="-18.5" font-family="Helvetica,sans-Serif" font-size="10.00">libMesh::Predicates</text>
<text text-anchor="middle" x="213" y="-7.5" font-family="Helvetica,sans-Serif" font-size="10.00">::subdomain_set&lt; T &gt;</text>
</a>
</g>
</g>
<!-- Node1&#45;&gt;Node25 -->
<g id="edge24" class="edge">
<title>Node1&#45;&gt;Node25</title>
<path fill="none" stroke="midnightblue" d="M59.9,-405.41C69.07,-327.14 99.72,-96.27 148,-40.5 151.44,-36.53 155.58,-33.19 160.09,-30.37"/>
<polygon fill="midnightblue" stroke="midnightblue" points="56.45,-404.77 58.78,-415.11 63.4,-405.57 56.45,-404.77"/>
</g>
<!-- Node3 -->
<g id="node3" class="node">
<title>Node3</title>
<g id="a_node3"><a xlink:href="structlibMesh_1_1Predicates_1_1not__active.html" target="_top" xlink:title="libMesh::Predicates\l::not_active\&lt; T \&gt;">
<polygon fill="white" stroke="black" points="317.5,-833.5 317.5,-863.5 429.5,-863.5 429.5,-833.5 317.5,-833.5"/>
<text text-anchor="start" x="325.5" y="-851.5" font-family="Helvetica,sans-Serif" font-size="10.00">libMesh::Predicates</text>
<text text-anchor="middle" x="373.5" y="-840.5" font-family="Helvetica,sans-Serif" font-size="10.00">::not_active&lt; T &gt;</text>
</a>
</g>
</g>
<!-- Node2&#45;&gt;Node3 -->
<g id="edge2" class="edge">
<title>Node2&#45;&gt;Node3</title>
<path fill="none" stroke="midnightblue" d="M280.25,-848.5C292.69,-848.5 305.56,-848.5 317.61,-848.5"/>
<polygon fill="midnightblue" stroke="midnightblue" points="280.5,-845 270.5,-848.5 280.5,-852 280.5,-845"/>
</g>
<!-- Node5 -->
<g id="node5" class="node">
<title>Node5</title>
<g id="a_node5"><a xlink:href="structlibMesh_1_1Predicates_1_1not__ancestor.html" target="_top" xlink:title="libMesh::Predicates\l::not_ancestor\&lt; T \&gt;">
<polygon fill="white" stroke="black" points="316.5,-784.5 316.5,-814.5 430.5,-814.5 430.5,-784.5 316.5,-784.5"/>
<text text-anchor="start" x="324.5" y="-802.5" font-family="Helvetica,sans-Serif" font-size="10.00">libMesh::Predicates</text>
<text text-anchor="middle" x="373.5" y="-791.5" font-family="Helvetica,sans-Serif" font-size="10.00">::not_ancestor&lt; T &gt;</text>
</a>
</g>
</g>
<!-- Node4&#45;&gt;Node5 -->
<g id="edge4" class="edge">
<title>Node4&#45;&gt;Node5</title>
<path fill="none" stroke="midnightblue" d="M280.36,-799.5C292.4,-799.5 304.84,-799.5 316.53,-799.5"/>
<polygon fill="midnightblue" stroke="midnightblue" points="280.5,-796 270.5,-799.5 280.5,-803 280.5,-796"/>
</g>
<!-- Node14 -->
<g id="node14" class="node">
<title>Node14</title>
<g id="a_node14"><a xlink:href="structlibMesh_1_1Predicates_1_1not__null.html" target="_top" xlink:title="libMesh::Predicates\l::not_null\&lt; T \&gt;">
<polygon fill="white" stroke="black" points="317.5,-392.5 317.5,-422.5 429.5,-422.5 429.5,-392.5 317.5,-392.5"/>
<text text-anchor="start" x="325.5" y="-410.5" font-family="Helvetica,sans-Serif" font-size="10.00">libMesh::Predicates</text>
<text text-anchor="middle" x="373.5" y="-399.5" font-family="Helvetica,sans-Serif" font-size="10.00">::not_null&lt; T &gt;</text>
</a>
</g>
</g>
<!-- Node13&#45;&gt;Node14 -->
<g id="edge13" class="edge">
<title>Node13&#45;&gt;Node14</title>
<path fill="none" stroke="midnightblue" d="M280.25,-407.5C292.69,-407.5 305.56,-407.5 317.61,-407.5"/>
<polygon fill="midnightblue" stroke="midnightblue" points="280.5,-404 270.5,-407.5 280.5,-411 280.5,-404"/>
</g>
<!-- Node16 -->
<g id="node16" class="node">
<title>Node16</title>
<g id="a_node16"><a xlink:href="structlibMesh_1_1Predicates_1_1not__level.html" target="_top" xlink:title="libMesh::Predicates\l::not_level\&lt; T \&gt;">
<polygon fill="white" stroke="black" points="317.5,-343.5 317.5,-373.5 429.5,-373.5 429.5,-343.5 317.5,-343.5"/>
<text text-anchor="start" x="325.5" y="-361.5" font-family="Helvetica,sans-Serif" font-size="10.00">libMesh::Predicates</text>
<text text-anchor="middle" x="373.5" y="-350.5" font-family="Helvetica,sans-Serif" font-size="10.00">::not_level&lt; T &gt;</text>
</a>
</g>
</g>
<!-- Node15&#45;&gt;Node16 -->
<g id="edge15" class="edge">
<title>Node15&#45;&gt;Node16</title>
<path fill="none" stroke="midnightblue" d="M280.25,-358.5C292.69,-358.5 305.56,-358.5 317.61,-358.5"/>
<polygon fill="midnightblue" stroke="midnightblue" points="280.5,-355 270.5,-358.5 280.5,-362 280.5,-355"/>
</g>
<!-- Node20 -->
<g id="node20" class="node">
<title>Node20</title>
<g id="a_node20"><a xlink:href="structlibMesh_1_1Predicates_1_1not__pid.html" target="_top" xlink:title="libMesh::Predicates\l::not_pid\&lt; T \&gt;">
<polygon fill="white" stroke="black" points="317.5,-196.5 317.5,-226.5 429.5,-226.5 429.5,-196.5 317.5,-196.5"/>
<text text-anchor="start" x="325.5" y="-214.5" font-family="Helvetica,sans-Serif" font-size="10.00">libMesh::Predicates</text>
<text text-anchor="middle" x="373.5" y="-203.5" font-family="Helvetica,sans-Serif" font-size="10.00">::not_pid&lt; T &gt;</text>
</a>
</g>
</g>
<!-- Node19&#45;&gt;Node20 -->
<g id="edge19" class="edge">
<title>Node19&#45;&gt;Node20</title>
<path fill="none" stroke="midnightblue" d="M280.25,-211.5C292.69,-211.5 305.56,-211.5 317.61,-211.5"/>
<polygon fill="midnightblue" stroke="midnightblue" points="280.5,-208 270.5,-211.5 280.5,-215 280.5,-208"/>
</g>
<!-- Node23 -->
<g id="node23" class="node">
<title>Node23</title>
<g id="a_node23"><a xlink:href="structlibMesh_1_1Predicates_1_1not__subactive.html" target="_top" xlink:title="libMesh::Predicates\l::not_subactive\&lt; T \&gt;">
<polygon fill="white" stroke="black" points="314,-98.5 314,-128.5 433,-128.5 433,-98.5 314,-98.5"/>
<text text-anchor="start" x="322" y="-116.5" font-family="Helvetica,sans-Serif" font-size="10.00">libMesh::Predicates</text>
<text text-anchor="middle" x="373.5" y="-105.5" font-family="Helvetica,sans-Serif" font-size="10.00">::not_subactive&lt; T &gt;</text>
</a>
</g>
</g>
<!-- Node22&#45;&gt;Node23 -->
<g id="edge22" class="edge">
<title>Node22&#45;&gt;Node23</title>
<path fill="none" stroke="midnightblue" d="M280.47,-113.5C291.64,-113.5 303.15,-113.5 314.1,-113.5"/>
<polygon fill="midnightblue" stroke="midnightblue" points="280.5,-110 270.5,-113.5 280.5,-117 280.5,-110"/>
</g>
</g>
</svg>
