<?xml version="1.0" encoding="UTF-8" standalone="no"?>
<!DOCTYPE svg PUBLIC "-//W3C//DTD SVG 1.1//EN"
 "http://www.w3.org/Graphics/SVG/1.1/DTD/svg11.dtd">
<!-- Generated by graphviz version 7.0.5 (20221231.0122)
 -->
<!-- Title: libMesh::Predicates::boundary_side&lt; T &gt; Pages: 1 -->
<svg width="130pt" height="106pt"
 viewBox="0.00 0.00 130.00 106.00" xmlns="http://www.w3.org/2000/svg" xmlns:xlink="http://www.w3.org/1999/xlink">
<g id="graph0" class="graph" transform="scale(1 1) rotate(0) translate(4 102)">
<title>libMesh::Predicates::boundary_side&lt; T &gt;</title>
<polygon fill="white" stroke="none" points="-4,4 -4,-102 126,-102 126,4 -4,4"/>
<!-- Node1 -->
<g id="node1" class="node">
<title>Node1</title>
<polygon fill="#bfbfbf" stroke="black" points="0,-0.5 0,-30.5 122,-30.5 122,-0.5 0,-0.5"/>
<text text-anchor="start" x="8" y="-18.5" font-family="Helvetica,sans-Serif" font-size="10.00">libMesh::Predicates</text>
<text text-anchor="middle" x="61" y="-7.5" font-family="Helvetica,sans-Serif" font-size="10.00">::boundary_side&lt; T &gt;</text>
</g>
<!-- Node2 -->
<g id="node2" class="node">
<title>Node2</title>
<g id="a_node2"><a xlink:href="structlibMesh_1_1Predicates_1_1predicate.html" target="_top" xlink:title="libMesh::Predicates\l::predicate\&lt; T \&gt;">
<polygon fill="white" stroke="black" points="5,-67.5 5,-97.5 117,-97.5 117,-67.5 5,-67.5"/>
<text text-anchor="start" x="13" y="-85.5" font-family="Helvetica,sans-Serif" font-size="10.00">libMesh::Predicates</text>
<text text-anchor="middle" x="61" y="-74.5" font-family="Helvetica,sans-Serif" font-size="10.00">::predicate&lt; T &gt;</text>
</a>
</g>
</g>
<!-- Node2&#45;&gt;Node1 -->
<g id="edge1" class="edge">
<title>Node2&#45;&gt;Node1</title>
<path fill="none" stroke="midnightblue" d="M61,-56.36C61,-47.49 61,-37.84 61,-30.26"/>
<polygon fill="midnightblue" stroke="midnightblue" points="57.5,-56.2 61,-66.2 64.5,-56.2 57.5,-56.2"/>
</g>
</g>
</svg>
