<?xml version="1.0" encoding="UTF-8" standalone="no"?>
<!DOCTYPE svg PUBLIC "-//W3C//DTD SVG 1.1//EN"
 "http://www.w3.org/Graphics/SVG/1.1/DTD/svg11.dtd">
<!-- Generated by graphviz version 7.0.5 (20221231.0122)
 -->
<!-- Title: libMesh::Predicates::ActiveLocalSubdomainSet&lt; T &gt; Pages: 1 -->
<svg width="186pt" height="173pt"
 viewBox="0.00 0.00 186.00 173.00" xmlns="http://www.w3.org/2000/svg" xmlns:xlink="http://www.w3.org/1999/xlink">
<g id="graph0" class="graph" transform="scale(1 1) rotate(0) translate(4 169)">
<title>libMesh::Predicates::ActiveLocalSubdomainSet&lt; T &gt;</title>
<polygon fill="white" stroke="none" points="-4,4 -4,-169 182,-169 182,4 -4,4"/>
<!-- Node1 -->
<g id="node1" class="node">
<title>Node1</title>
<polygon fill="#bfbfbf" stroke="black" points="0,-0.5 0,-30.5 178,-30.5 178,-0.5 0,-0.5"/>
<text text-anchor="start" x="8" y="-18.5" font-family="Helvetica,sans-Serif" font-size="10.00">libMesh::Predicates</text>
<text text-anchor="middle" x="89" y="-7.5" font-family="Helvetica,sans-Serif" font-size="10.00">::ActiveLocalSubdomainSet&lt; T &gt;</text>
</g>
<!-- Node2 -->
<g id="node2" class="node">
<title>Node2</title>
<g id="a_node2"><a xlink:href="structlibMesh_1_1Predicates_1_1abstract__multi__predicate.html" target="_top" xlink:title="libMesh::Predicates\l::abstract_multi_predicate\&lt; T \&gt;">
<polygon fill="white" stroke="black" points="2.5,-67.5 2.5,-97.5 175.5,-97.5 175.5,-67.5 2.5,-67.5"/>
<text text-anchor="start" x="10.5" y="-85.5" font-family="Helvetica,sans-Serif" font-size="10.00">libMesh::Predicates</text>
<text text-anchor="middle" x="89" y="-74.5" font-family="Helvetica,sans-Serif" font-size="10.00">::abstract_multi_predicate&lt; T &gt;</text>
</a>
</g>
</g>
<!-- Node2&#45;&gt;Node1 -->
<g id="edge1" class="edge">
<title>Node2&#45;&gt;Node1</title>
<path fill="none" stroke="midnightblue" d="M89,-56.36C89,-47.49 89,-37.84 89,-30.26"/>
<polygon fill="midnightblue" stroke="midnightblue" points="85.5,-56.2 89,-66.2 92.5,-56.2 85.5,-56.2"/>
</g>
<!-- Node3 -->
<g id="node3" class="node">
<title>Node3</title>
<g id="a_node3"><a xlink:href="structlibMesh_1_1Predicates_1_1multi__predicate.html" target="_top" xlink:title="libMesh::Predicates\l::multi_predicate">
<polygon fill="white" stroke="black" points="33,-134.5 33,-164.5 145,-164.5 145,-134.5 33,-134.5"/>
<text text-anchor="start" x="41" y="-152.5" font-family="Helvetica,sans-Serif" font-size="10.00">libMesh::Predicates</text>
<text text-anchor="middle" x="89" y="-141.5" font-family="Helvetica,sans-Serif" font-size="10.00">::multi_predicate</text>
</a>
</g>
</g>
<!-- Node3&#45;&gt;Node2 -->
<g id="edge2" class="edge">
<title>Node3&#45;&gt;Node2</title>
<path fill="none" stroke="midnightblue" d="M89,-123.36C89,-114.49 89,-104.84 89,-97.26"/>
<polygon fill="midnightblue" stroke="midnightblue" points="85.5,-123.2 89,-133.2 92.5,-123.2 85.5,-123.2"/>
</g>
</g>
</svg>
