<?xml version="1.0" encoding="UTF-8" standalone="no"?>
<!DOCTYPE svg PUBLIC "-//W3C//DTD SVG 1.1//EN"
 "http://www.w3.org/Graphics/SVG/1.1/DTD/svg11.dtd">
<!-- Generated by graphviz version 7.0.5 (20221231.0122)
 -->
<!-- Title: libMesh::Predicates::ancestor&lt; T &gt; Pages: 1 -->
<svg width="122pt" height="173pt"
 viewBox="0.00 0.00 122.00 173.00" xmlns="http://www.w3.org/2000/svg" xmlns:xlink="http://www.w3.org/1999/xlink">
<g id="graph0" class="graph" transform="scale(1 1) rotate(0) translate(4 169)">
<title>libMesh::Predicates::ancestor&lt; T &gt;</title>
<polygon fill="white" stroke="none" points="-4,4 -4,-169 118,-169 118,4 -4,4"/>
<!-- Node1 -->
<g id="node1" class="node">
<title>Node1</title>
<polygon fill="#bfbfbf" stroke="black" points="1,-67.5 1,-97.5 113,-97.5 113,-67.5 1,-67.5"/>
<text text-anchor="start" x="9" y="-85.5" font-family="Helvetica,sans-Serif" font-size="10.00">libMesh::Predicates</text>
<text text-anchor="middle" x="57" y="-74.5" font-family="Helvetica,sans-Serif" font-size="10.00">::ancestor&lt; T &gt;</text>
</g>
<!-- Node3 -->
<g id="node3" class="node">
<title>Node3</title>
<g id="a_node3"><a xlink:href="structlibMesh_1_1Predicates_1_1not__ancestor.html" target="_top" xlink:title="libMesh::Predicates\l::not_ancestor\&lt; T \&gt;">
<polygon fill="white" stroke="black" points="0,-0.5 0,-30.5 114,-30.5 114,-0.5 0,-0.5"/>
<text text-anchor="start" x="8" y="-18.5" font-family="Helvetica,sans-Serif" font-size="10.00">libMesh::Predicates</text>
<text text-anchor="middle" x="57" y="-7.5" font-family="Helvetica,sans-Serif" font-size="10.00">::not_ancestor&lt; T &gt;</text>
</a>
</g>
</g>
<!-- Node1&#45;&gt;Node3 -->
<g id="edge2" class="edge">
<title>Node1&#45;&gt;Node3</title>
<path fill="none" stroke="midnightblue" d="M57,-56.36C57,-47.49 57,-37.84 57,-30.26"/>
<polygon fill="midnightblue" stroke="midnightblue" points="53.5,-56.2 57,-66.2 60.5,-56.2 53.5,-56.2"/>
</g>
<!-- Node2 -->
<g id="node2" class="node">
<title>Node2</title>
<g id="a_node2"><a xlink:href="structlibMesh_1_1Predicates_1_1predicate.html" target="_top" xlink:title="libMesh::Predicates\l::predicate\&lt; T \&gt;">
<polygon fill="white" stroke="black" points="1,-134.5 1,-164.5 113,-164.5 113,-134.5 1,-134.5"/>
<text text-anchor="start" x="9" y="-152.5" font-family="Helvetica,sans-Serif" font-size="10.00">libMesh::Predicates</text>
<text text-anchor="middle" x="57" y="-141.5" font-family="Helvetica,sans-Serif" font-size="10.00">::predicate&lt; T &gt;</text>
</a>
</g>
</g>
<!-- Node2&#45;&gt;Node1 -->
<g id="edge1" class="edge">
<title>Node2&#45;&gt;Node1</title>
<path fill="none" stroke="midnightblue" d="M57,-123.36C57,-114.49 57,-104.84 57,-97.26"/>
<polygon fill="midnightblue" stroke="midnightblue" points="53.5,-123.2 57,-133.2 60.5,-123.2 53.5,-123.2"/>
</g>
</g>
</svg>
