<?xml version="1.0" encoding="UTF-8" standalone="no"?>
<!DOCTYPE svg PUBLIC "-//W3C//DTD SVG 1.1//EN"
 "http://www.w3.org/Graphics/SVG/1.1/DTD/svg11.dtd">
<!-- Generated by graphviz version 7.0.5 (20221231.0122)
 -->
<!-- Title: libMesh::Predicates::multi_predicate Pages: 1 -->
<svg width="543pt" height="1754pt"
 viewBox="0.00 0.00 543.00 1754.00" xmlns="http://www.w3.org/2000/svg" xmlns:xlink="http://www.w3.org/1999/xlink">
<g id="graph0" class="graph" transform="scale(1 1) rotate(0) translate(4 1750)">
<title>libMesh::Predicates::multi_predicate</title>
<polygon fill="white" stroke="none" points="-4,4 -4,-1750 539,-1750 539,4 -4,4"/>
<!-- Node1 -->
<g id="node1" class="node">
<title>Node1</title>
<polygon fill="#bfbfbf" stroke="black" points="0,-857.5 0,-887.5 112,-887.5 112,-857.5 0,-857.5"/>
<text text-anchor="start" x="8" y="-875.5" font-family="Helvetica,sans-Serif" font-size="10.00">libMesh::Predicates</text>
<text text-anchor="middle" x="56" y="-864.5" font-family="Helvetica,sans-Serif" font-size="10.00">::multi_predicate</text>
</g>
<!-- Node2 -->
<g id="node2" class="node">
<title>Node2</title>
<g id="a_node2"><a xlink:href="structlibMesh_1_1Predicates_1_1abstract__multi__predicate.html" target="_top" xlink:title="libMesh::Predicates\l::abstract_multi_predicate\&lt; T \&gt;">
<polygon fill="white" stroke="black" points="148,-857.5 148,-887.5 321,-887.5 321,-857.5 148,-857.5"/>
<text text-anchor="start" x="156" y="-875.5" font-family="Helvetica,sans-Serif" font-size="10.00">libMesh::Predicates</text>
<text text-anchor="middle" x="234.5" y="-864.5" font-family="Helvetica,sans-Serif" font-size="10.00">::abstract_multi_predicate&lt; T &gt;</text>
</a>
</g>
</g>
<!-- Node1&#45;&gt;Node2 -->
<g id="edge1" class="edge">
<title>Node1&#45;&gt;Node2</title>
<path fill="none" stroke="midnightblue" d="M123.21,-872.5C131.37,-872.5 139.8,-872.5 148.19,-872.5"/>
<polygon fill="midnightblue" stroke="midnightblue" points="123.39,-869 113.39,-872.5 123.39,-876 123.39,-869"/>
</g>
<!-- Node3 -->
<g id="node3" class="node">
<title>Node3</title>
<g id="a_node3"><a xlink:href="structlibMesh_1_1Predicates_1_1Active.html" target="_top" xlink:title="Used to iterate over non&#45;nullptr, active entries in a container. ">
<polygon fill="white" stroke="black" points="390,-1715.5 390,-1745.5 502,-1745.5 502,-1715.5 390,-1715.5"/>
<text text-anchor="start" x="398" y="-1733.5" font-family="Helvetica,sans-Serif" font-size="10.00">libMesh::Predicates</text>
<text text-anchor="middle" x="446" y="-1722.5" font-family="Helvetica,sans-Serif" font-size="10.00">::Active&lt; T &gt;</text>
</a>
</g>
</g>
<!-- Node2&#45;&gt;Node3 -->
<g id="edge2" class="edge">
<title>Node2&#45;&gt;Node3</title>
<path fill="none" stroke="midnightblue" d="M235.6,-898.71C236.6,-1026.43 247.3,-1582.58 357,-1706.5 365.61,-1716.22 377.73,-1722.18 390.23,-1725.78"/>
<polygon fill="midnightblue" stroke="midnightblue" points="239.1,-898.89 235.53,-888.92 232.1,-898.94 239.1,-898.89"/>
</g>
<!-- Node4 -->
<g id="node4" class="node">
<title>Node4</title>
<g id="a_node4"><a xlink:href="structlibMesh_1_1Predicates_1_1ActiveLocal.html" target="_top" xlink:title="Used to iterate over non&#45;nullptr, active, local elements owned by a given processor. ">
<polygon fill="white" stroke="black" points="390,-1666.5 390,-1696.5 502,-1696.5 502,-1666.5 390,-1666.5"/>
<text text-anchor="start" x="398" y="-1684.5" font-family="Helvetica,sans-Serif" font-size="10.00">libMesh::Predicates</text>
<text text-anchor="middle" x="446" y="-1673.5" font-family="Helvetica,sans-Serif" font-size="10.00">::ActiveLocal&lt; T &gt;</text>
</a>
</g>
</g>
<!-- Node2&#45;&gt;Node4 -->
<g id="edge3" class="edge">
<title>Node2&#45;&gt;Node4</title>
<path fill="none" stroke="midnightblue" d="M235.86,-898.72C238.08,-1021.87 253.53,-1541.66 357,-1657.5 365.65,-1667.18 377.79,-1673.13 390.29,-1676.73"/>
<polygon fill="midnightblue" stroke="midnightblue" points="239.36,-898.92 235.7,-888.98 232.36,-899.04 239.36,-898.92"/>
</g>
<!-- Node5 -->
<g id="node5" class="node">
<title>Node5</title>
<g id="a_node5"><a xlink:href="structlibMesh_1_1Predicates_1_1ActiveLocalSubdomain.html" target="_top" xlink:title="Used to iterate over non&#45;nullptr, active elements with a given PID on a given subdomain. ">
<polygon fill="white" stroke="black" points="365,-1617.5 365,-1647.5 527,-1647.5 527,-1617.5 365,-1617.5"/>
<text text-anchor="start" x="373" y="-1635.5" font-family="Helvetica,sans-Serif" font-size="10.00">libMesh::Predicates</text>
<text text-anchor="middle" x="446" y="-1624.5" font-family="Helvetica,sans-Serif" font-size="10.00">::ActiveLocalSubdomain&lt; T &gt;</text>
</a>
</g>
</g>
<!-- Node2&#45;&gt;Node5 -->
<g id="edge4" class="edge">
<title>Node2&#45;&gt;Node5</title>
<path fill="none" stroke="midnightblue" d="M236.16,-898.94C239.67,-1017.71 259.8,-1500.77 357,-1608.5 360.18,-1612.03 363.83,-1615.06 367.78,-1617.66"/>
<polygon fill="midnightblue" stroke="midnightblue" points="239.66,-898.86 235.88,-888.96 232.66,-899.05 239.66,-898.86"/>
</g>
<!-- Node6 -->
<g id="node6" class="node">
<title>Node6</title>
<g id="a_node6"><a xlink:href="structlibMesh_1_1Predicates_1_1ActiveLocalSubdomainSet.html" target="_top" xlink:title="Used to iterate over non&#45;nullptr, active elements with a given PID whose subdomains are in a user&#45;spe...">
<polygon fill="white" stroke="black" points="357,-1568.5 357,-1598.5 535,-1598.5 535,-1568.5 357,-1568.5"/>
<text text-anchor="start" x="365" y="-1586.5" font-family="Helvetica,sans-Serif" font-size="10.00">libMesh::Predicates</text>
<text text-anchor="middle" x="446" y="-1575.5" font-family="Helvetica,sans-Serif" font-size="10.00">::ActiveLocalSubdomainSet&lt; T &gt;</text>
</a>
</g>
</g>
<!-- Node2&#45;&gt;Node6 -->
<g id="edge5" class="edge">
<title>Node2&#45;&gt;Node6</title>
<path fill="none" stroke="midnightblue" d="M236.49,-898.63C241.3,-1011.94 265.9,-1459.69 357,-1559.5 360.2,-1563.01 363.86,-1566.03 367.83,-1568.62"/>
<polygon fill="midnightblue" stroke="midnightblue" points="239.99,-898.69 236.09,-888.84 233,-898.97 239.99,-898.69"/>
</g>
<!-- Node7 -->
<g id="node7" class="node">
<title>Node7</title>
<g id="a_node7"><a xlink:href="structlibMesh_1_1Predicates_1_1ActiveNotLocal.html" target="_top" xlink:title="Used to iterate over non&#45;nullptr, active, non&#45;local entries in a container. ">
<polygon fill="white" stroke="black" points="383.5,-1519.5 383.5,-1549.5 508.5,-1549.5 508.5,-1519.5 383.5,-1519.5"/>
<text text-anchor="start" x="391.5" y="-1537.5" font-family="Helvetica,sans-Serif" font-size="10.00">libMesh::Predicates</text>
<text text-anchor="middle" x="446" y="-1526.5" font-family="Helvetica,sans-Serif" font-size="10.00">::ActiveNotLocal&lt; T &gt;</text>
</a>
</g>
</g>
<!-- Node2&#45;&gt;Node7 -->
<g id="edge6" class="edge">
<title>Node2&#45;&gt;Node7</title>
<path fill="none" stroke="midnightblue" d="M236.89,-898.82C243.13,-1007.34 272.13,-1418.73 357,-1510.5 364.2,-1518.29 373.66,-1523.65 383.71,-1527.31"/>
<polygon fill="midnightblue" stroke="midnightblue" points="240.39,-898.69 236.33,-888.9 233.4,-899.08 240.39,-898.69"/>
</g>
<!-- Node8 -->
<g id="node8" class="node">
<title>Node8</title>
<g id="a_node8"><a xlink:href="structlibMesh_1_1Predicates_1_1ActiveOnBoundary.html" target="_top" xlink:title="Used to iterate over non&#45;nullptr, active elements which are on the boundary. ">
<polygon fill="white" stroke="black" points="375,-1470.5 375,-1500.5 517,-1500.5 517,-1470.5 375,-1470.5"/>
<text text-anchor="start" x="383" y="-1488.5" font-family="Helvetica,sans-Serif" font-size="10.00">libMesh::Predicates</text>
<text text-anchor="middle" x="446" y="-1477.5" font-family="Helvetica,sans-Serif" font-size="10.00">::ActiveOnBoundary&lt; T &gt;</text>
</a>
</g>
</g>
<!-- Node2&#45;&gt;Node8 -->
<g id="edge7" class="edge">
<title>Node2&#45;&gt;Node8</title>
<path fill="none" stroke="midnightblue" d="M237.34,-898.76C245.06,-1001.9 278.27,-1377.66 357,-1461.5 362.2,-1467.04 368.55,-1471.35 375.43,-1474.69"/>
<polygon fill="midnightblue" stroke="midnightblue" points="240.83,-898.55 236.61,-888.83 233.85,-899.06 240.83,-898.55"/>
</g>
<!-- Node9 -->
<g id="node9" class="node">
<title>Node9</title>
<g id="a_node9"><a xlink:href="structlibMesh_1_1Predicates_1_1ActivePID.html" target="_top" xlink:title="Used to iterate over non&#45;nullptr, active elements owned by a given processor. ">
<polygon fill="white" stroke="black" points="390,-1421.5 390,-1451.5 502,-1451.5 502,-1421.5 390,-1421.5"/>
<text text-anchor="start" x="398" y="-1439.5" font-family="Helvetica,sans-Serif" font-size="10.00">libMesh::Predicates</text>
<text text-anchor="middle" x="446" y="-1428.5" font-family="Helvetica,sans-Serif" font-size="10.00">::ActivePID&lt; T &gt;</text>
</a>
</g>
</g>
<!-- Node2&#45;&gt;Node9 -->
<g id="edge8" class="edge">
<title>Node2&#45;&gt;Node9</title>
<path fill="none" stroke="midnightblue" d="M237.87,-898.76C247.18,-996.37 284.4,-1336.56 357,-1412.5 365.86,-1421.77 377.93,-1427.58 390.28,-1431.19"/>
<polygon fill="midnightblue" stroke="midnightblue" points="241.36,-898.5 236.94,-888.87 234.39,-899.15 241.36,-898.5"/>
</g>
<!-- Node10 -->
<g id="node10" class="node">
<title>Node10</title>
<g id="a_node10"><a xlink:href="structlibMesh_1_1Predicates_1_1ActiveSemiLocal.html" target="_top" xlink:title="Used to iterate over non&#45;nullptr, semi&#45;local entries (i.e. ">
<polygon fill="white" stroke="black" points="380,-1372.5 380,-1402.5 512,-1402.5 512,-1372.5 380,-1372.5"/>
<text text-anchor="start" x="388" y="-1390.5" font-family="Helvetica,sans-Serif" font-size="10.00">libMesh::Predicates</text>
<text text-anchor="middle" x="446" y="-1379.5" font-family="Helvetica,sans-Serif" font-size="10.00">::ActiveSemiLocal&lt; T &gt;</text>
</a>
</g>
</g>
<!-- Node2&#45;&gt;Node10 -->
<g id="edge9" class="edge">
<title>Node2&#45;&gt;Node10</title>
<path fill="none" stroke="midnightblue" d="M238.46,-898.44C249.41,-989.87 290.42,-1295.33 357,-1363.5 363.42,-1370.07 371.44,-1374.9 380.02,-1378.43"/>
<polygon fill="midnightblue" stroke="midnightblue" points="241.96,-898.26 237.32,-888.73 235.01,-899.07 241.96,-898.26"/>
</g>
<!-- Node11 -->
<g id="node11" class="node">
<title>Node11</title>
<g id="a_node11"><a xlink:href="structlibMesh_1_1Predicates_1_1ActiveSubdomain.html" target="_top" xlink:title="Used to iterate over non&#45;nullptr, active elements on a given subdomain. ">
<polygon fill="white" stroke="black" points="377.5,-1323.5 377.5,-1353.5 514.5,-1353.5 514.5,-1323.5 377.5,-1323.5"/>
<text text-anchor="start" x="385.5" y="-1341.5" font-family="Helvetica,sans-Serif" font-size="10.00">libMesh::Predicates</text>
<text text-anchor="middle" x="446" y="-1330.5" font-family="Helvetica,sans-Serif" font-size="10.00">::ActiveSubdomain&lt; T &gt;</text>
</a>
</g>
</g>
<!-- Node2&#45;&gt;Node11 -->
<g id="edge10" class="edge">
<title>Node2&#45;&gt;Node11</title>
<path fill="none" stroke="midnightblue" d="M239.2,-898.31C251.93,-983.56 296.47,-1254.09 357,-1314.5 362.83,-1320.32 369.92,-1324.76 377.52,-1328.15"/>
<polygon fill="midnightblue" stroke="midnightblue" points="242.7,-898.01 237.78,-888.63 235.77,-899.03 242.7,-898.01"/>
</g>
<!-- Node12 -->
<g id="node12" class="node">
<title>Node12</title>
<g id="a_node12"><a xlink:href="structlibMesh_1_1Predicates_1_1ActiveSubdomainSet.html" target="_top" xlink:title="Used to iterate over non&#45;nullptr, active elements whose subdomains are in a user&#45;specified set...">
<polygon fill="white" stroke="black" points="370,-1274.5 370,-1304.5 522,-1304.5 522,-1274.5 370,-1274.5"/>
<text text-anchor="start" x="378" y="-1292.5" font-family="Helvetica,sans-Serif" font-size="10.00">libMesh::Predicates</text>
<text text-anchor="middle" x="446" y="-1281.5" font-family="Helvetica,sans-Serif" font-size="10.00">::ActiveSubdomainSet&lt; T &gt;</text>
</a>
</g>
</g>
<!-- Node2&#45;&gt;Node12 -->
<g id="edge11" class="edge">
<title>Node2&#45;&gt;Node12</title>
<path fill="none" stroke="midnightblue" d="M235.46,-898.34C236.81,-968.2 250.45,-1162.47 357,-1265.5 360.98,-1269.35 365.52,-1272.6 370.39,-1275.34"/>
<polygon fill="midnightblue" stroke="midnightblue" points="238.96,-898.62 235.35,-888.66 231.96,-898.7 238.96,-898.62"/>
</g>
<!-- Node13 -->
<g id="node13" class="node">
<title>Node13</title>
<g id="a_node13"><a xlink:href="structlibMesh_1_1Predicates_1_1ActiveType.html" target="_top" xlink:title="Used to iterate over non&#45;nullptr, active elements of a given geometric type. ">
<polygon fill="white" stroke="black" points="390,-1225.5 390,-1255.5 502,-1255.5 502,-1225.5 390,-1225.5"/>
<text text-anchor="start" x="398" y="-1243.5" font-family="Helvetica,sans-Serif" font-size="10.00">libMesh::Predicates</text>
<text text-anchor="middle" x="446" y="-1232.5" font-family="Helvetica,sans-Serif" font-size="10.00">::ActiveType&lt; T &gt;</text>
</a>
</g>
</g>
<!-- Node2&#45;&gt;Node13 -->
<g id="edge12" class="edge">
<title>Node2&#45;&gt;Node13</title>
<path fill="none" stroke="midnightblue" d="M236.79,-898.51C241.41,-962.48 262.39,-1128.58 357,-1216.5 366.16,-1225.02 378.05,-1230.56 390.11,-1234.16"/>
<polygon fill="midnightblue" stroke="midnightblue" points="240.29,-898.41 236.17,-888.65 233.31,-898.85 240.29,-898.41"/>
</g>
<!-- Node14 -->
<g id="node14" class="node">
<title>Node14</title>
<g id="a_node14"><a xlink:href="structlibMesh_1_1Predicates_1_1Ancestor.html" target="_top" xlink:title="Used to iterate over non&#45;nullptr, entries that have children (i.e. ">
<polygon fill="white" stroke="black" points="390,-1176.5 390,-1206.5 502,-1206.5 502,-1176.5 390,-1176.5"/>
<text text-anchor="start" x="398" y="-1194.5" font-family="Helvetica,sans-Serif" font-size="10.00">libMesh::Predicates</text>
<text text-anchor="middle" x="446" y="-1183.5" font-family="Helvetica,sans-Serif" font-size="10.00">::Ancestor&lt; T &gt;</text>
</a>
</g>
</g>
<!-- Node2&#45;&gt;Node14 -->
<g id="edge13" class="edge">
<title>Node2&#45;&gt;Node14</title>
<path fill="none" stroke="midnightblue" d="M238.55,-898.69C246.68,-956.25 274.21,-1094.42 357,-1167.5 366.38,-1175.78 378.35,-1181.23 390.42,-1184.82"/>
<polygon fill="midnightblue" stroke="midnightblue" points="242.04,-898.34 237.26,-888.88 235.1,-899.25 242.04,-898.34"/>
</g>
<!-- Node15 -->
<g id="node15" class="node">
<title>Node15</title>
<g id="a_node15"><a xlink:href="structlibMesh_1_1Predicates_1_1BID.html" target="_top" xlink:title="Used to iterate over non&#45;nullptr elements on the boundary with a given ID. ">
<polygon fill="white" stroke="black" points="390,-1127.5 390,-1157.5 502,-1157.5 502,-1127.5 390,-1127.5"/>
<text text-anchor="start" x="398" y="-1145.5" font-family="Helvetica,sans-Serif" font-size="10.00">libMesh::Predicates</text>
<text text-anchor="middle" x="446" y="-1134.5" font-family="Helvetica,sans-Serif" font-size="10.00">::BID&lt; T &gt;</text>
</a>
</g>
</g>
<!-- Node2&#45;&gt;Node15 -->
<g id="edge14" class="edge">
<title>Node2&#45;&gt;Node15</title>
<path fill="none" stroke="midnightblue" d="M240.88,-898.46C252.68,-948.76 285.68,-1059.74 357,-1118.5 366.53,-1126.35 378.43,-1131.65 390.36,-1135.22"/>
<polygon fill="midnightblue" stroke="midnightblue" points="244.31,-897.78 238.71,-888.79 237.48,-899.31 244.31,-897.78"/>
</g>
<!-- Node16 -->
<g id="node16" class="node">
<title>Node16</title>
<g id="a_node16"><a xlink:href="structlibMesh_1_1Predicates_1_1BND.html" target="_top" xlink:title="Used to iterate over non&#45;nullptr elements on the boundary. ">
<polygon fill="white" stroke="black" points="390,-1078.5 390,-1108.5 502,-1108.5 502,-1078.5 390,-1078.5"/>
<text text-anchor="start" x="398" y="-1096.5" font-family="Helvetica,sans-Serif" font-size="10.00">libMesh::Predicates</text>
<text text-anchor="middle" x="446" y="-1085.5" font-family="Helvetica,sans-Serif" font-size="10.00">::BND&lt; T &gt;</text>
</a>
</g>
</g>
<!-- Node2&#45;&gt;Node16 -->
<g id="edge15" class="edge">
<title>Node2&#45;&gt;Node16</title>
<path fill="none" stroke="midnightblue" d="M244.13,-897.96C259.76,-940.19 296.85,-1024.51 357,-1069.5 366.76,-1076.8 378.62,-1081.88 390.42,-1085.42"/>
<polygon fill="midnightblue" stroke="midnightblue" points="247.46,-896.89 240.79,-888.66 240.87,-899.25 247.46,-896.89"/>
</g>
<!-- Node17 -->
<g id="node17" class="node">
<title>Node17</title>
<g id="a_node17"><a xlink:href="structlibMesh_1_1Predicates_1_1BoundarySide.html" target="_top" xlink:title="Used to iterate over the sides of an element which are on the boundary of the Mesh. ">
<polygon fill="white" stroke="black" points="386.5,-1029.5 386.5,-1059.5 505.5,-1059.5 505.5,-1029.5 386.5,-1029.5"/>
<text text-anchor="start" x="394.5" y="-1047.5" font-family="Helvetica,sans-Serif" font-size="10.00">libMesh::Predicates</text>
<text text-anchor="middle" x="446" y="-1036.5" font-family="Helvetica,sans-Serif" font-size="10.00">::BoundarySide&lt; T &gt;</text>
</a>
</g>
</g>
<!-- Node2&#45;&gt;Node17 -->
<g id="edge16" class="edge">
<title>Node2&#45;&gt;Node17</title>
<path fill="none" stroke="midnightblue" d="M249.01,-897.02C268.5,-930.1 307.65,-988.53 357,-1020.5 366.04,-1026.35 376.48,-1030.79 386.95,-1034.15"/>
<polygon fill="midnightblue" stroke="midnightblue" points="252.16,-895.48 244.14,-888.55 246.09,-898.97 252.16,-895.48"/>
</g>
<!-- Node18 -->
<g id="node18" class="node">
<title>Node18</title>
<g id="a_node18"><a xlink:href="structlibMesh_1_1Predicates_1_1Evaluable.html" target="_top" xlink:title="Used to iterate over elements where solutions indexed by a given DofMap are evaluable for a given var...">
<polygon fill="white" stroke="black" points="390,-980.5 390,-1010.5 502,-1010.5 502,-980.5 390,-980.5"/>
<text text-anchor="start" x="398" y="-998.5" font-family="Helvetica,sans-Serif" font-size="10.00">libMesh::Predicates</text>
<text text-anchor="middle" x="446" y="-987.5" font-family="Helvetica,sans-Serif" font-size="10.00">::Evaluable&lt; T &gt;</text>
</a>
</g>
</g>
<!-- Node2&#45;&gt;Node18 -->
<g id="edge17" class="edge">
<title>Node2&#45;&gt;Node18</title>
<path fill="none" stroke="midnightblue" d="M257.4,-895.22C280.27,-917.69 318.16,-951.53 357,-971.5 367.28,-976.79 378.85,-981.01 390.15,-984.35"/>
<polygon fill="midnightblue" stroke="midnightblue" points="260.01,-892.88 250.47,-888.28 255.06,-897.83 260.01,-892.88"/>
</g>
<!-- Node19 -->
<g id="node19" class="node">
<title>Node19</title>
<g id="a_node19"><a xlink:href="structlibMesh_1_1Predicates_1_1FaceLocal.html" target="_top" xlink:title="Used to iterate over non&#45;nullptr, face&#45;local entries (i.e. ">
<polygon fill="white" stroke="black" points="390,-931.5 390,-961.5 502,-961.5 502,-931.5 390,-931.5"/>
<text text-anchor="start" x="398" y="-949.5" font-family="Helvetica,sans-Serif" font-size="10.00">libMesh::Predicates</text>
<text text-anchor="middle" x="446" y="-938.5" font-family="Helvetica,sans-Serif" font-size="10.00">::FaceLocal&lt; T &gt;</text>
</a>
</g>
</g>
<!-- Node2&#45;&gt;Node19 -->
<g id="edge18" class="edge">
<title>Node2&#45;&gt;Node19</title>
<path fill="none" stroke="midnightblue" d="M279.02,-891.95C301.96,-901.8 330.72,-913.55 357,-922.5 367.64,-926.13 379.15,-929.59 390.23,-932.69"/>
<polygon fill="midnightblue" stroke="midnightblue" points="280.55,-888.8 269.98,-888.03 277.77,-895.22 280.55,-888.8"/>
</g>
<!-- Node20 -->
<g id="node20" class="node">
<title>Node20</title>
<g id="a_node20"><a xlink:href="structlibMesh_1_1Predicates_1_1Flagged.html" target="_top" xlink:title="Used to iterate over non&#45;nullptr, elements with a given refinement flag. ">
<polygon fill="white" stroke="black" points="390,-882.5 390,-912.5 502,-912.5 502,-882.5 390,-882.5"/>
<text text-anchor="start" x="398" y="-900.5" font-family="Helvetica,sans-Serif" font-size="10.00">libMesh::Predicates</text>
<text text-anchor="middle" x="446" y="-889.5" font-family="Helvetica,sans-Serif" font-size="10.00">::Flagged&lt; T &gt;</text>
</a>
</g>
</g>
<!-- Node2&#45;&gt;Node20 -->
<g id="edge19" class="edge">
<title>Node2&#45;&gt;Node20</title>
<path fill="none" stroke="midnightblue" d="M332.06,-884.02C352.01,-886.4 372.37,-888.83 390.2,-890.96"/>
<polygon fill="midnightblue" stroke="midnightblue" points="332.56,-880.56 322.21,-882.85 331.73,-887.51 332.56,-880.56"/>
</g>
<!-- Node21 -->
<g id="node21" class="node">
<title>Node21</title>
<g id="a_node21"><a xlink:href="structlibMesh_1_1Predicates_1_1FlaggedPID.html" target="_top" xlink:title="Used to iterate over non&#45;nullptr, elements with a given refinement flag belonging to a given processo...">
<polygon fill="white" stroke="black" points="390,-833.5 390,-863.5 502,-863.5 502,-833.5 390,-833.5"/>
<text text-anchor="start" x="398" y="-851.5" font-family="Helvetica,sans-Serif" font-size="10.00">libMesh::Predicates</text>
<text text-anchor="middle" x="446" y="-840.5" font-family="Helvetica,sans-Serif" font-size="10.00">::FlaggedPID&lt; T &gt;</text>
</a>
</g>
</g>
<!-- Node2&#45;&gt;Node21 -->
<g id="edge20" class="edge">
<title>Node2&#45;&gt;Node21</title>
<path fill="none" stroke="midnightblue" d="M332.06,-861.44C352.01,-859.15 372.37,-856.82 390.2,-854.78"/>
<polygon fill="midnightblue" stroke="midnightblue" points="331.75,-857.95 322.22,-862.57 332.55,-864.91 331.75,-857.95"/>
</g>
<!-- Node22 -->
<g id="node22" class="node">
<title>Node22</title>
<g id="a_node22"><a xlink:href="structlibMesh_1_1Predicates_1_1Ghost.html" target="_top" xlink:title="Used to iterate over non&#45;nullptr elements not owned by a given processor but semi&#45;local to that proce...">
<polygon fill="white" stroke="black" points="390,-784.5 390,-814.5 502,-814.5 502,-784.5 390,-784.5"/>
<text text-anchor="start" x="398" y="-802.5" font-family="Helvetica,sans-Serif" font-size="10.00">libMesh::Predicates</text>
<text text-anchor="middle" x="446" y="-791.5" font-family="Helvetica,sans-Serif" font-size="10.00">::Ghost&lt; T &gt;</text>
</a>
</g>
</g>
<!-- Node2&#45;&gt;Node22 -->
<g id="edge21" class="edge">
<title>Node2&#45;&gt;Node22</title>
<path fill="none" stroke="midnightblue" d="M280.85,-853.34C303.53,-844.08 331.5,-833.14 357,-824.5 367.68,-820.88 379.21,-817.35 390.29,-814.13"/>
<polygon fill="midnightblue" stroke="midnightblue" points="279.83,-849.98 271.91,-857.02 282.49,-856.45 279.83,-849.98"/>
</g>
<!-- Node23 -->
<g id="node23" class="node">
<title>Node23</title>
<g id="a_node23"><a xlink:href="structlibMesh_1_1Predicates_1_1IsNull.html" target="_top" xlink:title="Used to iterate over nullptr entries in a container. ">
<polygon fill="white" stroke="black" points="390,-735.5 390,-765.5 502,-765.5 502,-735.5 390,-735.5"/>
<text text-anchor="start" x="398" y="-753.5" font-family="Helvetica,sans-Serif" font-size="10.00">libMesh::Predicates</text>
<text text-anchor="middle" x="446" y="-742.5" font-family="Helvetica,sans-Serif" font-size="10.00">::IsNull&lt; T &gt;</text>
</a>
</g>
</g>
<!-- Node2&#45;&gt;Node23 -->
<g id="edge22" class="edge">
<title>Node2&#45;&gt;Node23</title>
<path fill="none" stroke="midnightblue" d="M257.91,-849.98C280.92,-828.05 318.69,-795.21 357,-775.5 367.31,-770.19 378.89,-765.88 390.19,-762.43"/>
<polygon fill="midnightblue" stroke="midnightblue" points="255.67,-847.28 250.93,-856.75 260.55,-852.3 255.67,-847.28"/>
</g>
<!-- Node24 -->
<g id="node24" class="node">
<title>Node24</title>
<g id="a_node24"><a xlink:href="structlibMesh_1_1Predicates_1_1Level.html" target="_top" xlink:title="Used to iterate over non&#45;nullptr elements of a specified (refinement) level. ">
<polygon fill="white" stroke="black" points="390,-686.5 390,-716.5 502,-716.5 502,-686.5 390,-686.5"/>
<text text-anchor="start" x="398" y="-704.5" font-family="Helvetica,sans-Serif" font-size="10.00">libMesh::Predicates</text>
<text text-anchor="middle" x="446" y="-693.5" font-family="Helvetica,sans-Serif" font-size="10.00">::Level&lt; T &gt;</text>
</a>
</g>
</g>
<!-- Node2&#45;&gt;Node24 -->
<g id="edge23" class="edge">
<title>Node2&#45;&gt;Node24</title>
<path fill="none" stroke="midnightblue" d="M249.44,-847.89C269.19,-815.26 308.36,-758.14 357,-726.5 366.98,-720 378.67,-715.17 390.21,-711.58"/>
<polygon fill="midnightblue" stroke="midnightblue" points="246.57,-845.86 244.5,-856.25 252.6,-849.42 246.57,-845.86"/>
</g>
<!-- Node25 -->
<g id="node25" class="node">
<title>Node25</title>
<g id="a_node25"><a xlink:href="structlibMesh_1_1Predicates_1_1Local.html" target="_top" xlink:title="Used to iterate over non&#45;nullptr, local entries (i.e. ">
<polygon fill="white" stroke="black" points="390,-637.5 390,-667.5 502,-667.5 502,-637.5 390,-637.5"/>
<text text-anchor="start" x="398" y="-655.5" font-family="Helvetica,sans-Serif" font-size="10.00">libMesh::Predicates</text>
<text text-anchor="middle" x="446" y="-644.5" font-family="Helvetica,sans-Serif" font-size="10.00">::Local&lt; T &gt;</text>
</a>
</g>
</g>
<!-- Node2&#45;&gt;Node25 -->
<g id="edge24" class="edge">
<title>Node2&#45;&gt;Node25</title>
<path fill="none" stroke="midnightblue" d="M244.37,-847.06C260.26,-805.26 297.57,-722.23 357,-677.5 366.77,-670.15 378.63,-664.95 390.43,-661.29"/>
<polygon fill="midnightblue" stroke="midnightblue" points="241.15,-845.67 240.98,-856.27 247.72,-848.09 241.15,-845.67"/>
</g>
<!-- Node26 -->
<g id="node26" class="node">
<title>Node26</title>
<g id="a_node26"><a xlink:href="structlibMesh_1_1Predicates_1_1LocalLevel.html" target="_top" xlink:title="Used to iterate over non&#45;nullptr local elements with a specified (refinement) level. ">
<polygon fill="white" stroke="black" points="390,-588.5 390,-618.5 502,-618.5 502,-588.5 390,-588.5"/>
<text text-anchor="start" x="398" y="-606.5" font-family="Helvetica,sans-Serif" font-size="10.00">libMesh::Predicates</text>
<text text-anchor="middle" x="446" y="-595.5" font-family="Helvetica,sans-Serif" font-size="10.00">::LocalLevel&lt; T &gt;</text>
</a>
</g>
</g>
<!-- Node2&#45;&gt;Node26 -->
<g id="edge25" class="edge">
<title>Node2&#45;&gt;Node26</title>
<path fill="none" stroke="midnightblue" d="M241.08,-846.46C253.17,-796.51 286.53,-687 357,-628.5 366.53,-620.59 378.43,-615.18 390.36,-611.48"/>
<polygon fill="midnightblue" stroke="midnightblue" points="237.7,-845.53 238.86,-856.07 244.52,-847.11 237.7,-845.53"/>
</g>
<!-- Node27 -->
<g id="node27" class="node">
<title>Node27</title>
<g id="a_node27"><a xlink:href="structlibMesh_1_1Predicates_1_1LocalNotLevel.html" target="_top" xlink:title="Used to iterate over non&#45;nullptr local elements not of a specified (refinement) level. ">
<polygon fill="white" stroke="black" points="386,-539.5 386,-569.5 506,-569.5 506,-539.5 386,-539.5"/>
<text text-anchor="start" x="394" y="-557.5" font-family="Helvetica,sans-Serif" font-size="10.00">libMesh::Predicates</text>
<text text-anchor="middle" x="446" y="-546.5" font-family="Helvetica,sans-Serif" font-size="10.00">::LocalNotLevel&lt; T &gt;</text>
</a>
</g>
</g>
<!-- Node2&#45;&gt;Node27 -->
<g id="edge26" class="edge">
<title>Node2&#45;&gt;Node27</title>
<path fill="none" stroke="midnightblue" d="M238.67,-846.55C247.02,-789.5 274.99,-652.49 357,-579.5 365.3,-572.11 375.65,-566.89 386.29,-563.21"/>
<polygon fill="midnightblue" stroke="midnightblue" points="235.23,-845.87 237.34,-856.26 242.16,-846.82 235.23,-845.87"/>
</g>
<!-- Node28 -->
<g id="node28" class="node">
<title>Node28</title>
<g id="a_node28"><a xlink:href="structlibMesh_1_1Predicates_1_1MultiEvaluable.html" target="_top" xlink:title="Used to iterate over elements where solutions indexed by a given vector of DofMaps are evaluable for ...">
<polygon fill="white" stroke="black" points="384,-490.5 384,-520.5 508,-520.5 508,-490.5 384,-490.5"/>
<text text-anchor="start" x="392" y="-508.5" font-family="Helvetica,sans-Serif" font-size="10.00">libMesh::Predicates</text>
<text text-anchor="middle" x="446" y="-497.5" font-family="Helvetica,sans-Serif" font-size="10.00">::MultiEvaluable&lt; T &gt;</text>
</a>
</g>
</g>
<!-- Node2&#45;&gt;Node28 -->
<g id="edge27" class="edge">
<title>Node2&#45;&gt;Node28</title>
<path fill="none" stroke="midnightblue" d="M236.94,-846.25C241.87,-782.48 263.48,-618.17 357,-530.5 364.65,-523.33 374.2,-518.2 384.17,-514.52"/>
<polygon fill="midnightblue" stroke="midnightblue" points="233.45,-845.89 236.26,-856.11 240.44,-846.37 233.45,-845.89"/>
</g>
<!-- Node29 -->
<g id="node29" class="node">
<title>Node29</title>
<g id="a_node29"><a xlink:href="structlibMesh_1_1Predicates_1_1NotActive.html" target="_top" xlink:title="Used to iterate over non&#45;nullptr, inactive entries in a container. ">
<polygon fill="white" stroke="black" points="390,-441.5 390,-471.5 502,-471.5 502,-441.5 390,-441.5"/>
<text text-anchor="start" x="398" y="-459.5" font-family="Helvetica,sans-Serif" font-size="10.00">libMesh::Predicates</text>
<text text-anchor="middle" x="446" y="-448.5" font-family="Helvetica,sans-Serif" font-size="10.00">::NotActive&lt; T &gt;</text>
</a>
</g>
</g>
<!-- Node2&#45;&gt;Node29 -->
<g id="edge28" class="edge">
<title>Node2&#45;&gt;Node29</title>
<path fill="none" stroke="midnightblue" d="M235.57,-846.37C237.24,-776.61 251.65,-584.3 357,-481.5 366.09,-472.63 378.1,-466.86 390.3,-463.12"/>
<polygon fill="midnightblue" stroke="midnightblue" points="232.08,-846 235.42,-856.05 239.08,-846.11 232.08,-846"/>
</g>
<!-- Node30 -->
<g id="node30" class="node">
<title>Node30</title>
<g id="a_node30"><a xlink:href="structlibMesh_1_1Predicates_1_1NotAncestor.html" target="_top" xlink:title="Used to iterate over non&#45;nullptr, entries that have no children (i.e. ">
<polygon fill="white" stroke="black" points="390,-392.5 390,-422.5 502,-422.5 502,-392.5 390,-392.5"/>
<text text-anchor="start" x="398" y="-410.5" font-family="Helvetica,sans-Serif" font-size="10.00">libMesh::Predicates</text>
<text text-anchor="middle" x="446" y="-399.5" font-family="Helvetica,sans-Serif" font-size="10.00">::NotAncestor&lt; T &gt;</text>
</a>
</g>
</g>
<!-- Node2&#45;&gt;Node30 -->
<g id="edge29" class="edge">
<title>Node2&#45;&gt;Node30</title>
<path fill="none" stroke="midnightblue" d="M239.29,-846.57C252.2,-761.49 297.06,-492.88 357,-432.5 365.95,-423.48 377.9,-417.66 390.1,-413.92"/>
<polygon fill="midnightblue" stroke="midnightblue" points="235.82,-846.05 237.81,-856.45 242.75,-847.08 235.82,-846.05"/>
</g>
<!-- Node31 -->
<g id="node31" class="node">
<title>Node31</title>
<g id="a_node31"><a xlink:href="structlibMesh_1_1Predicates_1_1NotLevel.html" target="_top" xlink:title="Used to iterate over non&#45;nullptr elements not of a specified (refinement) level. ">
<polygon fill="white" stroke="black" points="390,-343.5 390,-373.5 502,-373.5 502,-343.5 390,-343.5"/>
<text text-anchor="start" x="398" y="-361.5" font-family="Helvetica,sans-Serif" font-size="10.00">libMesh::Predicates</text>
<text text-anchor="middle" x="446" y="-350.5" font-family="Helvetica,sans-Serif" font-size="10.00">::NotLevel&lt; T &gt;</text>
</a>
</g>
</g>
<!-- Node2&#45;&gt;Node31 -->
<g id="edge30" class="edge">
<title>Node2&#45;&gt;Node31</title>
<path fill="none" stroke="midnightblue" d="M238.54,-846.41C249.67,-755.09 291.07,-451.66 357,-383.5 365.94,-374.25 378.04,-368.36 390.39,-364.61"/>
<polygon fill="midnightblue" stroke="midnightblue" points="235.06,-846 237.35,-856.34 242.01,-846.83 235.06,-846"/>
</g>
<!-- Node32 -->
<g id="node32" class="node">
<title>Node32</title>
<g id="a_node32"><a xlink:href="structlibMesh_1_1Predicates_1_1NotLocal.html" target="_top" xlink:title="Used to iterate over non&#45;nullptr, non&#45;local entries in a container. ">
<polygon fill="white" stroke="black" points="390,-294.5 390,-324.5 502,-324.5 502,-294.5 390,-294.5"/>
<text text-anchor="start" x="398" y="-312.5" font-family="Helvetica,sans-Serif" font-size="10.00">libMesh::Predicates</text>
<text text-anchor="middle" x="446" y="-301.5" font-family="Helvetica,sans-Serif" font-size="10.00">::NotLocal&lt; T &gt;</text>
</a>
</g>
</g>
<!-- Node2&#45;&gt;Node32 -->
<g id="edge31" class="edge">
<title>Node2&#45;&gt;Node32</title>
<path fill="none" stroke="midnightblue" d="M237.91,-846.36C247.36,-749.19 285.02,-410.52 357,-334.5 365.84,-325.16 377.9,-319.22 390.25,-315.48"/>
<polygon fill="midnightblue" stroke="midnightblue" points="234.43,-845.91 236.97,-856.2 241.4,-846.57 234.43,-845.91"/>
</g>
<!-- Node33 -->
<g id="node33" class="node">
<title>Node33</title>
<g id="a_node33"><a xlink:href="structlibMesh_1_1Predicates_1_1NotNull.html" target="_top" xlink:title="Used to iterate over non&#45;nullptr entries in a container. ">
<polygon fill="white" stroke="black" points="390,-245.5 390,-275.5 502,-275.5 502,-245.5 390,-245.5"/>
<text text-anchor="start" x="398" y="-263.5" font-family="Helvetica,sans-Serif" font-size="10.00">libMesh::Predicates</text>
<text text-anchor="middle" x="446" y="-252.5" font-family="Helvetica,sans-Serif" font-size="10.00">::NotNull&lt; T &gt;</text>
</a>
</g>
</g>
<!-- Node2&#45;&gt;Node33 -->
<g id="edge32" class="edge">
<title>Node2&#45;&gt;Node33</title>
<path fill="none" stroke="midnightblue" d="M237.37,-846.35C245.25,-743.65 278.94,-369.45 357,-285.5 365.76,-276.08 377.79,-270.12 390.14,-266.37"/>
<polygon fill="midnightblue" stroke="midnightblue" points="233.89,-846 236.64,-856.23 240.87,-846.52 233.89,-846"/>
</g>
<!-- Node34 -->
<g id="node34" class="node">
<title>Node34</title>
<g id="a_node34"><a xlink:href="structlibMesh_1_1Predicates_1_1NotPID.html" target="_top" xlink:title="Used to iterate over non&#45;nullptr elements not owned by a given processor. ">
<polygon fill="white" stroke="black" points="390,-196.5 390,-226.5 502,-226.5 502,-196.5 390,-196.5"/>
<text text-anchor="start" x="398" y="-214.5" font-family="Helvetica,sans-Serif" font-size="10.00">libMesh::Predicates</text>
<text text-anchor="middle" x="446" y="-203.5" font-family="Helvetica,sans-Serif" font-size="10.00">::NotPID&lt; T &gt;</text>
</a>
</g>
</g>
<!-- Node2&#45;&gt;Node34 -->
<g id="edge33" class="edge">
<title>Node2&#45;&gt;Node34</title>
<path fill="none" stroke="midnightblue" d="M236.93,-846.29C243.32,-738.2 272.84,-328.41 357,-236.5 365.69,-227.01 377.69,-221.03 390.03,-217.27"/>
<polygon fill="midnightblue" stroke="midnightblue" points="233.44,-845.98 236.36,-856.16 240.43,-846.38 233.44,-845.98"/>
</g>
<!-- Node35 -->
<g id="node35" class="node">
<title>Node35</title>
<g id="a_node35"><a xlink:href="structlibMesh_1_1Predicates_1_1NotSubActive.html" target="_top" xlink:title="Used to iterate over non&#45;nullptr, non&#45;subactive entries (i.e. ">
<polygon fill="white" stroke="black" points="387.5,-147.5 387.5,-177.5 504.5,-177.5 504.5,-147.5 387.5,-147.5"/>
<text text-anchor="start" x="395.5" y="-165.5" font-family="Helvetica,sans-Serif" font-size="10.00">libMesh::Predicates</text>
<text text-anchor="middle" x="446" y="-154.5" font-family="Helvetica,sans-Serif" font-size="10.00">::NotSubActive&lt; T &gt;</text>
</a>
</g>
</g>
<!-- Node2&#45;&gt;Node35 -->
<g id="edge34" class="edge">
<title>Node2&#45;&gt;Node35</title>
<path fill="none" stroke="midnightblue" d="M236.53,-846.47C241.5,-733.58 266.66,-287.48 357,-187.5 365.09,-178.54 376.14,-172.7 387.66,-168.91"/>
<polygon fill="midnightblue" stroke="midnightblue" points="233.04,-846.08 236.11,-856.22 240.03,-846.37 233.04,-846.08"/>
</g>
<!-- Node36 -->
<g id="node36" class="node">
<title>Node36</title>
<g id="a_node36"><a xlink:href="structlibMesh_1_1Predicates_1_1PID.html" target="_top" xlink:title="Used to iterate over non&#45;nullptr elements owned by a given processor. ">
<polygon fill="white" stroke="black" points="390,-98.5 390,-128.5 502,-128.5 502,-98.5 390,-98.5"/>
<text text-anchor="start" x="398" y="-116.5" font-family="Helvetica,sans-Serif" font-size="10.00">libMesh::Predicates</text>
<text text-anchor="middle" x="446" y="-105.5" font-family="Helvetica,sans-Serif" font-size="10.00">::PID&lt; T &gt;</text>
</a>
</g>
</g>
<!-- Node2&#45;&gt;Node36 -->
<g id="edge35" class="edge">
<title>Node2&#45;&gt;Node36</title>
<path fill="none" stroke="midnightblue" d="M236.2,-846.15C239.87,-727.81 260.6,-246.44 357,-138.5 365.68,-128.79 377.82,-122.73 390.33,-118.99"/>
<polygon fill="midnightblue" stroke="midnightblue" points="232.7,-846 235.91,-856.1 239.7,-846.2 232.7,-846"/>
</g>
<!-- Node37 -->
<g id="node37" class="node">
<title>Node37</title>
<g id="a_node37"><a xlink:href="structlibMesh_1_1Predicates_1_1SubActive.html" target="_top" xlink:title="Used to iterate over non&#45;nullptr, subactive entries (i.e. ">
<polygon fill="white" stroke="black" points="390,-49.5 390,-79.5 502,-79.5 502,-49.5 390,-49.5"/>
<text text-anchor="start" x="398" y="-67.5" font-family="Helvetica,sans-Serif" font-size="10.00">libMesh::Predicates</text>
<text text-anchor="middle" x="446" y="-56.5" font-family="Helvetica,sans-Serif" font-size="10.00">::SubActive&lt; T &gt;</text>
</a>
</g>
</g>
<!-- Node2&#45;&gt;Node37 -->
<g id="edge36" class="edge">
<title>Node2&#45;&gt;Node37</title>
<path fill="none" stroke="midnightblue" d="M235.9,-846.37C238.28,-723.64 254.37,-205.58 357,-89.5 365.63,-79.74 377.76,-73.67 390.26,-69.93"/>
<polygon fill="midnightblue" stroke="midnightblue" points="232.4,-846.01 235.72,-856.07 239.4,-846.13 232.4,-846.01"/>
</g>
<!-- Node38 -->
<g id="node38" class="node">
<title>Node38</title>
<g id="a_node38"><a xlink:href="structlibMesh_1_1Predicates_1_1Type.html" target="_top" xlink:title="Used to iterate over non&#45;nullptr, elements of a given geometric type. ">
<polygon fill="white" stroke="black" points="390,-0.5 390,-30.5 502,-30.5 502,-0.5 390,-0.5"/>
<text text-anchor="start" x="398" y="-18.5" font-family="Helvetica,sans-Serif" font-size="10.00">libMesh::Predicates</text>
<text text-anchor="middle" x="446" y="-7.5" font-family="Helvetica,sans-Serif" font-size="10.00">::Type&lt; T &gt;</text>
</a>
</g>
</g>
<!-- Node2&#45;&gt;Node38 -->
<g id="edge37" class="edge">
<title>Node2&#45;&gt;Node38</title>
<path fill="none" stroke="midnightblue" d="M235.63,-846.38C236.81,-719.07 248.19,-164.69 357,-40.5 365.58,-30.7 377.7,-24.62 390.2,-20.87"/>
<polygon fill="midnightblue" stroke="midnightblue" points="232.13,-846.11 235.56,-856.13 239.13,-846.16 232.13,-846.11"/>
</g>
</g>
</svg>
